<svg version="1.1" xmlns="http://www.w3.org/2000/svg" viewBox="0 0 386.32417766675354 188" width="1158.9725330002607" height="564">
  <!-- svg-source:excalidraw -->
  
  <defs>
    <style class="style-fonts">
      @font-face {
        font-family: "Virgil";
        src: url("https://excalidraw.com/Virgil.woff2");
      }
      @font-face {
        font-family: "Cascadia";
        src: url("https://excalidraw.com/Cascadia.woff2");
      }
    </style>
  </defs>
  <g stroke-linecap="round"><g transform="translate(10.324177666753542 101) rotate(0 182.62355590239164 -39.99365219806455)"><path d="M-0.32 -0.38 C30.18 -13.48, 122.11 -78.61, 183.09 -79.6 C244.07 -80.58, 335.16 -18.23, 365.57 -6.29 M1.71 -1.63 C32.05 -14.48, 121.62 -77.27, 182.19 -78.37 C242.76 -79.48, 334.45 -20.1, 365.11 -8.25" stroke="#000000" stroke-width="1" fill="none"></path></g></g><mask></mask><g stroke-linecap="round"><g transform="translate(11.324177666753542 100) rotate(0 181.29020646438002 31.687001338396954)"><path d="M-1.03 1.16 C30.13 12.66, 125.9 70.13, 186.67 69.26 C247.45 68.39, 334.08 8.46, 363.61 -4.05 M0.63 0.73 C31.62 11.82, 125.13 68.38, 185.55 67.27 C245.97 66.17, 333.34 6.17, 363.17 -5.9" stroke="#000000" stroke-width="1" fill="none"></path></g></g><mask></mask><g stroke-linecap="round" transform="translate(148.32417766675354 44) rotate(0 43.5 51)"><path d="M15.7 12.33 C15.7 12.33, 15.7 12.33, 15.7 12.33 M15.7 12.33 C15.7 12.33, 15.7 12.33, 15.7 12.33 M4.44 31.73 C12.08 23.6, 18.23 15.4, 26.32 6.33 M3.54 34.03 C9.38 26.4, 13.9 20.1, 24.52 9.04 M3.21 38.85 C11.2 30.32, 17.96 20.91, 35.48 4.23 M3.31 38.19 C15.51 25.27, 25.3 12, 34.4 4.52 M2.14 42.48 C11.62 32.21, 20.07 21.84, 41.61 0.87 M4.76 45.22 C16.28 29.95, 27.67 17.45, 39.6 2.37 M2.71 52.28 C18.57 33.11, 29.51 17.98, 43.94 3.87 M3.44 51.62 C17.25 33.45, 31.87 16.67, 44.24 3.62 M2.62 55.69 C16.53 43.07, 27.18 26.14, 47.94 1.96 M3.92 56.47 C13.66 45.15, 22.77 33.55, 50.35 3.26 M3.59 64.59 C19.69 43.9, 41.69 19.51, 55.13 6.44 M3.02 63.66 C13.72 50.58, 25.7 37.91, 53.23 5.29 M5.52 69.32 C18.15 52.12, 27.08 39.49, 60.68 6.53 M5.41 67.43 C16.33 55.88, 27.66 43.7, 58.44 5.54 M5.83 72.21 C31.02 46.29, 51.52 18.86, 63.21 6.21 M6.42 71.52 C17.79 58.28, 30.62 43.49, 65 6.23 M10.25 76.35 C24.72 54.03, 42.38 35.11, 67.12 7.9 M8.23 75.43 C23.87 58.21, 37.05 41.72, 67.26 9.07 M10.66 79 C22.82 64.52, 38.51 47.26, 68.23 11.78 M11.16 79.45 C33.04 52.86, 56.79 27.1, 67.9 12.19 M12.07 81.92 C34.6 59.21, 58.42 32.03, 72.92 15.69 M12.09 82.57 C28.38 64.52, 44.51 46.02, 72.51 15.64 M13.02 85.3 C31.03 67.7, 47.2 48.54, 72.5 18.77 M14.29 85.9 C29.19 70.1, 42.91 54.63, 73.41 18.54 M18.63 88.88 C36.64 70.57, 52.19 48.74, 78.18 19.81 M15.9 89.39 C32.96 71.08, 47.37 53.33, 78.08 21.03 M22.25 91.79 C38.37 73.26, 52.82 51.4, 78.2 22.89 M21.08 91.24 C34.6 76.39, 49.1 59.23, 79.71 23.44 M22.64 94.21 C45.88 69.38, 70.59 42.46, 81.45 27 M24.52 95.13 C43.51 71.34, 66.06 48.1, 82.22 27.48 M28.85 97.47 C45.94 74.17, 62.85 53.03, 85.3 33.17 M27.84 95.86 C46.89 76.27, 64.35 53.47, 83.59 30.99 M28.69 98.43 C48.46 76.13, 71.22 55.24, 86.46 38.32 M29.49 99.31 C41.8 85.87, 53.67 73.43, 84.15 37.24 M32.39 99.13 C50.5 83.47, 62.75 64.98, 84.85 42.44 M33.8 101.61 C47.05 86.81, 58.39 72.66, 85.82 41.77 M37.72 104.38 C57.29 81, 75.57 61.64, 87.91 45.89 M37.57 104.36 C47.14 92.77, 57.19 79.01, 85.93 47.22 M44.2 104.38 C52.68 90.05, 63.68 79.58, 89.64 52.33 M43.74 102.77 C60 85.25, 75.69 66.3, 87.68 49.81 M50.39 101.42 C57.27 92.93, 65.33 81.98, 90.33 55.35 M48.07 101.93 C59.94 91.15, 71.01 77.88, 89.31 55.56 M53.39 102.4 C64.23 90.36, 72.25 80.06, 86.34 66.85 M56.11 100.89 C62.47 91.85, 69.15 84.39, 85.25 66.17" stroke="#000000" stroke-width="0.5" fill="none"></path><path d="M62.89 4.86 C69.69 8.29, 76.1 17.2, 80.2 25.31 C84.29 33.43, 87.75 44.5, 87.44 53.54 C87.13 62.59, 82.75 72.14, 78.33 79.57 C73.9 86.99, 68.06 94.4, 60.86 98.11 C53.67 101.82, 42.96 103.59, 35.15 101.83 C27.34 100.06, 19.68 94.01, 14 87.53 C8.32 81.05, 3.21 71.56, 1.08 62.96 C-1.05 54.36, -1.22 44.38, 1.23 35.93 C3.68 27.47, 9.45 18.02, 15.78 12.24 C22.1 6.47, 30.27 1.58, 39.18 1.29 C48.1 1.01, 63.47 8.12, 69.26 10.53 C75.06 12.93, 74.42 15.23, 73.96 15.73 M42.31 -0.54 C49.66 -1.65, 58.25 1.31, 64.79 6.27 C71.34 11.22, 78.07 21, 81.59 29.18 C85.12 37.35, 86.76 46.37, 85.92 55.32 C85.07 64.27, 81.54 75.81, 76.54 82.89 C71.54 89.98, 63.19 94.76, 55.92 97.84 C48.65 100.92, 40.17 103.44, 32.93 101.39 C25.69 99.33, 18.02 92.26, 12.48 85.54 C6.94 78.81, 1.03 69.83, -0.31 61.04 C-1.65 52.24, 1.08 41.27, 4.45 32.75 C7.82 24.24, 13.75 15.2, 19.93 9.93 C26.1 4.66, 37.79 2.64, 41.5 1.14 C45.22 -0.37, 42.12 0.16, 42.22 0.91" stroke="#000000" stroke-width="1" fill="none"></path></g><g transform="translate(13.324177666753542 81) rotate(0 4.5 6.5)" stroke="none"><path fill="#000000" d="M 2.38,-1.19 Q 2.38,-1.19 2.95,-0.03 3.53,1.11 4.08,3.22 4.62,5.34 5.87,6.69 7.12,8.03 9.08,9.36 11.04,10.68 11.36,11.07 11.67,11.46 11.85,11.92 12.03,12.39 12.04,12.89 12.06,13.39 11.92,13.87 11.77,14.35 11.48,14.76 11.19,15.17 10.79,15.46 10.39,15.75 9.91,15.90 9.43,16.05 8.93,16.04 8.43,16.03 7.96,15.86 7.49,15.70 7.10,15.38 6.71,15.07 6.44,14.65 6.16,14.23 6.04,13.75 5.92,13.27 5.95,12.77 5.99,12.27 6.19,11.81 6.38,11.35 6.71,10.97 7.04,10.60 7.48,10.35 7.91,10.10 8.40,10.00 8.89,9.91 9.39,9.97 9.88,10.03 10.33,10.25 10.78,10.47 11.14,10.82 11.49,11.18 11.72,11.62 11.94,12.07 12.01,12.56 12.08,13.06 11.99,13.55 11.90,14.04 11.66,14.48 11.42,14.92 11.05,15.25 10.68,15.59 10.22,15.79 9.76,15.99 9.26,16.03 8.76,16.08 8.28,15.96 7.79,15.84 7.37,15.58 6.95,15.31 6.95,15.31 6.95,15.31 6.05,14.43 5.16,13.56 3.85,12.72 2.54,11.89 1.67,11.15 0.79,10.41 -0.06,8.20 -0.93,5.98 -1.08,4.73 -1.23,3.48 -1.80,2.33 -2.38,1.19 -2.48,0.88 -2.59,0.58 -2.62,0.26 -2.66,-0.05 -2.61,-0.37 -2.57,-0.68 -2.45,-0.98 -2.33,-1.28 -2.14,-1.54 -1.95,-1.80 -1.71,-2.01 -1.46,-2.22 -1.18,-2.36 -0.89,-2.50 -0.58,-2.57 -0.26,-2.64 0.05,-2.64 0.37,-2.63 0.68,-2.55 0.99,-2.47 1.27,-2.31 1.55,-2.16 1.79,-1.94 2.02,-1.72 2.20,-1.45 2.38,-1.19 2.38,-1.19 L 2.38,-1.19 Z"></path></g><g transform="translate(19.324177666753542 78) rotate(0 5 3.5)" stroke="none"><path fill="#000000" d="M 2.37,-1.18 Q 2.37,-1.18 2.87,-0.12 3.37,0.93 4.57,1.49 5.77,2.06 8.08,3.06 10.39,4.05 10.85,4.19 11.31,4.33 11.70,4.61 12.09,4.89 12.37,5.28 12.65,5.67 12.80,6.13 12.94,6.59 12.92,7.07 12.91,7.55 12.75,8.00 12.58,8.46 12.28,8.83 11.98,9.20 11.57,9.46 11.17,9.72 10.70,9.84 10.24,9.95 9.76,9.92 9.28,9.88 8.84,9.69 8.40,9.50 8.04,9.18 7.68,8.86 7.44,8.44 7.21,8.02 7.12,7.55 7.03,7.08 7.09,6.60 7.16,6.12 7.37,5.69 7.58,5.26 7.92,4.92 8.26,4.58 8.69,4.37 9.12,4.16 9.60,4.09 10.07,4.03 10.55,4.12 11.02,4.21 11.44,4.44 11.85,4.68 12.18,5.04 12.50,5.40 12.69,5.84 12.88,6.28 12.92,6.76 12.95,7.24 12.84,7.70 12.72,8.17 12.46,8.57 12.21,8.98 11.83,9.28 11.46,9.58 11.01,9.75 10.55,9.91 10.07,9.92 9.59,9.94 9.59,9.94 9.60,9.94 6.46,8.68 3.32,7.42 2.35,6.52 1.38,5.61 0.15,4.64 -1.07,3.66 -1.72,2.42 -2.37,1.18 -2.48,0.88 -2.59,0.58 -2.62,0.26 -2.65,-0.05 -2.61,-0.36 -2.56,-0.68 -2.44,-0.98 -2.32,-1.28 -2.14,-1.54 -1.95,-1.80 -1.70,-2.00 -1.46,-2.21 -1.17,-2.35 -0.89,-2.50 -0.58,-2.57 -0.26,-2.64 0.05,-2.63 0.37,-2.63 0.68,-2.54 0.99,-2.46 1.27,-2.31 1.55,-2.15 1.78,-1.93 2.02,-1.72 2.19,-1.45 2.37,-1.18 2.37,-1.18 L 2.37,-1.18 Z"></path></g><g transform="translate(29.324177666753542 71) rotate(0 4.5 4.5)" stroke="none"><path fill="#000000" d="M 1.88,-1.88 Q 1.88,-1.88 2.76,-1.02 3.64,-0.15 4.64,0.89 5.64,1.93 6.94,3.43 8.24,4.92 9.09,5.52 9.95,6.11 10.38,6.34 10.82,6.57 11.16,6.92 11.50,7.27 11.71,7.72 11.92,8.16 11.97,8.65 12.03,9.14 11.93,9.62 11.82,10.10 11.57,10.52 11.32,10.95 10.95,11.27 10.58,11.59 10.12,11.77 9.67,11.96 9.18,11.99 8.68,12.02 8.21,11.89 7.74,11.76 7.33,11.49 6.92,11.21 6.62,10.82 6.32,10.43 6.16,9.97 6.00,9.50 6.00,9.01 5.99,8.52 6.15,8.05 6.30,7.59 6.60,7.20 6.89,6.80 7.30,6.52 7.70,6.25 8.18,6.11 8.65,5.98 9.14,6.00 9.63,6.02 10.09,6.20 10.55,6.38 10.92,6.70 11.30,7.01 11.55,7.43 11.81,7.85 11.92,8.33 12.03,8.81 11.98,9.30 11.93,9.79 11.72,10.24 11.52,10.68 11.18,11.04 10.85,11.40 10.41,11.64 9.98,11.87 9.50,11.95 9.01,12.03 8.53,11.96 8.04,11.88 8.04,11.88 8.04,11.88 6.04,10.46 4.03,9.04 3.11,7.71 2.19,6.39 1.00,4.99 -0.19,3.60 -1.04,2.74 -1.88,1.88 -2.08,1.63 -2.28,1.38 -2.41,1.08 -2.54,0.79 -2.60,0.47 -2.66,0.16 -2.64,-0.16 -2.62,-0.48 -2.53,-0.78 -2.43,-1.09 -2.26,-1.37 -2.10,-1.64 -1.87,-1.87 -1.64,-2.10 -1.37,-2.26 -1.09,-2.43 -0.78,-2.53 -0.48,-2.62 -0.15,-2.64 0.16,-2.66 0.47,-2.60 0.79,-2.54 1.08,-2.41 1.38,-2.28 1.63,-2.08 1.88,-1.88 1.88,-1.88 L 1.88,-1.88 Z"></path></g><g transform="translate(39.32417766675354 64) rotate(0 3 6.5)" stroke="none"><path fill="#000000" d="M 2.63,0 Q 2.63,0 2.62,1.42 2.60,2.85 3.20,4.23 3.81,5.61 4.08,6.76 4.35,7.92 6.15,9.35 7.94,10.77 8.25,11.14 8.55,11.51 8.72,11.96 8.89,12.41 8.91,12.88 8.93,13.36 8.79,13.82 8.66,14.28 8.38,14.67 8.11,15.06 7.72,15.35 7.34,15.63 6.88,15.77 6.43,15.92 5.95,15.91 5.47,15.90 5.02,15.74 4.57,15.58 4.19,15.29 3.82,14.99 3.55,14.59 3.29,14.19 3.17,13.73 3.05,13.27 3.09,12.79 3.12,12.31 3.30,11.87 3.49,11.43 3.80,11.07 4.12,10.71 4.53,10.47 4.95,10.23 5.42,10.14 5.88,10.04 6.36,10.10 6.83,10.16 7.26,10.37 7.69,10.58 8.04,10.91 8.38,11.25 8.59,11.67 8.81,12.10 8.88,12.57 8.95,13.04 8.86,13.51 8.78,13.99 8.55,14.40 8.32,14.82 7.97,15.15 7.61,15.47 7.18,15.66 6.74,15.86 6.26,15.90 5.79,15.94 5.32,15.83 4.86,15.72 4.45,15.47 4.04,15.22 4.04,15.22 4.05,15.22 2.19,13.24 0.33,11.27 -0.34,9.65 -1.02,8.04 -1.50,6.96 -1.97,5.88 -2.29,4.38 -2.60,2.89 -2.62,1.44 -2.63,0 -2.59,-0.31 -2.56,-0.63 -2.44,-0.92 -2.33,-1.22 -2.15,-1.48 -1.97,-1.74 -1.73,-1.95 -1.49,-2.17 -1.21,-2.31 -0.93,-2.46 -0.62,-2.54 -0.31,-2.61 0.00,-2.61 0.31,-2.61 0.62,-2.54 0.93,-2.46 1.21,-2.31 1.49,-2.17 1.73,-1.95 1.97,-1.74 2.15,-1.48 2.33,-1.22 2.44,-0.92 2.56,-0.63 2.59,-0.31 2.63,0.00 2.63,0.00 L 2.63,0 Z"></path></g><g transform="translate(49.32417766675354 63) rotate(0 6.5 5.5)" stroke="none"><path fill="#000000" d="M 2.18,-1.09 Q 2.18,-1.09 2.76,0.02 3.34,1.13 5.15,2.69 6.97,4.24 8.01,5.10 9.05,5.96 11.50,7.32 13.94,8.68 14.29,8.89 14.63,9.10 14.89,9.41 15.15,9.72 15.30,10.10 15.44,10.48 15.46,10.88 15.48,11.29 15.37,11.67 15.26,12.06 15.03,12.40 14.80,12.73 14.47,12.97 14.15,13.22 13.76,13.34 13.38,13.47 12.98,13.47 12.57,13.46 12.19,13.33 11.80,13.20 11.48,12.95 11.16,12.70 10.94,12.36 10.71,12.03 10.61,11.64 10.50,11.25 10.53,10.84 10.55,10.44 10.71,10.06 10.86,9.69 11.13,9.38 11.39,9.07 11.74,8.87 12.09,8.66 12.48,8.58 12.88,8.49 13.28,8.54 13.68,8.59 14.05,8.76 14.42,8.93 14.71,9.22 15.00,9.50 15.19,9.86 15.37,10.22 15.44,10.62 15.50,11.02 15.43,11.41 15.36,11.81 15.17,12.17 14.98,12.53 14.68,12.80 14.38,13.08 14.01,13.25 13.64,13.41 13.24,13.45 12.84,13.49 12.44,13.40 12.05,13.31 12.05,13.31 12.05,13.31 10.12,12.18 8.20,11.04 7.10,10.26 6.00,9.48 5.05,8.61 4.11,7.74 2.28,6.46 0.46,5.18 -0.28,4.32 -1.04,3.46 -1.61,2.27 -2.18,1.09 -2.28,0.81 -2.38,0.53 -2.41,0.24 -2.44,-0.04 -2.40,-0.34 -2.36,-0.63 -2.25,-0.90 -2.14,-1.17 -1.97,-1.41 -1.79,-1.65 -1.57,-1.84 -1.34,-2.04 -1.08,-2.17 -0.82,-2.30 -0.53,-2.36 -0.24,-2.43 0.04,-2.42 0.34,-2.42 0.62,-2.34 0.91,-2.27 1.17,-2.12 1.42,-1.98 1.64,-1.78 1.86,-1.58 2.02,-1.33 2.18,-1.09 2.18,-1.09 L 2.18,-1.09 Z"></path></g><g transform="translate(60.32417766675354 59) rotate(0 1.5 2.5)" stroke="none"><path fill="#000000" d="M 1.88,-1.25 Q 1.88,-1.25 2.50,-0.42 3.12,0.40 4.18,1.47 5.24,2.53 5.41,2.79 5.57,3.06 5.67,3.35 5.77,3.65 5.79,3.96 5.82,4.27 5.77,4.58 5.72,4.88 5.59,5.17 5.47,5.45 5.28,5.70 5.09,5.95 4.85,6.15 4.61,6.34 4.33,6.48 4.05,6.61 3.74,6.67 3.44,6.73 3.13,6.72 2.82,6.71 2.52,6.62 2.22,6.53 1.95,6.38 1.68,6.22 1.46,6.00 1.23,5.79 -0.24,3.56 -1.72,1.33 -1.89,1.02 -2.05,0.71 -2.11,0.37 -2.18,0.02 -2.12,-0.32 -2.07,-0.67 -1.91,-0.98 -1.75,-1.30 -1.49,-1.54 -1.24,-1.79 -0.92,-1.94 -0.60,-2.09 -0.25,-2.13 0.09,-2.17 0.43,-2.10 0.78,-2.03 1.08,-1.85 1.39,-1.67 1.62,-1.41 1.85,-1.14 1.99,-0.81 2.12,-0.49 2.14,-0.14 2.17,0.21 2.08,0.55 1.98,0.89 1.79,1.18 1.60,1.48 1.32,1.69 1.04,1.91 0.71,2.03 0.37,2.14 0.02,2.15 -0.32,2.15 -0.66,2.04 -1.00,1.93 -1.28,1.72 -1.56,1.51 -1.76,1.22 -1.96,0.93 -2.06,0.59 -2.16,0.25 -2.15,-0.09 -2.13,-0.44 -2.00,-0.77 -1.88,-1.10 -1.65,-1.37 -1.43,-1.64 -1.13,-1.83 -0.82,-2.01 -0.48,-2.09 -0.14,-2.17 0.20,-2.14 0.56,-2.10 0.88,-1.96 1.20,-1.81 1.46,-1.57 1.72,-1.33 1.72,-1.33 1.72,-1.33 3.48,0.59 5.24,2.53 5.41,2.79 5.57,3.06 5.67,3.35 5.77,3.65 5.79,3.96 5.82,4.27 5.77,4.58 5.72,4.88 5.59,5.17 5.47,5.45 5.28,5.70 5.10,5.95 4.85,6.15 4.61,6.34 4.33,6.48 4.05,6.61 3.74,6.67 3.44,6.73 3.13,6.72 2.82,6.71 2.52,6.62 2.22,6.53 1.95,6.38 1.68,6.22 1.46,6.00 1.23,5.79 0.20,4.41 -0.82,3.04 -1.35,2.14 -1.88,1.25 -2.00,1.01 -2.12,0.76 -2.18,0.50 -2.24,0.23 -2.24,-0.03 -2.23,-0.30 -2.16,-0.57 -2.10,-0.83 -1.96,-1.07 -1.83,-1.31 -1.65,-1.51 -1.47,-1.71 -1.24,-1.86 -1.01,-2.01 -0.76,-2.11 -0.50,-2.20 -0.23,-2.23 0.03,-2.26 0.30,-2.22 0.57,-2.18 0.82,-2.08 1.08,-1.98 1.30,-1.82 1.52,-1.66 1.70,-1.46 1.88,-1.25 1.88,-1.25 L 1.88,-1.25 Z"></path></g><g transform="translate(72.32417766675354 55) rotate(0 2 4.5)" stroke="none"><path fill="#000000" d="M 2.13,-0.79 Q 2.13,-0.79 2.87,1.54 3.61,3.88 4.64,5.75 5.66,7.62 5.83,7.93 6.01,8.23 6.08,8.57 6.15,8.91 6.11,9.26 6.06,9.60 5.91,9.92 5.76,10.23 5.52,10.48 5.27,10.73 4.96,10.89 4.65,11.05 4.31,11.10 3.96,11.15 3.62,11.09 3.28,11.03 2.97,10.86 2.67,10.69 2.43,10.43 2.19,10.18 2.05,9.86 1.91,9.54 1.88,9.19 1.85,8.85 1.93,8.51 2.01,8.17 2.19,7.87 2.37,7.58 2.64,7.35 2.91,7.13 3.24,7.01 3.56,6.88 3.91,6.87 4.26,6.86 4.59,6.95 4.93,7.05 5.21,7.25 5.50,7.45 5.71,7.73 5.91,8.01 6.02,8.35 6.13,8.68 6.12,9.03 6.12,9.38 6.00,9.70 5.88,10.03 5.67,10.31 5.45,10.58 5.16,10.77 4.87,10.96 4.53,11.05 4.20,11.14 3.85,11.12 3.50,11.09 3.18,10.96 2.86,10.82 2.59,10.59 2.33,10.37 2.33,10.37 2.33,10.37 1.08,7.84 -0.16,5.31 -1.15,3.05 -2.13,0.79 -2.19,0.53 -2.26,0.26 -2.26,-0.00 -2.25,-0.28 -2.19,-0.54 -2.12,-0.81 -1.99,-1.05 -1.86,-1.30 -1.68,-1.50 -1.50,-1.70 -1.27,-1.86 -1.05,-2.01 -0.79,-2.11 -0.53,-2.21 -0.26,-2.24 0.00,-2.27 0.28,-2.24 0.55,-2.20 0.80,-2.11 1.06,-2.01 1.29,-1.85 1.51,-1.69 1.69,-1.49 1.87,-1.28 2.00,-1.04 2.13,-0.79 2.13,-0.79 L 2.13,-0.79 Z"></path></g><g transform="translate(78.32417766675354 50) rotate(0 4.5 3)" stroke="none"><path fill="#000000" d="M 0.82,-2.47 Q 0.82,-2.47 1.70,-2.22 2.57,-1.97 3.64,-1.54 4.70,-1.11 5.62,-0.56 6.54,-0.01 8.51,1.75 10.48,3.51 10.83,3.81 11.19,4.12 11.43,4.51 11.68,4.91 11.78,5.37 11.88,5.83 11.83,6.29 11.78,6.76 11.59,7.18 11.39,7.61 11.07,7.95 10.75,8.29 10.34,8.51 9.93,8.73 9.47,8.81 9.01,8.89 8.54,8.81 8.08,8.74 7.67,8.52 7.25,8.30 6.93,7.96 6.61,7.63 6.41,7.20 6.21,6.78 6.16,6.31 6.11,5.85 6.21,5.39 6.31,4.93 6.54,4.53 6.78,4.13 7.14,3.83 7.50,3.52 7.93,3.35 8.36,3.17 8.83,3.15 9.30,3.12 9.75,3.24 10.20,3.37 10.59,3.63 10.98,3.89 11.26,4.26 11.54,4.63 11.70,5.07 11.85,5.52 11.85,5.99 11.85,6.45 11.70,6.90 11.55,7.34 11.27,7.71 10.99,8.09 10.60,8.35 10.22,8.61 9.77,8.74 9.32,8.87 8.85,8.84 8.38,8.82 7.95,8.65 7.51,8.48 7.51,8.48 7.51,8.48 5.46,6.56 3.42,4.64 2.14,3.88 0.87,3.12 0.02,2.80 -0.82,2.47 -1.11,2.34 -1.39,2.20 -1.64,2.01 -1.88,1.81 -2.07,1.55 -2.26,1.30 -2.38,1.01 -2.51,0.72 -2.56,0.41 -2.61,0.10 -2.58,-0.20 -2.56,-0.52 -2.46,-0.82 -2.36,-1.11 -2.19,-1.38 -2.02,-1.65 -1.79,-1.87 -1.57,-2.08 -1.29,-2.24 -1.02,-2.40 -0.72,-2.49 -0.42,-2.57 -0.10,-2.59 0.20,-2.60 0.51,-2.54 0.82,-2.47 0.82,-2.47 L 0.82,-2.47 Z"></path></g><g transform="translate(95.32417766675354 38) rotate(0 1.5 6)" stroke="none"><path fill="#000000" d="M 2.33,-1.16 Q 2.33,-1.16 2.91,-0.01 3.50,1.14 3.86,2.47 4.23,3.80 5.02,5.11 5.81,6.42 6.33,9.11 6.84,11.81 6.80,12.27 6.75,12.73 6.56,13.15 6.37,13.57 6.06,13.91 5.75,14.24 5.34,14.47 4.94,14.69 4.48,14.77 4.03,14.85 3.57,14.78 3.12,14.71 2.71,14.50 2.30,14.28 1.97,13.95 1.65,13.62 1.45,13.21 1.26,12.79 1.20,12.33 1.15,11.87 1.24,11.42 1.33,10.97 1.57,10.57 1.80,10.17 2.15,9.87 2.50,9.57 2.92,9.39 3.35,9.22 3.81,9.19 4.27,9.16 4.72,9.28 5.16,9.39 5.55,9.65 5.93,9.90 6.22,10.27 6.50,10.63 6.65,11.07 6.80,11.50 6.81,11.96 6.81,12.42 6.67,12.86 6.53,13.30 6.25,13.67 5.98,14.04 5.60,14.31 5.22,14.57 4.78,14.70 4.34,14.83 3.87,14.81 3.41,14.79 2.98,14.62 2.55,14.45 2.20,14.16 1.84,13.87 1.60,13.47 1.36,13.08 1.25,12.63 1.15,12.18 1.15,12.18 1.15,12.18 0.57,9.68 -0.00,7.19 -0.60,5.32 -1.20,3.45 -1.76,2.31 -2.33,1.16 -2.43,0.87 -2.54,0.57 -2.57,0.26 -2.60,-0.05 -2.56,-0.36 -2.51,-0.67 -2.40,-0.96 -2.28,-1.25 -2.10,-1.51 -1.91,-1.76 -1.67,-1.97 -1.43,-2.17 -1.15,-2.31 -0.87,-2.45 -0.56,-2.52 -0.26,-2.59 0.05,-2.58 0.36,-2.58 0.66,-2.50 0.97,-2.42 1.24,-2.26 1.52,-2.11 1.75,-1.90 1.98,-1.69 2.15,-1.42 2.33,-1.16 2.33,-1.16 L 2.33,-1.16 Z"></path></g><g transform="translate(108.32417766675354 34) rotate(0 2 4)" stroke="none"><path fill="#000000" d="M 2.46,-0.49 Q 2.46,-0.49 2.72,0.91 2.99,2.31 3.57,3.24 4.14,4.16 5.28,5.42 6.41,6.68 6.56,7.10 6.70,7.52 6.71,7.97 6.71,8.41 6.57,8.84 6.44,9.26 6.17,9.62 5.90,9.97 5.54,10.23 5.17,10.48 4.75,10.60 4.32,10.72 3.87,10.70 3.43,10.68 3.01,10.52 2.60,10.36 2.26,10.08 1.92,9.79 1.68,9.41 1.45,9.04 1.35,8.60 1.25,8.17 1.30,7.73 1.34,7.28 1.52,6.88 1.71,6.47 2.01,6.15 2.31,5.82 2.70,5.61 3.09,5.40 3.53,5.32 3.97,5.25 4.41,5.31 4.85,5.38 5.24,5.59 5.64,5.79 5.95,6.11 6.26,6.43 6.45,6.83 6.64,7.24 6.69,7.68 6.74,8.12 6.65,8.55 6.56,8.99 6.33,9.37 6.11,9.75 5.77,10.05 5.43,10.34 5.02,10.50 4.61,10.67 4.17,10.70 3.72,10.73 3.29,10.61 2.86,10.50 2.49,10.25 2.12,10.01 1.85,9.66 1.58,9.30 1.58,9.30 1.58,9.31 0.40,7.41 -0.77,5.51 -1.30,4.47 -1.84,3.43 -2.15,1.96 -2.46,0.49 -2.48,0.19 -2.50,-0.11 -2.45,-0.40 -2.40,-0.70 -2.28,-0.98 -2.16,-1.26 -1.98,-1.50 -1.80,-1.74 -1.56,-1.93 -1.33,-2.12 -1.05,-2.25 -0.78,-2.38 -0.48,-2.44 -0.19,-2.50 0.11,-2.49 0.41,-2.47 0.70,-2.39 0.99,-2.30 1.25,-2.15 1.51,-2.00 1.73,-1.79 1.95,-1.58 2.11,-1.32 2.27,-1.06 2.36,-0.77 2.46,-0.49 2.46,-0.49 L 2.46,-0.49 Z"></path></g><g transform="translate(118.32417766675354 31) rotate(0 0.5 4)" stroke="none"><path fill="#000000" d="M 2.48,0.62 Q 2.48,0.62 2.22,1.71 1.95,2.81 2.74,4.21 3.52,5.62 3.86,5.93 4.20,6.23 4.42,6.63 4.65,7.03 4.73,7.48 4.82,7.93 4.75,8.38 4.69,8.83 4.49,9.24 4.28,9.65 3.96,9.97 3.64,10.29 3.23,10.49 2.82,10.69 2.36,10.75 1.91,10.81 1.46,10.73 1.02,10.64 0.62,10.42 0.22,10.19 -0.07,9.85 -0.38,9.51 -0.55,9.09 -0.73,8.67 -0.77,8.21 -0.81,7.76 -0.69,7.32 -0.58,6.87 -0.34,6.49 -0.09,6.11 0.26,5.82 0.61,5.54 1.04,5.38 1.47,5.22 1.93,5.21 2.38,5.20 2.82,5.34 3.25,5.47 3.62,5.74 3.99,6.01 4.26,6.38 4.53,6.75 4.66,7.18 4.79,7.62 4.78,8.08 4.76,8.53 4.61,8.96 4.45,9.39 4.16,9.74 3.87,10.10 3.49,10.34 3.10,10.59 2.66,10.70 2.22,10.81 1.76,10.77 1.31,10.73 0.89,10.55 0.47,10.37 0.47,10.37 0.47,10.37 -1.20,7.39 -2.87,4.41 -2.99,3.09 -3.10,1.78 -2.79,0.58 -2.48,-0.62 -2.37,-0.91 -2.26,-1.20 -2.09,-1.45 -1.91,-1.70 -1.68,-1.91 -1.45,-2.11 -1.17,-2.25 -0.90,-2.40 -0.60,-2.47 -0.30,-2.54 0.00,-2.54 0.31,-2.54 0.61,-2.47 0.91,-2.39 1.19,-2.25 1.46,-2.10 1.69,-1.90 1.92,-1.69 2.10,-1.43 2.27,-1.18 2.38,-0.89 2.49,-0.60 2.52,-0.29 2.56,0.00 2.52,0.31 2.48,0.62 2.48,0.62 L 2.48,0.62 Z"></path></g><g transform="translate(127.32417766675354 26) rotate(0 2 6.5)" stroke="none"><path fill="#000000" d="M 2.54,-0.63 Q 2.54,-0.63 2.84,0.50 3.14,1.63 3.78,2.96 4.42,4.29 5.01,6.11 5.61,7.94 6.27,10.22 6.93,12.50 6.93,12.98 6.94,13.47 6.78,13.92 6.63,14.38 6.34,14.77 6.05,15.15 5.65,15.42 5.25,15.69 4.79,15.82 4.33,15.95 3.85,15.93 3.36,15.91 2.92,15.73 2.47,15.55 2.10,15.24 1.73,14.93 1.48,14.52 1.23,14.11 1.13,13.64 1.02,13.17 1.07,12.69 1.12,12.21 1.32,11.77 1.52,11.33 1.85,10.98 2.18,10.63 2.61,10.40 3.03,10.18 3.51,10.10 3.99,10.02 4.46,10.09 4.94,10.17 5.36,10.39 5.79,10.62 6.12,10.97 6.45,11.32 6.66,11.75 6.86,12.19 6.92,12.67 6.97,13.15 6.87,13.62 6.77,14.09 6.52,14.50 6.27,14.92 5.91,15.23 5.54,15.54 5.09,15.72 4.64,15.90 4.16,15.93 3.68,15.96 3.22,15.83 2.75,15.70 2.35,15.43 1.95,15.16 1.66,14.78 1.37,14.40 1.21,13.94 1.06,13.49 1.06,13.49 1.06,13.49 0.94,12.29 0.82,11.09 0.42,9.37 0.02,7.64 -0.49,6.38 -1.02,5.11 -1.50,4.03 -1.99,2.96 -2.26,1.79 -2.54,0.63 -2.58,0.32 -2.61,0.00 -2.58,-0.30 -2.54,-0.61 -2.43,-0.91 -2.32,-1.20 -2.14,-1.47 -1.96,-1.73 -1.73,-1.94 -1.49,-2.15 -1.21,-2.29 -0.93,-2.44 -0.63,-2.52 -0.32,-2.59 -0.00,-2.60 0.30,-2.60 0.61,-2.52 0.92,-2.45 1.20,-2.30 1.48,-2.16 1.71,-1.95 1.95,-1.74 2.13,-1.48 2.31,-1.22 2.42,-0.92 2.54,-0.63 2.54,-0.63 L 2.54,-0.63 Z"></path></g><g transform="translate(139.32417766675354 18) rotate(0 0.5 6)" stroke="none"><path fill="#000000" d="M 2.34,0 Q 2.34,0 2.23,2.00 2.13,4.01 2.42,5.23 2.72,6.45 3.01,9.15 3.31,11.84 3.27,12.22 3.23,12.59 3.08,12.93 2.93,13.27 2.67,13.55 2.42,13.82 2.09,14.00 1.76,14.18 1.39,14.25 1.02,14.31 0.65,14.25 0.28,14.20 -0.04,14.03 -0.38,13.85 -0.64,13.59 -0.90,13.32 -1.06,12.98 -1.22,12.64 -1.26,12.27 -1.31,11.90 -1.23,11.53 -1.16,11.16 -0.97,10.84 -0.78,10.52 -0.49,10.27 -0.21,10.02 0.13,9.88 0.47,9.74 0.85,9.71 1.22,9.69 1.58,9.79 1.94,9.88 2.26,10.09 2.57,10.30 2.80,10.59 3.03,10.89 3.15,11.24 3.28,11.59 3.28,11.97 3.28,12.34 3.17,12.70 3.05,13.06 2.83,13.36 2.61,13.66 2.30,13.87 1.99,14.09 1.63,14.19 1.27,14.29 0.90,14.28 0.52,14.26 0.17,14.13 -0.17,13.99 -0.46,13.75 -0.74,13.51 -0.94,13.20 -1.14,12.88 -1.22,12.51 -1.31,12.15 -1.31,12.15 -1.31,12.15 -1.44,9.73 -1.57,7.31 -1.85,5.67 -2.13,4.03 -2.23,2.01 -2.34,0 -2.30,-0.28 -2.27,-0.56 -2.17,-0.82 -2.07,-1.08 -1.91,-1.31 -1.75,-1.55 -1.54,-1.73 -1.32,-1.92 -1.07,-2.05 -0.82,-2.18 -0.55,-2.25 -0.28,-2.32 0.00,-2.32 0.28,-2.32 0.55,-2.25 0.83,-2.18 1.07,-2.05 1.32,-1.92 1.54,-1.73 1.75,-1.55 1.91,-1.31 2.07,-1.08 2.17,-0.82 2.27,-0.55 2.30,-0.27 2.34,0.00 2.34,0.00 L 2.34,0 Z"></path></g><g transform="translate(151.32417766675354 17) rotate(0 3 3)" stroke="none"><path fill="#000000" d="M 1.88,-1.41 Q 1.88,-1.41 2.76,-0.26 3.63,0.87 4.31,1.72 4.99,2.57 5.78,2.97 6.58,3.37 6.86,3.56 7.15,3.74 7.37,3.99 7.60,4.24 7.77,4.53 7.93,4.83 8.02,5.15 8.11,5.48 8.12,5.81 8.13,6.15 8.05,6.48 7.98,6.81 7.83,7.11 7.68,7.42 7.46,7.67 7.25,7.93 6.97,8.13 6.70,8.33 6.39,8.46 6.07,8.58 5.74,8.63 5.41,8.68 5.07,8.65 4.73,8.62 4.42,8.50 4.10,8.39 1.14,4.98 -1.80,1.56 -2.01,1.23 -2.21,0.90 -2.30,0.52 -2.38,0.15 -2.34,-0.23 -2.31,-0.61 -2.15,-0.97 -1.99,-1.32 -1.72,-1.60 -1.46,-1.89 -1.12,-2.07 -0.78,-2.25 -0.40,-2.32 -0.02,-2.39 0.36,-2.33 0.74,-2.27 1.08,-2.09 1.43,-1.91 1.69,-1.63 1.96,-1.35 2.13,-1.00 2.29,-0.65 2.34,-0.27 2.38,0.10 2.30,0.48 2.22,0.86 2.03,1.19 1.83,1.53 1.54,1.78 1.25,2.03 0.89,2.18 0.53,2.33 0.14,2.35 -0.23,2.38 -0.61,2.27 -0.98,2.17 -1.30,1.96 -1.62,1.75 -1.86,1.44 -2.10,1.13 -2.23,0.77 -2.35,0.40 -2.36,0.02 -2.36,-0.36 -2.24,-0.73 -2.12,-1.10 -1.89,-1.41 -1.65,-1.72 -1.34,-1.94 -1.02,-2.16 -0.65,-2.26 -0.27,-2.37 0.10,-2.35 0.49,-2.34 0.85,-2.20 1.21,-2.05 1.51,-1.81 1.80,-1.56 1.80,-1.56 1.80,-1.56 4.19,0.90 6.58,3.37 6.86,3.56 7.14,3.74 7.37,3.99 7.60,4.23 7.77,4.53 7.93,4.82 8.02,5.15 8.11,5.48 8.12,5.81 8.13,6.15 8.05,6.48 7.98,6.81 7.83,7.11 7.68,7.42 7.46,7.67 7.25,7.93 6.97,8.13 6.70,8.33 6.39,8.46 6.07,8.58 5.74,8.63 5.41,8.68 5.07,8.65 4.73,8.62 4.42,8.50 4.10,8.39 3.68,8.29 3.27,8.19 2.48,7.32 1.69,6.45 0.75,5.08 -0.18,3.72 -1.03,2.56 -1.88,1.41 -2.03,1.16 -2.17,0.92 -2.25,0.64 -2.33,0.37 -2.34,0.09 -2.35,-0.19 -2.29,-0.47 -2.23,-0.74 -2.11,-1.00 -1.99,-1.26 -1.81,-1.48 -1.63,-1.70 -1.40,-1.87 -1.17,-2.04 -0.91,-2.15 -0.65,-2.26 -0.37,-2.31 -0.09,-2.35 0.19,-2.33 0.47,-2.31 0.74,-2.22 1.01,-2.13 1.25,-1.97 1.49,-1.82 1.69,-1.62 1.88,-1.41 1.88,-1.41 L 1.88,-1.41 Z"></path></g><g transform="translate(165.32417766675354 12) rotate(0 0 6.5)" stroke="none"><path fill="#000000" d="M 2.54,0.63 Q 2.54,0.63 2.27,1.78 2.00,2.94 1.91,4.44 1.82,5.94 2.26,7.15 2.70,8.36 3.29,10.38 3.89,12.39 3.91,12.87 3.93,13.35 3.80,13.80 3.66,14.26 3.39,14.66 3.12,15.05 2.74,15.34 2.35,15.62 1.90,15.77 1.44,15.92 0.96,15.91 0.49,15.91 0.03,15.75 -0.41,15.59 -0.78,15.30 -1.16,15.00 -1.43,14.61 -1.69,14.21 -1.81,13.75 -1.94,13.28 -1.91,12.81 -1.87,12.33 -1.69,11.89 -1.51,11.44 -1.20,11.08 -0.88,10.72 -0.47,10.48 -0.06,10.24 0.40,10.14 0.87,10.04 1.34,10.10 1.82,10.16 2.25,10.36 2.68,10.57 3.02,10.90 3.37,11.23 3.59,11.66 3.81,12.08 3.88,12.55 3.95,13.03 3.87,13.50 3.79,13.97 3.56,14.39 3.33,14.81 2.98,15.13 2.63,15.46 2.19,15.66 1.75,15.85 1.28,15.90 0.80,15.94 0.34,15.84 -0.12,15.73 -0.53,15.48 -0.93,15.23 -1.24,14.86 -1.54,14.49 -1.72,14.04 -1.89,13.60 -1.89,13.60 -1.89,13.60 -2.44,10.91 -3.00,8.22 -3.25,6.17 -3.50,4.11 -3.32,2.88 -3.15,1.65 -2.84,0.51 -2.54,-0.63 -2.43,-0.93 -2.31,-1.22 -2.13,-1.48 -1.95,-1.74 -1.71,-1.95 -1.48,-2.16 -1.20,-2.30 -0.92,-2.45 -0.61,-2.52 -0.30,-2.60 0.00,-2.60 0.32,-2.60 0.63,-2.52 0.93,-2.44 1.21,-2.30 1.49,-2.15 1.73,-1.94 1.96,-1.73 2.14,-1.47 2.32,-1.21 2.43,-0.91 2.54,-0.61 2.58,-0.30 2.62,0.00 2.58,0.32 2.54,0.63 2.54,0.63 L 2.54,0.63 Z"></path></g><g transform="translate(179.32417766675354 10) rotate(0 0.5 6)" stroke="none"><path fill="#000000" d="M 2.60,0 Q 2.60,0 2.59,1.43 2.57,2.87 2.87,4.34 3.17,5.80 3.47,7.34 3.77,8.88 3.16,11.13 2.56,13.38 2.27,13.75 1.98,14.13 1.59,14.39 1.20,14.65 0.74,14.77 0.29,14.90 -0.17,14.87 -0.64,14.84 -1.08,14.66 -1.52,14.48 -1.87,14.17 -2.23,13.87 -2.47,13.46 -2.71,13.05 -2.81,12.59 -2.91,12.13 -2.85,11.66 -2.80,11.19 -2.60,10.77 -2.40,10.34 -2.07,10.00 -1.74,9.66 -1.32,9.44 -0.90,9.22 -0.44,9.15 0.02,9.08 0.48,9.16 0.95,9.24 1.36,9.46 1.78,9.69 2.10,10.03 2.42,10.38 2.62,10.81 2.81,11.24 2.86,11.71 2.91,12.18 2.80,12.64 2.70,13.10 2.45,13.50 2.20,13.90 1.84,14.20 1.48,14.51 1.04,14.68 0.60,14.85 0.13,14.87 -0.33,14.89 -0.79,14.76 -1.24,14.63 -1.63,14.36 -2.02,14.10 -2.30,13.72 -2.58,13.34 -2.73,12.89 -2.88,12.44 -2.87,11.97 -2.87,11.50 -2.71,11.05 -2.56,10.61 -2.56,10.61 -2.56,10.61 -2.29,8.98 -2.02,7.36 -2.30,5.12 -2.57,2.87 -2.59,1.43 -2.60,0 -2.56,-0.31 -2.52,-0.62 -2.41,-0.91 -2.30,-1.21 -2.12,-1.46 -1.94,-1.72 -1.71,-1.93 -1.47,-2.14 -1.20,-2.28 -0.92,-2.43 -0.61,-2.51 -0.31,-2.58 0.00,-2.58 0.31,-2.58 0.61,-2.50 0.92,-2.43 1.20,-2.28 1.47,-2.14 1.71,-1.93 1.94,-1.72 2.12,-1.46 2.30,-1.21 2.41,-0.91 2.52,-0.62 2.56,-0.31 2.60,0.00 2.60,0.00 L 2.60,0 Z"></path></g><g transform="translate(197.32417766675354 10) rotate(0 3.5 3.5)" stroke="none"><path fill="#000000" d="M 2.27,-0.90 Q 2.27,-0.90 2.83,0.53 3.39,1.97 4.20,3.10 5.00,4.23 6.34,4.32 7.68,4.40 8.07,4.58 8.47,4.76 8.79,5.05 9.11,5.34 9.32,5.72 9.52,6.10 9.60,6.53 9.68,6.96 9.61,7.39 9.55,7.82 9.35,8.20 9.15,8.59 8.84,8.89 8.53,9.19 8.14,9.38 7.75,9.57 7.32,9.62 6.89,9.67 6.46,9.59 6.04,9.50 5.66,9.28 5.29,9.06 5.00,8.73 4.72,8.41 4.55,8.01 4.38,7.61 4.35,7.17 4.33,6.74 4.44,6.32 4.55,5.90 4.79,5.54 5.02,5.18 5.37,4.91 5.71,4.64 6.12,4.50 6.53,4.35 6.96,4.35 7.39,4.34 7.81,4.48 8.22,4.61 8.57,4.87 8.92,5.13 9.17,5.48 9.41,5.84 9.54,6.25 9.66,6.67 9.64,7.10 9.62,7.54 9.47,7.94 9.31,8.35 9.03,8.68 8.76,9.02 8.39,9.24 8.02,9.47 7.60,9.57 7.18,9.67 6.74,9.63 6.31,9.59 6.31,9.59 6.31,9.59 3.89,8.69 1.47,7.78 0.76,6.86 0.05,5.94 -0.51,4.86 -1.09,3.77 -1.68,2.34 -2.27,0.90 -2.34,0.62 -2.42,0.33 -2.42,0.04 -2.43,-0.25 -2.36,-0.53 -2.30,-0.82 -2.17,-1.09 -2.03,-1.35 -1.84,-1.57 -1.65,-1.80 -1.41,-1.97 -1.17,-2.14 -0.90,-2.25 -0.62,-2.36 -0.33,-2.40 -0.04,-2.44 0.24,-2.41 0.54,-2.38 0.82,-2.28 1.09,-2.18 1.34,-2.02 1.58,-1.86 1.78,-1.64 1.98,-1.42 2.13,-1.16 2.27,-0.90 2.27,-0.90 L 2.27,-0.90 Z"></path></g><g transform="translate(215.32417766675354 11) rotate(0 0 6)" stroke="none"><path fill="#000000" d="M 2.46,0 Q 2.46,0 2.35,2.01 2.23,4.02 2.28,5.16 2.33,6.31 2.43,9.15 2.53,12 2.46,12.40 2.40,12.80 2.20,13.17 2.01,13.53 1.71,13.81 1.42,14.09 1.04,14.26 0.67,14.44 0.27,14.48 -0.13,14.53 -0.53,14.44 -0.93,14.35 -1.28,14.14 -1.64,13.93 -1.90,13.61 -2.17,13.30 -2.32,12.92 -2.47,12.54 -2.49,12.13 -2.51,11.72 -2.40,11.33 -2.29,10.93 -2.06,10.59 -1.83,10.25 -1.51,10.00 -1.18,9.76 -0.79,9.63 -0.40,9.49 0.00,9.49 0.41,9.49 0.79,9.63 1.18,9.76 1.51,10.00 1.83,10.25 2.06,10.59 2.29,10.93 2.40,11.33 2.51,11.72 2.49,12.13 2.47,12.54 2.32,12.92 2.17,13.30 1.90,13.61 1.63,13.93 1.28,14.14 0.93,14.35 0.53,14.44 0.13,14.53 -0.27,14.48 -0.67,14.44 -1.05,14.26 -1.42,14.09 -1.72,13.81 -2.01,13.53 -2.20,13.17 -2.40,12.80 -2.46,12.40 -2.53,11.99 -2.53,11.99 -2.53,12 -2.43,9.15 -2.33,6.31 -2.28,5.16 -2.23,4.02 -2.35,2.01 -2.46,0 -2.43,-0.29 -2.39,-0.59 -2.29,-0.86 -2.18,-1.14 -2.01,-1.39 -1.84,-1.63 -1.62,-1.83 -1.40,-2.03 -1.13,-2.16 -0.87,-2.30 -0.58,-2.37 -0.29,-2.44 0.00,-2.44 0.29,-2.44 0.58,-2.37 0.87,-2.30 1.13,-2.16 1.40,-2.03 1.62,-1.83 1.84,-1.63 2.01,-1.39 2.18,-1.14 2.29,-0.86 2.39,-0.59 2.43,-0.29 2.46,0.00 2.46,0.00 L 2.46,0 Z"></path></g><g transform="translate(237.32417766675354 12) rotate(0 -2.5 5.5)" stroke="none"><path fill="#000000" d="M 2.57,0 Q 2.57,0 2.51,1.73 2.45,3.47 2.15,4.83 1.85,6.19 1.37,7.20 0.89,8.21 -1.63,10.96 -4.15,13.72 -4.61,13.78 -5.07,13.85 -5.52,13.76 -5.97,13.67 -6.37,13.45 -6.78,13.22 -7.09,12.88 -7.39,12.54 -7.58,12.11 -7.76,11.69 -7.80,11.23 -7.84,10.77 -7.73,10.32 -7.62,9.87 -7.37,9.48 -7.12,9.10 -6.76,8.81 -6.40,8.52 -5.97,8.36 -5.54,8.20 -5.08,8.18 -4.62,8.17 -4.17,8.30 -3.73,8.44 -3.36,8.71 -2.98,8.98 -2.71,9.35 -2.44,9.72 -2.31,10.16 -2.17,10.60 -2.18,11.07 -2.19,11.53 -2.35,11.96 -2.51,12.39 -2.80,12.75 -3.09,13.11 -3.48,13.36 -3.86,13.61 -4.31,13.72 -4.76,13.84 -5.22,13.80 -5.68,13.76 -6.10,13.58 -6.53,13.40 -6.87,13.09 -7.21,12.79 -7.44,12.38 -7.67,11.98 -7.76,11.53 -7.84,11.08 -7.78,10.62 -7.72,10.16 -7.52,9.75 -7.31,9.34 -6.99,9.01 -6.66,8.68 -6.25,8.48 -5.84,8.27 -5.84,8.27 -5.84,8.27 -5.22,8.50 -4.61,8.73 -4.14,7.19 -3.68,5.65 -3.06,4.53 -2.45,3.42 -2.51,1.71 -2.57,0 -2.53,-0.30 -2.50,-0.61 -2.39,-0.90 -2.28,-1.19 -2.10,-1.45 -1.92,-1.70 -1.69,-1.91 -1.46,-2.12 -1.18,-2.26 -0.91,-2.40 -0.61,-2.48 -0.31,-2.55 0.00,-2.55 0.31,-2.55 0.61,-2.48 0.91,-2.40 1.18,-2.26 1.46,-2.12 1.69,-1.91 1.92,-1.70 2.10,-1.45 2.28,-1.19 2.39,-0.90 2.50,-0.61 2.53,-0.30 2.57,0.00 2.57,0.00 L 2.57,0 Z"></path></g><g transform="translate(249.32417766675354 12) rotate(0 -2.5 7.5)" stroke="none"><path fill="#000000" d="M 2.12,1.59 Q 2.12,1.59 1.24,2.72 0.37,3.86 0.16,4.99 -0.05,6.12 -0.06,7.21 -0.06,8.29 -0.05,9.37 -0.04,10.45 -0.47,11.59 -0.91,12.73 -1.47,14.38 -2.04,16.02 -2.28,16.47 -2.52,16.91 -2.89,17.26 -3.27,17.60 -3.73,17.81 -4.19,18.02 -4.69,18.07 -5.20,18.12 -5.69,18.00 -6.18,17.89 -6.61,17.62 -7.05,17.36 -7.37,16.97 -7.69,16.58 -7.88,16.11 -8.06,15.64 -8.08,15.13 -8.10,14.62 -7.96,14.14 -7.82,13.65 -7.53,13.24 -7.24,12.82 -6.84,12.52 -6.43,12.22 -5.95,12.06 -5.47,11.90 -4.96,11.91 -4.46,11.91 -3.98,12.08 -3.50,12.25 -3.10,12.56 -2.70,12.87 -2.42,13.29 -2.14,13.71 -2.01,14.20 -1.88,14.69 -1.91,15.19 -1.95,15.70 -2.14,16.17 -2.33,16.64 -2.66,17.02 -2.99,17.40 -3.43,17.66 -3.87,17.91 -4.36,18.02 -4.86,18.12 -5.36,18.06 -5.86,18.00 -6.32,17.78 -6.78,17.57 -7.14,17.22 -7.51,16.86 -7.74,16.41 -7.97,15.96 -8.05,15.46 -8.12,14.96 -8.04,14.46 -7.95,13.96 -7.95,13.97 -7.95,13.97 -7.39,12.74 -6.82,11.52 -6.33,9.76 -5.84,8.01 -5.66,6.60 -5.48,5.19 -5.19,3.96 -4.90,2.72 -4.36,1.73 -3.82,0.73 -2.97,-0.42 -2.12,-1.59 -1.89,-1.82 -1.67,-2.05 -1.40,-2.22 -1.13,-2.39 -0.83,-2.49 -0.53,-2.59 -0.21,-2.62 0.10,-2.64 0.41,-2.59 0.73,-2.54 1.02,-2.42 1.32,-2.29 1.57,-2.10 1.83,-1.91 2.03,-1.66 2.23,-1.41 2.37,-1.12 2.51,-0.84 2.57,-0.52 2.64,-0.21 2.62,0.10 2.61,0.42 2.52,0.72 2.43,1.03 2.27,1.31 2.12,1.59 2.12,1.59 L 2.12,1.59 Z"></path></g><g transform="translate(261.32417766675354 20) rotate(0 -6 6.5)" stroke="none"><path fill="#000000" d="M 2.42,0.97 Q 2.42,0.97 1.72,2.52 1.01,4.07 0.07,4.93 -0.86,5.79 -2.39,6.24 -3.93,6.69 -4.86,7.39 -5.79,8.10 -6.27,9.98 -6.75,11.85 -8.82,13.94 -10.89,16.03 -11.40,16.12 -11.92,16.22 -12.43,16.15 -12.95,16.08 -13.42,15.84 -13.89,15.61 -14.25,15.24 -14.62,14.87 -14.85,14.40 -15.08,13.93 -15.15,13.42 -15.22,12.90 -15.12,12.39 -15.02,11.87 -14.76,11.42 -14.50,10.97 -14.11,10.62 -13.72,10.27 -13.24,10.07 -12.76,9.86 -12.24,9.82 -11.72,9.78 -11.22,9.91 -10.71,10.04 -10.27,10.32 -9.83,10.60 -9.51,11.01 -9.18,11.42 -9.00,11.91 -8.82,12.40 -8.81,12.92 -8.80,13.44 -8.95,13.94 -9.11,14.44 -9.41,14.86 -9.72,15.28 -10.15,15.59 -10.57,15.89 -11.07,16.04 -11.57,16.19 -12.09,16.18 -12.61,16.16 -13.10,15.98 -13.59,15.80 -14.00,15.47 -14.40,15.14 -14.68,14.70 -14.96,14.26 -15.09,13.75 -15.21,13.25 -15.17,12.73 -15.12,12.21 -14.92,11.73 -14.71,11.25 -14.36,10.86 -14.01,10.47 -13.55,10.22 -13.10,9.96 -13.10,9.96 -13.10,9.96 -12.93,10.08 -12.77,10.20 -12.09,8.93 -11.41,7.65 -10.99,6.45 -10.57,5.24 -9.24,3.73 -7.92,2.22 -6.73,1.69 -5.55,1.15 -4.43,1.41 -3.31,1.67 -2.87,0.35 -2.42,-0.97 -2.27,-1.24 -2.12,-1.52 -1.91,-1.75 -1.69,-1.98 -1.43,-2.16 -1.17,-2.33 -0.87,-2.44 -0.58,-2.55 -0.26,-2.58 0.04,-2.61 0.35,-2.57 0.67,-2.52 0.96,-2.41 1.25,-2.29 1.51,-2.11 1.77,-1.92 1.97,-1.68 2.18,-1.44 2.32,-1.16 2.46,-0.88 2.53,-0.57 2.60,-0.26 2.59,0.04 2.59,0.36 2.51,0.66 2.42,0.97 2.42,0.97 L 2.42,0.97 Z"></path></g><g transform="translate(272.32417766675354 29) rotate(0 -1 4)" stroke="none"><path fill="#000000" d="M 2.41,0.48 Q 2.41,0.48 2.12,1.92 1.82,3.37 1.37,4.55 0.91,5.73 0.19,7.29 -0.51,8.85 -0.71,9.22 -0.91,9.59 -1.22,9.89 -1.53,10.18 -1.92,10.35 -2.31,10.53 -2.73,10.57 -3.15,10.62 -3.57,10.52 -3.98,10.43 -4.34,10.21 -4.71,9.99 -4.98,9.66 -5.25,9.34 -5.41,8.94 -5.56,8.55 -5.58,8.12 -5.60,7.70 -5.49,7.29 -5.37,6.88 -5.13,6.53 -4.89,6.18 -4.55,5.92 -4.21,5.67 -3.81,5.54 -3.41,5.40 -2.98,5.40 -2.56,5.41 -2.15,5.55 -1.75,5.68 -1.42,5.94 -1.08,6.20 -0.84,6.55 -0.61,6.91 -0.50,7.32 -0.38,7.73 -0.41,8.15 -0.43,8.57 -0.59,8.97 -0.75,9.36 -1.03,9.68 -1.31,10.01 -1.67,10.22 -2.04,10.44 -2.45,10.53 -2.87,10.62 -3.29,10.57 -3.71,10.52 -4.10,10.34 -4.48,10.16 -4.79,9.87 -5.09,9.57 -5.29,9.20 -5.49,8.82 -5.55,8.40 -5.62,7.98 -5.55,7.56 -5.48,7.14 -5.48,7.14 -5.48,7.14 -4.22,4.76 -2.97,2.37 -2.69,0.94 -2.41,-0.48 -2.32,-0.76 -2.22,-1.04 -2.07,-1.29 -1.91,-1.54 -1.69,-1.75 -1.48,-1.96 -1.23,-2.11 -0.97,-2.26 -0.68,-2.34 -0.40,-2.42 -0.10,-2.44 0.18,-2.45 0.47,-2.39 0.77,-2.33 1.03,-2.21 1.30,-2.08 1.53,-1.89 1.76,-1.71 1.94,-1.47 2.12,-1.23 2.24,-0.96 2.36,-0.69 2.41,-0.40 2.45,-0.10 2.43,0.18 2.41,0.48 2.41,0.48 L 2.41,0.48 Z"></path></g><g transform="translate(287.32417766675354 36) rotate(0 -4.5 4)" stroke="none"><path fill="#000000" d="M 2.04,1.53 Q 2.04,1.53 1.16,2.68 0.29,3.83 -0.83,4.83 -1.96,5.84 -3.13,7.02 -4.30,8.20 -5.81,9.21 -7.31,10.23 -7.71,10.44 -8.11,10.65 -8.56,10.73 -9.01,10.80 -9.46,10.72 -9.90,10.65 -10.30,10.43 -10.70,10.22 -11.01,9.89 -11.32,9.56 -11.51,9.14 -11.70,8.73 -11.75,8.28 -11.79,7.83 -11.69,7.39 -11.59,6.94 -11.36,6.56 -11.12,6.17 -10.77,5.88 -10.43,5.59 -10.00,5.42 -9.58,5.26 -9.13,5.23 -8.68,5.21 -8.24,5.33 -7.81,5.46 -7.43,5.71 -7.06,5.97 -6.79,6.33 -6.51,6.70 -6.37,7.13 -6.23,7.56 -6.23,8.01 -6.23,8.46 -6.38,8.89 -6.53,9.32 -6.80,9.68 -7.08,10.04 -7.46,10.29 -7.83,10.54 -8.27,10.66 -8.71,10.78 -9.16,10.75 -9.61,10.73 -10.03,10.56 -10.45,10.39 -10.80,10.09 -11.14,9.80 -11.37,9.41 -11.60,9.02 -11.70,8.57 -11.79,8.13 -11.74,7.68 -11.69,7.23 -11.50,6.82 -11.31,6.41 -10.99,6.08 -10.68,5.76 -10.68,5.76 -10.68,5.76 -8.72,4.43 -6.75,3.11 -5.25,1.93 -3.74,0.76 -2.89,-0.38 -2.04,-1.53 -1.82,-1.75 -1.61,-1.97 -1.35,-2.14 -1.09,-2.30 -0.80,-2.40 -0.51,-2.50 -0.20,-2.52 0.10,-2.55 0.40,-2.50 0.70,-2.45 0.99,-2.33 1.27,-2.21 1.52,-2.02 1.76,-1.84 1.96,-1.60 2.15,-1.36 2.28,-1.08 2.42,-0.81 2.48,-0.50 2.54,-0.20 2.53,0.09 2.51,0.40 2.43,0.70 2.34,0.99 2.19,1.26 2.04,1.53 2.04,1.53 L 2.04,1.53 Z"></path></g><g transform="translate(305.32417766675354 42) rotate(0 -5.5 4)" stroke="none"><path fill="#000000" d="M 1.58,2.10 Q 1.58,2.10 0.41,2.96 -0.74,3.81 -1.73,4.35 -2.71,4.88 -3.99,6.14 -5.28,7.40 -7.54,9.10 -9.81,10.79 -10.28,10.91 -10.76,11.03 -11.25,10.98 -11.74,10.94 -12.19,10.75 -12.64,10.55 -13.01,10.22 -13.37,9.89 -13.61,9.46 -13.85,9.03 -13.94,8.55 -14.03,8.06 -13.97,7.58 -13.90,7.09 -13.68,6.65 -13.46,6.21 -13.11,5.86 -12.76,5.52 -12.32,5.30 -11.87,5.08 -11.39,5.02 -10.90,4.96 -10.42,5.05 -9.93,5.15 -9.51,5.39 -9.08,5.63 -8.75,6.00 -8.43,6.37 -8.23,6.82 -8.04,7.28 -8.00,7.77 -7.97,8.26 -8.09,8.73 -8.21,9.21 -8.48,9.62 -8.74,10.04 -9.13,10.34 -9.51,10.65 -9.97,10.82 -10.44,10.98 -10.93,10.99 -11.42,11.01 -11.89,10.86 -12.36,10.71 -12.76,10.42 -13.16,10.13 -13.44,9.73 -13.73,9.33 -13.87,8.86 -14.01,8.39 -13.99,7.90 -13.98,7.41 -13.81,6.95 -13.63,6.49 -13.32,6.10 -13.01,5.72 -12.60,5.46 -12.18,5.20 -12.18,5.20 -12.18,5.20 -10.97,4.21 -9.76,3.22 -8.82,2.50 -7.88,1.79 -6.99,1.05 -6.11,0.32 -4.98,-0.02 -3.85,-0.36 -2.71,-1.23 -1.58,-2.10 -1.30,-2.26 -1.03,-2.42 -0.72,-2.51 -0.42,-2.60 -0.10,-2.61 0.21,-2.62 0.52,-2.56 0.83,-2.50 1.12,-2.36 1.41,-2.22 1.65,-2.02 1.90,-1.82 2.09,-1.57 2.28,-1.31 2.40,-1.02 2.53,-0.73 2.58,-0.41 2.63,-0.10 2.60,0.21 2.58,0.53 2.48,0.83 2.38,1.13 2.21,1.40 2.04,1.66 1.81,1.88 1.58,2.10 1.58,2.10 L 1.58,2.10 Z"></path></g><g transform="translate(318.32417766675354 48) rotate(0 -2.5 4)" stroke="none"><path fill="#000000" d="M 1.81,1.81 Q 1.81,1.81 0.96,2.68 0.11,3.56 -0.43,4.57 -0.98,5.58 -2.13,7.89 -3.28,10.20 -3.68,10.42 -4.08,10.63 -4.52,10.71 -4.97,10.79 -5.41,10.72 -5.86,10.65 -6.26,10.44 -6.66,10.23 -6.98,9.91 -7.29,9.58 -7.48,9.18 -7.68,8.77 -7.73,8.32 -7.79,7.87 -7.69,7.43 -7.60,6.99 -7.37,6.60 -7.14,6.21 -6.80,5.91 -6.46,5.62 -6.04,5.44 -5.62,5.27 -5.17,5.24 -4.72,5.22 -4.28,5.33 -3.85,5.45 -3.47,5.70 -3.09,5.95 -2.82,6.31 -2.54,6.66 -2.39,7.09 -2.24,7.52 -2.24,7.97 -2.23,8.42 -2.37,8.85 -2.51,9.28 -2.78,9.64 -3.05,10.00 -3.43,10.26 -3.80,10.52 -4.23,10.64 -4.67,10.77 -5.12,10.75 -5.57,10.73 -5.99,10.57 -6.41,10.40 -6.76,10.11 -7.11,9.82 -7.34,9.44 -7.58,9.05 -7.68,8.61 -7.78,8.17 -7.74,7.72 -7.69,7.27 -7.51,6.86 -7.32,6.45 -7.01,6.12 -6.71,5.79 -6.71,5.79 -6.71,5.79 -6.45,4.84 -6.19,3.89 -4.87,1.89 -3.56,-0.11 -2.68,-0.96 -1.81,-1.81 -1.56,-2.00 -1.32,-2.19 -1.04,-2.31 -0.76,-2.44 -0.45,-2.50 -0.15,-2.55 0.15,-2.53 0.46,-2.51 0.75,-2.42 1.05,-2.33 1.31,-2.17 1.57,-2.01 1.79,-1.79 2.01,-1.57 2.17,-1.31 2.33,-1.05 2.42,-0.75 2.51,-0.46 2.53,-0.15 2.55,0.15 2.50,0.45 2.44,0.76 2.31,1.04 2.19,1.32 2.00,1.56 1.81,1.81 1.81,1.81 L 1.81,1.81 Z"></path></g><g transform="translate(329.32417766675354 56) rotate(0 -3.5 4)" stroke="none"><path fill="#000000" d="M 1.79,1.79 Q 1.79,1.79 0.62,2.91 -0.54,4.03 -0.96,5.11 -1.37,6.19 -2.13,7.01 -2.88,7.84 -3.97,8.93 -5.06,10.01 -5.44,10.27 -5.81,10.52 -6.24,10.65 -6.68,10.77 -7.13,10.75 -7.58,10.73 -8.00,10.56 -8.42,10.40 -8.77,10.11 -9.11,9.81 -9.35,9.43 -9.58,9.04 -9.68,8.60 -9.78,8.16 -9.74,7.71 -9.69,7.26 -9.50,6.85 -9.32,6.44 -9.01,6.11 -8.70,5.78 -8.30,5.57 -7.90,5.35 -7.45,5.28 -7.01,5.20 -6.56,5.27 -6.12,5.34 -5.72,5.55 -5.32,5.76 -5.00,6.09 -4.69,6.42 -4.50,6.82 -4.31,7.23 -4.26,7.68 -4.20,8.13 -4.30,8.57 -4.39,9.02 -4.63,9.40 -4.86,9.79 -5.20,10.09 -5.54,10.38 -5.96,10.55 -6.38,10.72 -6.83,10.75 -7.28,10.77 -7.72,10.65 -8.16,10.54 -8.53,10.28 -8.91,10.03 -9.18,9.67 -9.46,9.32 -9.60,8.89 -9.75,8.46 -9.75,8.01 -9.75,7.56 -9.61,7.13 -9.47,6.70 -9.20,6.34 -8.93,5.98 -8.93,5.98 -8.93,5.98 -7.19,4.24 -5.44,2.50 -4.74,1.53 -4.05,0.56 -2.92,-0.61 -1.79,-1.79 -1.55,-1.98 -1.31,-2.17 -1.03,-2.29 -0.75,-2.42 -0.45,-2.47 -0.15,-2.53 0.15,-2.51 0.45,-2.49 0.75,-2.40 1.04,-2.31 1.30,-2.15 1.56,-1.99 1.78,-1.78 1.99,-1.56 2.15,-1.30 2.31,-1.04 2.40,-0.74 2.49,-0.45 2.51,-0.15 2.53,0.15 2.47,0.45 2.42,0.75 2.29,1.03 2.17,1.31 1.98,1.55 1.79,1.79 1.79,1.79 L 1.79,1.79 Z"></path></g><g transform="translate(341.32417766675354 65) rotate(0 -2.5 2.5)" stroke="none"><path fill="#000000" d="M 1.78,1.33 Q 1.78,1.33 0.93,2.51 0.07,3.68 -0.75,4.44 -1.59,5.19 -2.12,5.73 -2.66,6.27 -2.92,6.42 -3.18,6.57 -3.47,6.66 -3.76,6.74 -4.07,6.75 -4.37,6.76 -4.66,6.70 -4.96,6.64 -5.23,6.51 -5.51,6.38 -5.74,6.19 -5.97,6.00 -6.15,5.75 -6.34,5.51 -6.45,5.23 -6.57,4.95 -6.62,4.66 -6.67,4.36 -6.64,4.06 -6.62,3.75 -6.52,3.47 -6.42,3.18 -6.26,2.93 -6.10,2.67 -5.88,2.46 -5.66,2.25 -3.59,0.38 -1.51,-1.47 -1.23,-1.68 -0.96,-1.88 -0.63,-1.98 -0.31,-2.09 0.03,-2.08 0.37,-2.08 0.69,-1.96 1.01,-1.85 1.28,-1.64 1.55,-1.43 1.74,-1.14 1.93,-0.86 2.02,-0.52 2.10,-0.19 2.08,0.14 2.06,0.48 1.92,0.80 1.79,1.11 1.57,1.37 1.34,1.63 1.05,1.80 0.75,1.97 0.41,2.04 0.08,2.11 -0.25,2.07 -0.59,2.03 -0.90,1.88 -1.21,1.73 -1.45,1.49 -1.70,1.25 -1.86,0.95 -2.01,0.64 -2.06,0.30 -2.11,-0.03 -2.05,-0.36 -1.99,-0.70 -1.83,-1.00 -1.66,-1.30 -1.41,-1.53 -1.16,-1.76 -0.84,-1.90 -0.53,-2.04 -0.19,-2.08 0.14,-2.11 0.47,-2.03 0.81,-1.95 1.10,-1.77 1.39,-1.59 1.61,-1.32 1.83,-1.06 1.95,-0.74 2.07,-0.42 2.08,-0.08 2.10,0.26 2.00,0.58 1.90,0.91 1.71,1.19 1.51,1.47 1.51,1.47 1.51,1.47 -0.57,3.87 -2.66,6.27 -2.92,6.42 -3.18,6.57 -3.47,6.66 -3.76,6.74 -4.07,6.75 -4.37,6.76 -4.66,6.70 -4.96,6.64 -5.23,6.51 -5.51,6.38 -5.74,6.19 -5.97,6.00 -6.15,5.75 -6.34,5.51 -6.45,5.23 -6.57,4.95 -6.62,4.66 -6.67,4.36 -6.64,4.06 -6.62,3.75 -6.52,3.47 -6.42,3.18 -6.26,2.93 -6.10,2.67 -5.88,2.46 -5.66,2.25 -4.59,1.58 -3.52,0.91 -2.65,-0.21 -1.78,-1.33 -1.59,-1.53 -1.41,-1.72 -1.18,-1.87 -0.95,-2.01 -0.70,-2.10 -0.44,-2.18 -0.18,-2.20 0.08,-2.23 0.35,-2.18 0.61,-2.14 0.86,-2.03 1.11,-1.93 1.32,-1.77 1.54,-1.61 1.71,-1.40 1.88,-1.19 2.00,-0.95 2.11,-0.70 2.17,-0.44 2.22,-0.18 2.21,0.08 2.20,0.35 2.12,0.61 2.05,0.87 1.92,1.10 1.78,1.33 1.78,1.33 L 1.78,1.33 Z"></path></g><g transform="translate(358.32417766675354 69) rotate(0 -3 6.5)" stroke="none"><path fill="#000000" d="M 2.57,0.51 Q 2.57,0.51 2.26,1.94 1.95,3.38 1.49,4.78 1.02,6.18 0.04,7.40 -0.94,8.63 -1.87,9.77 -2.81,10.92 -2.96,12.18 -3.11,13.45 -3.26,13.90 -3.40,14.35 -3.69,14.73 -3.97,15.11 -4.36,15.37 -4.75,15.64 -5.21,15.77 -5.66,15.90 -6.13,15.88 -6.61,15.85 -7.05,15.68 -7.49,15.51 -7.85,15.20 -8.21,14.90 -8.46,14.50 -8.70,14.09 -8.81,13.63 -8.91,13.17 -8.86,12.70 -8.82,12.23 -8.62,11.80 -8.42,11.37 -8.10,11.02 -7.78,10.68 -7.36,10.45 -6.94,10.23 -6.48,10.15 -6.01,10.07 -5.54,10.15 -5.08,10.22 -4.66,10.44 -4.24,10.66 -3.91,11.00 -3.58,11.34 -3.38,11.77 -3.18,12.20 -3.13,12.67 -3.08,13.14 -3.17,13.60 -3.27,14.06 -3.52,14.47 -3.76,14.88 -4.12,15.18 -4.47,15.49 -4.91,15.67 -5.35,15.85 -5.82,15.87 -6.30,15.90 -6.75,15.78 -7.21,15.65 -7.60,15.39 -7.99,15.13 -8.28,14.75 -8.57,14.38 -8.72,13.93 -8.88,13.48 -8.88,13.01 -8.88,12.54 -8.88,12.54 -8.88,12.54 -8.29,10.46 -7.69,8.39 -6.26,6.70 -4.84,5.02 -3.97,3.69 -3.10,2.36 -2.84,0.92 -2.57,-0.51 -2.47,-0.81 -2.37,-1.11 -2.20,-1.38 -2.03,-1.65 -1.81,-1.87 -1.58,-2.09 -1.31,-2.25 -1.03,-2.40 -0.73,-2.49 -0.43,-2.58 -0.11,-2.60 0.20,-2.61 0.51,-2.55 0.82,-2.49 1.10,-2.35 1.39,-2.22 1.63,-2.02 1.88,-1.82 2.07,-1.57 2.26,-1.32 2.39,-1.03 2.51,-0.73 2.56,-0.42 2.62,-0.11 2.59,0.19 2.57,0.51 2.57,0.51 L 2.57,0.51 Z"></path></g><g transform="translate(22.324177666753542 106) rotate(0 -2 2)" stroke="none"><path fill="#000000" d="M 1.07,2.14 Q 1.07,2.14 0.51,2.48 -0.04,2.82 -0.89,4.31 -1.74,5.79 -1.97,6.34 -2.20,6.89 -2.52,7.04 -2.83,7.20 -3.17,7.28 -3.52,7.35 -3.87,7.34 -4.22,7.34 -4.56,7.24 -4.90,7.15 -5.21,6.98 -5.52,6.81 -5.78,6.57 -6.03,6.33 -6.23,6.04 -6.42,5.74 -6.54,5.41 -6.66,5.08 -6.69,4.73 -6.72,4.38 -6.67,4.03 -6.62,3.68 -6.49,3.35 -6.36,3.03 -6.15,2.74 -5.94,2.46 -5.68,2.23 -5.41,2.00 -3.64,0.19 -1.88,-1.61 -1.57,-1.87 -1.27,-2.13 -0.89,-2.27 -0.52,-2.42 -0.12,-2.44 0.27,-2.46 0.66,-2.35 1.05,-2.24 1.38,-2.02 1.71,-1.79 1.95,-1.47 2.19,-1.15 2.32,-0.77 2.44,-0.39 2.44,0.00 2.44,0.41 2.31,0.79 2.18,1.17 1.94,1.48 1.69,1.80 1.36,2.03 1.03,2.25 0.64,2.36 0.25,2.46 -0.14,2.44 -0.54,2.42 -0.91,2.27 -1.28,2.12 -1.59,1.85 -1.89,1.59 -2.10,1.25 -2.30,0.90 -2.39,0.51 -2.47,0.12 -2.43,-0.27 -2.38,-0.67 -2.21,-1.03 -2.04,-1.40 -1.77,-1.69 -1.49,-1.98 -1.13,-2.16 -0.78,-2.35 -0.38,-2.41 0.01,-2.48 0.40,-2.41 0.80,-2.34 1.15,-2.15 1.50,-1.96 1.78,-1.67 2.05,-1.38 2.22,-1.01 2.39,-0.65 2.43,-0.25 2.47,0.14 2.38,0.53 2.30,0.92 2.09,1.27 1.88,1.61 1.88,1.61 1.88,1.61 -0.16,4.25 -2.20,6.89 -2.52,7.04 -2.83,7.20 -3.17,7.28 -3.52,7.35 -3.87,7.34 -4.22,7.34 -4.56,7.24 -4.90,7.15 -5.21,6.98 -5.52,6.81 -5.78,6.57 -6.03,6.33 -6.23,6.04 -6.42,5.74 -6.54,5.41 -6.66,5.08 -6.69,4.73 -6.72,4.38 -6.67,4.03 -6.62,3.68 -6.49,3.35 -6.36,3.03 -6.15,2.74 -5.94,2.46 -5.68,2.23 -5.41,2.00 -5.33,2.13 -5.26,2.25 -5.08,1.16 -4.91,0.07 -3.58,-0.79 -2.25,-1.67 -1.66,-1.90 -1.07,-2.14 -0.80,-2.24 -0.52,-2.34 -0.24,-2.36 0.04,-2.39 0.33,-2.35 0.61,-2.31 0.88,-2.20 1.15,-2.10 1.39,-1.93 1.62,-1.76 1.81,-1.54 2.00,-1.32 2.13,-1.06 2.25,-0.80 2.32,-0.52 2.38,-0.24 2.38,0.04 2.37,0.33 2.30,0.61 2.22,0.89 2.08,1.14 1.94,1.40 1.75,1.61 1.55,1.82 1.31,1.98 1.07,2.14 1.07,2.14 L 1.07,2.14 Z"></path></g><g transform="translate(31.324177666753542 110) rotate(0 -1 2.5)" stroke="none"><path fill="#000000" d="M 2.07,0.82 Q 2.07,0.82 1.50,2.26 0.93,3.70 0.80,3.94 0.67,4.18 0.49,4.38 0.30,4.58 0.08,4.73 -0.14,4.88 -0.39,4.97 -0.65,5.06 -0.92,5.09 -1.19,5.12 -1.45,5.08 -1.72,5.04 -1.97,4.94 -2.22,4.84 -2.44,4.68 -2.66,4.52 -2.84,4.32 -3.02,4.11 -3.14,3.87 -3.26,3.63 -3.32,3.36 -3.38,3.10 -3.37,2.83 -3.37,2.56 -3.30,2.30 -3.23,2.04 -2.66,0.60 -2.08,-0.83 -1.89,-1.14 -1.71,-1.45 -1.43,-1.69 -1.15,-1.92 -0.81,-2.06 -0.47,-2.19 -0.11,-2.21 0.24,-2.23 0.59,-2.13 0.94,-2.03 1.24,-1.83 1.54,-1.62 1.76,-1.33 1.98,-1.04 2.10,-0.70 2.21,-0.36 2.21,0.00 2.21,0.36 2.09,0.71 1.98,1.05 1.76,1.34 1.54,1.63 1.24,1.83 0.94,2.04 0.58,2.13 0.23,2.23 -0.12,2.21 -0.48,2.19 -0.82,2.05 -1.16,1.92 -1.43,1.68 -1.71,1.45 -1.90,1.13 -2.08,0.82 -2.16,0.47 -2.24,0.11 -2.20,-0.24 -2.16,-0.60 -2.01,-0.93 -1.85,-1.26 -1.60,-1.52 -1.35,-1.79 -1.03,-1.96 -0.71,-2.12 -0.35,-2.18 0.00,-2.24 0.36,-2.18 0.72,-2.12 1.04,-1.95 1.36,-1.78 1.61,-1.52 1.86,-1.25 2.01,-0.92 2.16,-0.59 2.20,-0.23 2.24,0.12 2.16,0.48 2.08,0.83 2.08,0.83 2.08,0.83 1.51,2.27 0.93,3.70 0.80,3.94 0.67,4.18 0.49,4.38 0.30,4.58 0.08,4.73 -0.14,4.88 -0.39,4.97 -0.65,5.06 -0.92,5.09 -1.19,5.12 -1.45,5.08 -1.72,5.04 -1.97,4.94 -2.22,4.84 -2.44,4.68 -2.66,4.52 -2.84,4.32 -3.02,4.11 -3.14,3.87 -3.26,3.63 -3.32,3.36 -3.38,3.10 -3.37,2.83 -3.37,2.56 -3.30,2.30 -3.23,2.04 -2.65,0.60 -2.07,-0.82 -1.94,-1.06 -1.81,-1.30 -1.63,-1.50 -1.45,-1.69 -1.22,-1.84 -1.00,-1.99 -0.74,-2.08 -0.49,-2.17 -0.22,-2.20 0.04,-2.23 0.30,-2.19 0.57,-2.15 0.82,-2.05 1.07,-1.95 1.29,-1.80 1.51,-1.64 1.68,-1.44 1.86,-1.23 1.98,-0.99 2.10,-0.75 2.16,-0.49 2.22,-0.22 2.21,0.04 2.21,0.30 2.14,0.56 2.07,0.83 2.07,0.82 L 2.07,0.82 Z"></path></g><g transform="translate(40.32417766675354 116) rotate(0 -3 5)" stroke="none"><path fill="#000000" d="M 1.34,2.23 Q 1.34,2.23 -0.12,3.05 -1.59,3.87 -2.59,4.32 -3.58,4.77 -3.32,7.39 -3.06,10.01 -3.14,10.48 -3.22,10.94 -3.45,11.36 -3.67,11.78 -4.02,12.10 -4.36,12.43 -4.79,12.63 -5.22,12.82 -5.70,12.87 -6.17,12.92 -6.63,12.82 -7.09,12.71 -7.50,12.47 -7.90,12.22 -8.21,11.86 -8.51,11.49 -8.69,11.05 -8.86,10.61 -8.88,10.14 -8.91,9.66 -8.78,9.21 -8.65,8.75 -8.38,8.36 -8.11,7.97 -7.73,7.68 -7.36,7.40 -6.91,7.25 -6.46,7.10 -5.98,7.10 -5.51,7.10 -5.06,7.26 -4.61,7.41 -4.23,7.70 -3.86,7.99 -3.59,8.38 -3.33,8.78 -3.20,9.23 -3.08,9.69 -3.11,10.17 -3.14,10.64 -3.31,11.08 -3.49,11.52 -3.80,11.88 -4.11,12.24 -4.52,12.48 -4.92,12.72 -5.39,12.82 -5.85,12.92 -6.32,12.87 -6.79,12.82 -7.22,12.61 -7.65,12.41 -7.99,12.09 -8.34,11.76 -8.56,11.34 -8.78,10.92 -8.85,10.45 -8.93,9.98 -8.93,9.98 -8.93,9.98 -8.80,7.43 -8.68,4.88 -8.09,3.27 -7.49,1.66 -5.82,0.62 -4.15,-0.42 -2.75,-1.32 -1.34,-2.23 -1.05,-2.36 -0.76,-2.49 -0.45,-2.54 -0.14,-2.60 0.16,-2.58 0.47,-2.56 0.77,-2.47 1.07,-2.37 1.34,-2.21 1.61,-2.04 1.83,-1.82 2.05,-1.60 2.22,-1.33 2.38,-1.06 2.47,-0.76 2.56,-0.46 2.58,-0.14 2.60,0.16 2.54,0.47 2.48,0.78 2.35,1.07 2.22,1.35 2.03,1.60 1.83,1.85 1.59,2.04 1.34,2.23 1.34,2.23 L 1.34,2.23 Z"></path></g><g transform="translate(50.32417766675354 121) rotate(0 0 4.5)" stroke="none"><path fill="#000000" d="M 2.59,0 Q 2.59,0 2.62,0.90 2.65,1.81 2.30,2.96 1.95,4.11 1.90,6.58 1.86,9.05 1.78,9.50 1.70,9.96 1.47,10.37 1.25,10.77 0.91,11.08 0.56,11.40 0.14,11.59 -0.28,11.77 -0.74,11.81 -1.20,11.86 -1.65,11.75 -2.10,11.64 -2.50,11.39 -2.89,11.15 -3.19,10.79 -3.48,10.43 -3.64,10.00 -3.81,9.56 -3.82,9.10 -3.84,8.63 -3.71,8.19 -3.58,7.74 -3.31,7.36 -3.04,6.99 -2.67,6.71 -2.29,6.44 -1.85,6.30 -1.41,6.16 -0.94,6.16 -0.48,6.17 -0.04,6.33 0.38,6.48 0.75,6.77 1.11,7.06 1.37,7.45 1.62,7.84 1.74,8.29 1.85,8.74 1.82,9.20 1.79,9.66 1.61,10.09 1.43,10.52 1.12,10.87 0.81,11.21 0.41,11.45 0.01,11.68 -0.44,11.77 -0.89,11.86 -1.35,11.80 -1.81,11.75 -2.23,11.54 -2.65,11.34 -2.98,11.01 -3.31,10.69 -3.52,10.28 -3.73,9.86 -3.80,9.40 -3.86,8.94 -3.86,8.94 -3.86,8.94 -3.73,6.64 -3.60,4.34 -3.12,2.98 -2.65,1.63 -2.62,0.81 -2.59,0 -2.55,-0.30 -2.51,-0.61 -2.40,-0.91 -2.29,-1.20 -2.11,-1.46 -1.93,-1.71 -1.70,-1.92 -1.47,-2.13 -1.19,-2.27 -0.91,-2.42 -0.61,-2.49 -0.31,-2.57 0.00,-2.57 0.31,-2.57 0.61,-2.49 0.91,-2.42 1.19,-2.27 1.47,-2.13 1.70,-1.92 1.93,-1.71 2.11,-1.46 2.29,-1.20 2.40,-0.91 2.51,-0.61 2.55,-0.30 2.59,0.00 2.59,0.00 L 2.59,0 Z"></path></g><g transform="translate(62.32417766675354 127) rotate(0 -1.5 3)" stroke="none"><path fill="#000000" d="M 2.22,0.74 Q 2.22,0.74 1.94,1.69 1.66,2.64 0.98,3.50 0.30,4.36 0.00,5.35 -0.29,6.34 -0.45,6.63 -0.62,6.92 -0.85,7.17 -1.08,7.41 -1.36,7.60 -1.64,7.78 -1.96,7.89 -2.28,8.00 -2.62,8.03 -2.95,8.06 -3.28,8.01 -3.62,7.96 -3.93,7.83 -4.24,7.71 -4.51,7.51 -4.78,7.31 -5.00,7.05 -5.22,6.79 -5.36,6.49 -5.51,6.19 -5.58,5.86 -5.65,5.53 -5.64,5.19 -5.63,4.86 -5.54,4.53 -5.45,4.21 -3.76,1.53 -2.07,-1.13 -1.84,-1.43 -1.60,-1.73 -1.28,-1.94 -0.96,-2.15 -0.59,-2.25 -0.22,-2.35 0.15,-2.32 0.53,-2.30 0.88,-2.15 1.24,-2.01 1.53,-1.76 1.82,-1.51 2.01,-1.18 2.20,-0.84 2.28,-0.47 2.36,-0.10 2.31,0.27 2.27,0.65 2.10,1.00 1.94,1.35 1.67,1.62 1.40,1.90 1.06,2.07 0.72,2.25 0.35,2.30 -0.02,2.36 -0.40,2.29 -0.78,2.23 -1.11,2.04 -1.45,1.86 -1.71,1.58 -1.97,1.30 -2.13,0.95 -2.28,0.60 -2.32,0.22 -2.36,-0.15 -2.27,-0.52 -2.18,-0.90 -1.98,-1.22 -1.78,-1.55 -1.49,-1.79 -1.19,-2.04 -0.83,-2.17 -0.48,-2.31 -0.09,-2.33 0.28,-2.34 0.65,-2.24 1.01,-2.13 1.33,-1.91 1.64,-1.69 1.87,-1.39 2.10,-1.08 2.22,-0.71 2.33,-0.35 2.33,0.02 2.33,0.41 2.20,0.77 2.07,1.13 2.07,1.13 2.07,1.13 0.89,3.73 -0.29,6.34 -0.45,6.63 -0.62,6.92 -0.85,7.17 -1.08,7.41 -1.36,7.60 -1.64,7.78 -1.96,7.89 -2.28,8.00 -2.62,8.03 -2.95,8.06 -3.28,8.01 -3.62,7.96 -3.93,7.83 -4.24,7.71 -4.51,7.51 -4.78,7.31 -5.00,7.05 -5.21,6.79 -5.36,6.49 -5.51,6.19 -5.58,5.86 -5.65,5.53 -5.64,5.19 -5.63,4.86 -5.54,4.53 -5.45,4.21 -5.34,3.74 -5.23,3.27 -4.02,2.04 -2.81,0.80 -2.51,0.03 -2.22,-0.74 -2.10,-0.99 -1.98,-1.25 -1.80,-1.47 -1.62,-1.69 -1.39,-1.86 -1.17,-2.03 -0.91,-2.14 -0.65,-2.25 -0.37,-2.29 -0.09,-2.34 0.18,-2.32 0.46,-2.29 0.73,-2.20 1.00,-2.11 1.24,-1.96 1.48,-1.81 1.67,-1.61 1.87,-1.40 2.01,-1.16 2.15,-0.91 2.23,-0.64 2.31,-0.37 2.32,-0.09 2.33,0.18 2.28,0.46 2.22,0.74 2.22,0.74 L 2.22,0.74 Z"></path></g><g transform="translate(72.32417766675354 130) rotate(0 -0.5 4.5)" stroke="none"><path fill="#000000" d="M 2.53,0 Q 2.53,0 2.53,1.43 2.52,2.87 2.06,4.93 1.60,6.98 1.67,8.05 1.75,9.12 1.65,9.55 1.56,9.99 1.34,10.37 1.11,10.76 0.77,11.05 0.44,11.34 0.02,11.51 -0.38,11.68 -0.82,11.71 -1.27,11.74 -1.70,11.62 -2.13,11.51 -2.50,11.26 -2.87,11.01 -3.14,10.66 -3.42,10.31 -3.56,9.89 -3.71,9.47 -3.71,9.02 -3.72,8.57 -3.58,8.15 -3.44,7.73 -3.17,7.37 -2.91,7.01 -2.54,6.76 -2.17,6.51 -1.75,6.38 -1.32,6.26 -0.87,6.28 -0.43,6.30 -0.01,6.46 0.39,6.62 0.74,6.91 1.08,7.19 1.31,7.57 1.54,7.95 1.64,8.39 1.74,8.82 1.70,9.26 1.66,9.71 1.47,10.11 1.29,10.52 0.99,10.85 0.68,11.17 0.29,11.39 -0.09,11.60 -0.53,11.67 -0.97,11.75 -1.41,11.68 -1.85,11.61 -2.25,11.41 -2.64,11.20 -2.95,10.88 -3.26,10.56 -3.45,10.16 -3.64,9.76 -3.69,9.31 -3.75,8.87 -3.75,8.87 -3.75,8.87 -3.13,5.87 -2.52,2.87 -2.53,1.43 -2.53,0 -2.50,-0.30 -2.46,-0.60 -2.35,-0.89 -2.24,-1.18 -2.07,-1.43 -1.90,-1.68 -1.67,-1.88 -1.44,-2.08 -1.17,-2.23 -0.90,-2.37 -0.60,-2.44 -0.30,-2.52 0.00,-2.52 0.30,-2.52 0.60,-2.44 0.90,-2.37 1.17,-2.23 1.44,-2.08 1.67,-1.88 1.90,-1.68 2.07,-1.43 2.24,-1.17 2.35,-0.89 2.46,-0.60 2.50,-0.30 2.53,0.00 2.53,0.00 L 2.53,0 Z"></path></g><g transform="translate(91.32417766675354 137) rotate(0 -4.5 3.5)" stroke="none"><path fill="#000000" d="M 0.51,2.58 Q 0.51,2.58 -0.88,2.83 -2.29,3.09 -3.32,3.73 -4.36,4.37 -5.39,6.50 -6.43,8.64 -6.76,9.00 -7.09,9.37 -7.52,9.61 -7.95,9.85 -8.43,9.95 -8.92,10.04 -9.40,9.97 -9.89,9.90 -10.33,9.68 -10.77,9.46 -11.12,9.12 -11.47,8.77 -11.69,8.33 -11.91,7.88 -11.97,7.40 -12.04,6.91 -11.94,6.42 -11.85,5.94 -11.61,5.51 -11.36,5.08 -11.00,4.76 -10.63,4.43 -10.18,4.23 -9.73,4.04 -9.23,4.00 -8.74,3.96 -8.27,4.08 -7.79,4.20 -7.37,4.47 -6.96,4.73 -6.65,5.12 -6.34,5.50 -6.17,5.96 -6.00,6.43 -5.99,6.92 -5.98,7.41 -6.13,7.88 -6.27,8.35 -6.56,8.75 -6.85,9.15 -7.25,9.44 -7.65,9.72 -8.12,9.87 -8.59,10.01 -9.08,10.00 -9.57,9.98 -10.04,9.81 -10.50,9.64 -10.88,9.33 -11.26,9.02 -11.53,8.61 -11.79,8.19 -11.91,7.72 -12.03,7.24 -11.99,6.75 -11.95,6.26 -11.75,5.80 -11.56,5.35 -11.56,5.35 -11.56,5.35 -11.07,4.34 -10.59,3.33 -9.81,2.11 -9.04,0.88 -7.30,0.01 -5.56,-0.84 -4.50,-1.39 -3.45,-1.94 -1.98,-2.26 -0.51,-2.58 -0.20,-2.60 0.11,-2.63 0.42,-2.57 0.74,-2.52 1.03,-2.40 1.32,-2.27 1.57,-2.08 1.83,-1.89 2.03,-1.64 2.23,-1.39 2.36,-1.11 2.50,-0.82 2.56,-0.51 2.62,-0.20 2.61,0.11 2.59,0.43 2.50,0.73 2.41,1.04 2.25,1.31 2.09,1.59 1.87,1.81 1.65,2.04 1.38,2.21 1.11,2.38 0.81,2.48 0.51,2.58 0.51,2.58 L 0.51,2.58 Z"></path></g><g transform="translate(104.32417766675354 145) rotate(0 -2 3.5)" stroke="none"><path fill="#000000" d="M 1.99,1.49 Q 1.99,1.49 1.13,2.63 0.27,3.78 -0.62,5.85 -1.52,7.93 -1.73,8.30 -1.95,8.67 -2.27,8.95 -2.59,9.24 -2.98,9.40 -3.38,9.57 -3.80,9.60 -4.23,9.63 -4.65,9.52 -5.06,9.42 -5.42,9.18 -5.78,8.95 -6.04,8.61 -6.31,8.28 -6.45,7.88 -6.60,7.47 -6.61,7.04 -6.61,6.62 -6.49,6.21 -6.36,5.80 -6.10,5.45 -5.85,5.11 -5.50,4.86 -5.15,4.61 -4.74,4.49 -4.33,4.37 -3.90,4.39 -3.47,4.40 -3.07,4.55 -2.67,4.70 -2.34,4.97 -2.01,5.24 -1.78,5.61 -1.56,5.97 -1.46,6.39 -1.36,6.80 -1.39,7.23 -1.43,7.66 -1.60,8.05 -1.78,8.44 -2.07,8.76 -2.35,9.07 -2.73,9.28 -3.10,9.49 -3.52,9.56 -3.95,9.64 -4.37,9.58 -4.79,9.52 -5.18,9.32 -5.56,9.13 -5.86,8.83 -6.16,8.52 -6.34,8.14 -6.53,7.75 -6.59,7.33 -6.64,6.90 -6.56,6.48 -6.47,6.06 -6.47,6.06 -6.47,6.06 -5.63,4.41 -4.79,2.75 -4.25,1.78 -3.72,0.81 -2.85,-0.33 -1.99,-1.49 -1.78,-1.71 -1.57,-1.92 -1.32,-2.09 -1.07,-2.25 -0.78,-2.34 -0.50,-2.44 -0.20,-2.46 0.09,-2.49 0.39,-2.44 0.69,-2.39 0.96,-2.27 1.24,-2.16 1.48,-1.97 1.72,-1.79 1.91,-1.56 2.10,-1.33 2.23,-1.06 2.36,-0.79 2.42,-0.49 2.48,-0.20 2.47,0.09 2.46,0.39 2.37,0.68 2.29,0.97 2.14,1.23 1.99,1.49 1.99,1.49 L 1.99,1.49 Z"></path></g><g transform="translate(113.32417766675354 151) rotate(0 0.5 5)" stroke="none"><path fill="#000000" d="M 2.46,0 Q 2.46,0 2.39,1.65 2.32,3.30 3.19,4.71 4.05,6.12 4.33,7.95 4.61,9.78 4.58,10.20 4.54,10.63 4.37,11.02 4.21,11.41 3.92,11.72 3.64,12.04 3.27,12.25 2.90,12.46 2.48,12.54 2.07,12.62 1.65,12.56 1.23,12.50 0.84,12.32 0.46,12.13 0.16,11.83 -0.13,11.53 -0.31,11.15 -0.50,10.77 -0.56,10.35 -0.62,9.92 -0.54,9.51 -0.46,9.09 -0.25,8.72 -0.04,8.35 0.27,8.07 0.58,7.78 0.97,7.62 1.36,7.45 1.78,7.41 2.21,7.38 2.62,7.48 3.03,7.58 3.39,7.81 3.75,8.04 4.01,8.37 4.28,8.70 4.43,9.10 4.57,9.50 4.58,9.92 4.60,10.35 4.47,10.75 4.35,11.16 4.10,11.51 3.85,11.85 3.51,12.10 3.16,12.35 2.76,12.47 2.35,12.60 1.93,12.58 1.50,12.57 1.10,12.43 0.70,12.28 0.37,12.01 0.04,11.75 -0.18,11.39 -0.41,11.03 -0.51,10.62 -0.61,10.21 -0.61,10.21 -0.61,10.21 -0.79,8.44 -0.98,6.68 -1.65,5.14 -2.32,3.59 -2.39,1.79 -2.46,0 -2.43,-0.29 -2.39,-0.59 -2.28,-0.86 -2.18,-1.14 -2.01,-1.39 -1.84,-1.63 -1.62,-1.83 -1.40,-2.02 -1.13,-2.16 -0.87,-2.30 -0.58,-2.37 -0.29,-2.44 0.00,-2.44 0.29,-2.44 0.58,-2.37 0.87,-2.30 1.13,-2.16 1.40,-2.02 1.62,-1.83 1.84,-1.63 2.01,-1.39 2.18,-1.14 2.28,-0.86 2.39,-0.58 2.43,-0.29 2.46,0.00 2.46,0.00 L 2.46,0 Z"></path></g><g transform="translate(96.32417766675354 143) rotate(0 -1 1)" stroke="none"><path fill="#000000" d="M 2.12,-0.66 Q 2.12,-0.66 2.15,-0.13 2.18,0.40 1.96,0.88 1.74,1.36 1.32,1.69 0.91,2.02 0.38,2.12 -0.13,2.21 -0.64,2.05 -1.14,1.90 -1.52,1.52 -1.90,1.14 -2.05,0.64 -2.21,0.13 -2.12,-0.38 -2.02,-0.91 -1.69,-1.32 -1.36,-1.74 -0.88,-1.96 -0.39,-2.18 0.13,-2.15 0.66,-2.11 1.11,-1.84 1.57,-1.56 1.84,-1.11 L 2.12,-0.66 Z"></path></g><g transform="translate(128.32417766675354 154) rotate(0 -2 2.5)" stroke="none"><path fill="#000000" d="M 2.30,0 Q 2.30,0 2.34,1.15 2.39,2.3 1.93,3.82 1.46,5.35 0.33,6.14 -0.80,6.93 -1.43,7.11 -2.07,7.29 -2.38,7.37 -2.70,7.45 -3.02,7.45 -3.34,7.45 -3.66,7.37 -3.97,7.30 -4.26,7.15 -4.54,7.00 -4.79,6.78 -5.03,6.57 -5.21,6.30 -5.40,6.04 -5.51,5.74 -5.63,5.44 -5.67,5.12 -5.71,4.80 -5.67,4.47 -5.63,4.15 -5.52,3.85 -5.40,3.55 -5.22,3.28 -5.04,3.02 -4.80,2.80 -4.56,2.59 -4.27,2.44 -3.99,2.29 -2.95,0.53 -1.91,-1.21 -1.66,-1.48 -1.42,-1.75 -1.10,-1.93 -0.79,-2.12 -0.43,-2.19 -0.07,-2.26 0.29,-2.21 0.65,-2.16 0.98,-2.00 1.31,-1.84 1.57,-1.58 1.83,-1.32 1.99,-1.00 2.16,-0.67 2.21,-0.31 2.26,0.05 2.19,0.41 2.12,0.77 1.94,1.09 1.77,1.41 1.49,1.65 1.22,1.90 0.89,2.04 0.55,2.19 0.19,2.22 -0.17,2.25 -0.52,2.17 -0.88,2.08 -1.19,1.88 -1.50,1.69 -1.73,1.40 -1.96,1.12 -2.09,0.77 -2.22,0.43 -2.23,0.07 -2.24,-0.29 -2.13,-0.64 -2.03,-0.99 -1.82,-1.29 -1.60,-1.59 -1.31,-1.80 -1.01,-2.02 -0.66,-2.13 -0.31,-2.24 0.05,-2.23 0.41,-2.22 0.76,-2.10 1.10,-1.97 1.39,-1.74 1.67,-1.51 1.87,-1.21 2.07,-0.90 2.16,-0.54 2.25,-0.19 2.22,0.17 2.19,0.53 2.05,0.87 1.91,1.21 1.91,1.21 1.91,1.21 -0.08,4.25 -2.07,7.29 -2.38,7.37 -2.70,7.45 -3.02,7.45 -3.34,7.45 -3.66,7.37 -3.97,7.30 -4.26,7.15 -4.54,7.00 -4.79,6.78 -5.03,6.57 -5.21,6.30 -5.40,6.04 -5.51,5.74 -5.63,5.44 -5.67,5.12 -5.71,4.80 -5.67,4.47 -5.63,4.15 -5.52,3.85 -5.40,3.55 -5.22,3.28 -5.04,3.02 -4.80,2.80 -4.56,2.59 -4.27,2.44 -3.99,2.29 -3.19,2.29 -2.39,2.3 -2.34,1.15 -2.30,0 -2.26,-0.27 -2.23,-0.55 -2.13,-0.81 -2.03,-1.06 -1.88,-1.29 -1.72,-1.52 -1.51,-1.71 -1.30,-1.89 -1.06,-2.02 -0.81,-2.15 -0.54,-2.21 -0.27,-2.28 0.00,-2.28 0.27,-2.28 0.54,-2.21 0.81,-2.15 1.06,-2.02 1.30,-1.89 1.51,-1.71 1.72,-1.52 1.88,-1.29 2.03,-1.06 2.13,-0.81 2.23,-0.55 2.26,-0.27 2.30,0.00 2.30,0.00 L 2.30,0 Z"></path></g><g transform="translate(144.32417766675354 159) rotate(0 0 5.5)" stroke="none"><path fill="#000000" d="M 2.57,0 Q 2.57,0 2.60,1.15 2.62,2.3 2.65,3.36 2.68,4.42 2.74,6.05 2.81,7.68 2.84,9.34 2.87,11 2.79,11.45 2.72,11.91 2.50,12.32 2.28,12.73 1.95,13.05 1.61,13.37 1.19,13.57 0.76,13.77 0.30,13.82 -0.15,13.87 -0.61,13.77 -1.06,13.67 -1.46,13.43 -1.86,13.19 -2.16,12.83 -2.46,12.48 -2.63,12.04 -2.80,11.61 -2.83,11.15 -2.85,10.68 -2.73,10.24 -2.60,9.79 -2.34,9.40 -2.08,9.02 -1.71,8.74 -1.34,8.45 -0.90,8.31 -0.46,8.16 0.00,8.16 0.46,8.16 0.90,8.31 1.34,8.46 1.71,8.74 2.08,9.02 2.34,9.40 2.60,9.79 2.73,10.24 2.85,10.68 2.83,11.15 2.80,11.61 2.63,12.05 2.46,12.48 2.16,12.83 1.86,13.19 1.46,13.43 1.06,13.67 0.60,13.77 0.15,13.87 -0.30,13.82 -0.76,13.77 -1.19,13.57 -1.61,13.37 -1.95,13.05 -2.28,12.73 -2.50,12.32 -2.72,11.91 -2.79,11.45 -2.87,10.99 -2.87,10.99 -2.87,11 -2.84,9.34 -2.81,7.68 -2.74,6.05 -2.68,4.42 -2.65,3.36 -2.62,2.3 -2.60,1.15 -2.57,0 -2.54,-0.30 -2.50,-0.61 -2.39,-0.90 -2.28,-1.19 -2.10,-1.45 -1.93,-1.71 -1.69,-1.91 -1.46,-2.12 -1.19,-2.26 -0.91,-2.41 -0.61,-2.48 -0.31,-2.56 0.00,-2.56 0.31,-2.56 0.61,-2.48 0.91,-2.41 1.19,-2.26 1.46,-2.12 1.69,-1.91 1.93,-1.71 2.10,-1.45 2.28,-1.19 2.39,-0.90 2.50,-0.61 2.54,-0.30 2.57,0.00 2.57,0.00 L 2.57,0 Z"></path></g><g transform="translate(139.32417766675354 158) rotate(0 -1.5 2.5)" stroke="none"><path fill="#000000" d="M 0.73,2.21 Q 0.73,2.21 -0.03,2.51 -0.81,2.80 -0.50,3.72 -0.20,4.64 -0.28,4.97 -0.37,5.29 -0.53,5.59 -0.69,5.88 -0.91,6.13 -1.14,6.38 -1.42,6.56 -1.70,6.75 -2.01,6.86 -2.33,6.98 -2.66,7.01 -3.00,7.05 -3.33,7.00 -3.66,6.96 -3.97,6.83 -4.28,6.71 -4.56,6.51 -4.83,6.32 -5.05,6.07 -5.27,5.81 -5.42,5.51 -5.57,5.21 -5.64,4.89 -5.72,4.56 -5.71,4.22 -5.71,3.89 -3.82,1.27 -1.93,-1.34 -1.67,-1.61 -1.40,-1.89 -1.06,-2.06 -0.73,-2.24 -0.35,-2.29 0.02,-2.35 0.39,-2.29 0.77,-2.22 1.10,-2.04 1.44,-1.86 1.70,-1.58 1.96,-1.30 2.12,-0.95 2.27,-0.60 2.31,-0.22 2.35,0.15 2.26,0.52 2.18,0.89 1.98,1.21 1.78,1.54 1.48,1.78 1.19,2.03 0.83,2.16 0.48,2.30 0.10,2.32 -0.27,2.33 -0.64,2.23 -1.01,2.12 -1.32,1.91 -1.63,1.69 -1.86,1.38 -2.09,1.08 -2.21,0.72 -2.32,0.35 -2.32,-0.02 -2.32,-0.40 -2.19,-0.76 -2.07,-1.12 -1.83,-1.42 -1.60,-1.72 -1.28,-1.93 -0.96,-2.14 -0.59,-2.24 -0.23,-2.34 0.14,-2.32 0.52,-2.29 0.88,-2.15 1.23,-2.00 1.52,-1.75 1.81,-1.50 2.00,-1.17 2.19,-0.84 2.27,-0.47 2.35,-0.10 2.30,0.27 2.26,0.65 2.10,0.99 1.93,1.34 1.93,1.34 1.93,1.34 0.86,2.99 -0.20,4.64 -0.28,4.97 -0.37,5.29 -0.53,5.59 -0.69,5.88 -0.91,6.13 -1.14,6.38 -1.42,6.56 -1.70,6.75 -2.01,6.86 -2.33,6.98 -2.66,7.01 -3.00,7.05 -3.33,7.00 -3.66,6.96 -3.97,6.83 -4.28,6.71 -4.56,6.51 -4.83,6.32 -5.05,6.07 -5.27,5.81 -5.42,5.51 -5.57,5.21 -5.64,4.89 -5.72,4.56 -5.71,4.22 -5.71,3.89 -5.65,3.40 -5.58,2.91 -4.99,1.34 -4.39,-0.23 -3.51,-0.94 -2.63,-1.65 -1.68,-1.93 -0.73,-2.21 -0.46,-2.27 -0.18,-2.33 0.09,-2.31 0.37,-2.30 0.64,-2.22 0.91,-2.15 1.16,-2.00 1.40,-1.86 1.60,-1.67 1.81,-1.47 1.96,-1.23 2.11,-1.00 2.20,-0.73 2.29,-0.46 2.31,-0.18 2.33,0.09 2.29,0.37 2.24,0.65 2.13,0.91 2.02,1.17 1.85,1.39 1.68,1.62 1.46,1.79 1.24,1.97 0.99,2.09 0.73,2.21 0.73,2.21 L 0.73,2.21 Z"></path></g><g transform="translate(155.32417766675354 163) rotate(0 0 2.5)" stroke="none"><path fill="#000000" d="M 2.25,0 Q 2.25,0 2.30,1.15 2.35,2.3 2.41,3.07 2.46,3.85 2.43,4.14 2.39,4.44 2.29,4.72 2.18,5.00 2.01,5.24 1.84,5.49 1.62,5.68 1.40,5.88 1.13,6.02 0.87,6.16 0.58,6.23 0.29,6.30 -0.00,6.30 -0.29,6.30 -0.58,6.23 -0.87,6.16 -1.13,6.02 -1.40,5.88 -1.62,5.68 -1.84,5.48 -2.01,5.24 -2.18,4.99 -2.29,4.72 -2.39,4.44 -2.43,4.14 -2.46,3.85 -2.32,1.92 -2.18,0 -2.13,-0.34 -2.07,-0.69 -1.90,-1.01 -1.74,-1.32 -1.48,-1.56 -1.22,-1.81 -0.90,-1.96 -0.58,-2.10 -0.23,-2.14 0.11,-2.18 0.46,-2.11 0.81,-2.03 1.11,-1.85 1.41,-1.66 1.64,-1.39 1.87,-1.12 2.00,-0.79 2.13,-0.47 2.15,-0.11 2.17,0.23 2.08,0.57 1.98,0.91 1.78,1.21 1.58,1.50 1.30,1.72 1.02,1.93 0.68,2.04 0.35,2.16 -0.00,2.16 -0.35,2.16 -0.69,2.04 -1.02,1.93 -1.30,1.71 -1.58,1.50 -1.78,1.21 -1.98,0.91 -2.08,0.57 -2.17,0.23 -2.15,-0.11 -2.13,-0.47 -2.00,-0.80 -1.87,-1.12 -1.64,-1.39 -1.41,-1.66 -1.11,-1.85 -0.80,-2.03 -0.46,-2.11 -0.11,-2.18 0.23,-2.14 0.58,-2.10 0.90,-1.96 1.22,-1.81 1.48,-1.56 1.74,-1.32 1.90,-1.01 2.07,-0.69 2.13,-0.34 2.18,0.00 2.18,0.00 2.18,0 2.32,1.92 2.46,3.85 2.43,4.14 2.39,4.44 2.29,4.72 2.18,4.99 2.01,5.24 1.84,5.48 1.62,5.68 1.40,5.88 1.13,6.02 0.87,6.16 0.58,6.23 0.29,6.30 0.00,6.30 -0.29,6.30 -0.58,6.23 -0.87,6.16 -1.13,6.02 -1.40,5.88 -1.62,5.68 -1.84,5.49 -2.01,5.24 -2.18,5.00 -2.29,4.72 -2.39,4.44 -2.43,4.14 -2.46,3.85 -2.41,3.07 -2.35,2.3 -2.30,1.15 -2.25,0 -2.22,-0.26 -2.19,-0.53 -2.09,-0.79 -1.99,-1.04 -1.84,-1.27 -1.68,-1.49 -1.48,-1.67 -1.28,-1.85 -1.04,-1.98 -0.79,-2.10 -0.53,-2.17 -0.27,-2.23 0.00,-2.23 0.27,-2.23 0.53,-2.17 0.80,-2.10 1.04,-1.98 1.28,-1.85 1.48,-1.67 1.68,-1.49 1.84,-1.27 1.99,-1.04 2.09,-0.79 2.19,-0.53 2.22,-0.26 2.25,0.00 2.25,0.00 L 2.25,0 Z"></path></g><g transform="translate(165.32417766675354 166) rotate(0 1.5 3)" stroke="none"><path fill="#000000" d="M 0.83,-2.51 Q 0.83,-2.51 1.78,-2.20 2.73,-1.90 3.66,-1.14 4.58,-0.38 5.01,0.79 5.44,1.97 3.93,3.87 2.41,5.78 1.22,5.31 0.03,4.84 -0.31,4.72 -0.65,4.60 -0.95,4.41 -1.26,4.21 -1.51,3.94 -1.76,3.68 -1.93,3.36 -2.11,3.05 -2.21,2.70 -2.31,2.35 -2.32,1.99 -2.33,1.62 -2.25,1.27 -2.18,0.91 -2.02,0.59 -1.86,0.26 -1.63,-0.01 -1.39,-0.29 -1.10,-0.50 -0.81,-0.72 -0.47,-0.86 -0.14,-0.99 0.21,-1.05 0.57,-1.10 0.93,-1.07 1.29,-1.04 2.51,0.31 3.73,1.66 3.90,2.93 4.07,4.19 3.87,4.01 3.67,3.82 3.96,4.08 4.24,4.34 4.46,4.67 4.67,4.99 4.81,5.35 4.94,5.71 4.98,6.10 5.02,6.48 4.97,6.87 4.92,7.25 4.78,7.61 4.63,7.97 4.41,8.29 4.19,8.60 3.89,8.85 3.60,9.11 3.25,9.28 2.91,9.46 2.53,9.54 2.16,9.63 1.77,9.63 1.38,9.62 1.01,9.52 0.63,9.43 0.29,9.24 -0.04,9.06 -1.33,4.90 -2.62,0.74 -2.67,0.30 -2.72,-0.13 -2.63,-0.56 -2.54,-1.00 -2.31,-1.38 -2.08,-1.76 -1.75,-2.04 -1.41,-2.33 -1.00,-2.50 -0.59,-2.66 -0.15,-2.69 0.28,-2.71 0.71,-2.60 1.13,-2.48 1.50,-2.23 1.87,-1.99 2.13,-1.64 2.40,-1.28 2.55,-0.87 2.69,-0.45 2.69,-0.01 2.69,0.43 2.55,0.85 2.41,1.27 2.15,1.62 1.88,1.97 1.52,2.22 1.15,2.47 0.73,2.59 0.30,2.71 -0.13,2.69 -0.57,2.67 -0.98,2.50 -1.39,2.34 -1.73,2.06 -2.07,1.77 -2.30,1.39 -2.53,1.02 -2.63,0.58 -2.72,0.15 -2.68,-0.28 -2.63,-0.72 -2.45,-1.12 -2.26,-1.52 -1.96,-1.84 -1.66,-2.16 -1.27,-2.37 -0.88,-2.58 -0.44,-2.65 -0.01,-2.73 0.42,-2.66 0.86,-2.59 1.25,-2.38 1.64,-2.18 1.95,-1.86 2.25,-1.54 2.44,-1.14 2.62,-0.74 2.62,-0.74 2.62,-0.74 3.15,1.54 3.67,3.82 3.96,4.08 4.24,4.34 4.46,4.67 4.67,4.99 4.81,5.35 4.94,5.71 4.98,6.10 5.02,6.48 4.97,6.87 4.92,7.25 4.78,7.61 4.63,7.97 4.41,8.29 4.19,8.60 3.89,8.85 3.60,9.11 3.25,9.28 2.91,9.46 2.53,9.54 2.16,9.63 1.77,9.63 1.38,9.62 1.01,9.52 0.63,9.43 0.29,9.24 -0.04,9.06 -0.82,7.70 -1.61,6.35 -1.81,4.87 -2.02,3.40 -0.99,4.12 0.03,4.84 -0.31,4.72 -0.65,4.60 -0.95,4.41 -1.26,4.21 -1.51,3.95 -1.76,3.68 -1.93,3.36 -2.11,3.05 -2.21,2.70 -2.31,2.35 -2.32,1.99 -2.33,1.62 -2.25,1.27 -2.18,0.91 -2.02,0.59 -1.86,0.26 -1.63,-0.01 -1.39,-0.29 -1.10,-0.50 -0.81,-0.72 -0.47,-0.85 -0.14,-0.99 0.21,-1.05 0.57,-1.10 0.93,-1.07 1.29,-1.04 1.76,-0.12 2.23,0.78 1.47,1.91 0.71,3.05 -0.06,2.78 -0.83,2.51 -1.12,2.37 -1.41,2.23 -1.66,2.03 -1.90,1.83 -2.09,1.57 -2.29,1.32 -2.41,1.03 -2.54,0.73 -2.59,0.42 -2.64,0.10 -2.61,-0.21 -2.59,-0.52 -2.49,-0.83 -2.39,-1.13 -2.22,-1.40 -2.05,-1.67 -1.82,-1.89 -1.59,-2.11 -1.31,-2.27 -1.03,-2.43 -0.73,-2.52 -0.42,-2.61 -0.10,-2.62 0.21,-2.63 0.52,-2.57 0.83,-2.51 0.83,-2.51 L 0.83,-2.51 Z"></path></g><g transform="translate(183.32417766675354 168) rotate(0 2 5)" stroke="none"><path fill="#000000" d="M 2.32,-0.93 Q 2.32,-0.93 2.88,0.51 3.43,1.96 3.77,2.98 4.10,3.99 5.20,6.29 6.30,8.58 6.46,8.98 6.63,9.39 6.66,9.82 6.69,10.26 6.57,10.68 6.46,11.11 6.22,11.47 5.98,11.84 5.63,12.10 5.28,12.37 4.87,12.52 4.46,12.66 4.02,12.66 3.58,12.67 3.17,12.53 2.75,12.40 2.40,12.14 2.05,11.87 1.80,11.51 1.55,11.15 1.43,10.73 1.31,10.31 1.33,9.88 1.35,9.44 1.51,9.03 1.66,8.62 1.94,8.29 2.22,7.95 2.60,7.72 2.97,7.49 3.40,7.39 3.82,7.30 4.26,7.34 4.69,7.38 5.09,7.56 5.49,7.74 5.81,8.04 6.13,8.34 6.34,8.72 6.55,9.11 6.62,9.54 6.70,9.97 6.63,10.40 6.57,10.83 6.36,11.22 6.16,11.61 5.85,11.92 5.53,12.22 5.14,12.41 4.74,12.59 4.31,12.65 3.87,12.70 3.45,12.61 3.02,12.52 2.64,12.29 2.26,12.07 1.98,11.74 1.69,11.41 1.69,11.41 1.69,11.41 0.84,9.49 -0.00,7.57 -0.57,5.68 -1.13,3.78 -1.73,2.35 -2.32,0.93 -2.40,0.63 -2.48,0.34 -2.48,0.04 -2.49,-0.25 -2.42,-0.55 -2.35,-0.84 -2.22,-1.11 -2.08,-1.38 -1.89,-1.61 -1.69,-1.84 -1.44,-2.02 -1.20,-2.19 -0.92,-2.30 -0.64,-2.42 -0.34,-2.46 -0.04,-2.50 0.25,-2.47 0.55,-2.44 0.83,-2.34 1.12,-2.23 1.37,-2.07 1.62,-1.90 1.83,-1.68 2.03,-1.45 2.18,-1.19 2.32,-0.93 2.32,-0.93 L 2.32,-0.93 Z"></path></g><g transform="translate(196.32417766675354 170) rotate(0 0 4)" stroke="none"><path fill="#000000" d="M 2.27,0 Q 2.27,0 2.29,1.43 2.31,2.87 2.42,4.44 2.53,6.01 2.57,6.58 2.62,7.15 2.58,7.46 2.54,7.78 2.43,8.07 2.32,8.37 2.14,8.63 1.96,8.89 1.72,9.10 1.49,9.31 1.21,9.46 0.93,9.60 0.62,9.68 0.31,9.76 -0.00,9.76 -0.31,9.76 -0.62,9.68 -0.93,9.60 -1.21,9.46 -1.49,9.31 -1.72,9.10 -1.96,8.89 -2.14,8.63 -2.32,8.37 -2.43,8.07 -2.54,7.78 -2.58,7.46 -2.62,7.15 -2.42,3.57 -2.21,0 -2.16,-0.35 -2.10,-0.70 -1.93,-1.02 -1.76,-1.34 -1.50,-1.59 -1.24,-1.83 -0.91,-1.98 -0.59,-2.13 -0.23,-2.17 0.12,-2.21 0.47,-2.13 0.82,-2.06 1.12,-1.87 1.43,-1.69 1.66,-1.41 1.90,-1.14 2.03,-0.81 2.16,-0.47 2.18,-0.11 2.20,0.24 2.11,0.58 2.01,0.93 1.81,1.22 1.61,1.52 1.32,1.74 1.03,1.96 0.69,2.07 0.35,2.19 -0.00,2.19 -0.35,2.19 -0.69,2.07 -1.04,1.96 -1.32,1.74 -1.61,1.52 -1.81,1.22 -2.01,0.93 -2.11,0.58 -2.20,0.23 -2.18,-0.11 -2.16,-0.47 -2.03,-0.81 -1.90,-1.14 -1.66,-1.41 -1.43,-1.69 -1.12,-1.87 -0.82,-2.06 -0.47,-2.13 -0.11,-2.21 0.23,-2.17 0.59,-2.13 0.92,-1.98 1.24,-1.83 1.50,-1.59 1.76,-1.34 1.93,-1.02 2.10,-0.70 2.16,-0.35 2.21,0.00 2.21,0.00 2.21,0 2.42,3.57 2.62,7.15 2.58,7.46 2.54,7.78 2.43,8.07 2.32,8.37 2.14,8.63 1.96,8.89 1.72,9.10 1.49,9.31 1.21,9.46 0.93,9.60 0.62,9.68 0.31,9.76 0.00,9.76 -0.31,9.76 -0.62,9.68 -0.93,9.60 -1.21,9.46 -1.49,9.31 -1.72,9.10 -1.96,8.89 -2.14,8.63 -2.32,8.37 -2.43,8.07 -2.54,7.78 -2.58,7.46 -2.62,7.15 -2.57,6.58 -2.53,6.01 -2.42,4.44 -2.31,2.87 -2.29,1.43 -2.27,0 -2.24,-0.27 -2.21,-0.54 -2.11,-0.80 -2.01,-1.05 -1.86,-1.28 -1.70,-1.51 -1.49,-1.69 -1.29,-1.87 -1.05,-2.00 -0.80,-2.12 -0.54,-2.19 -0.27,-2.26 0.00,-2.26 0.27,-2.26 0.54,-2.19 0.80,-2.12 1.05,-2.00 1.29,-1.87 1.49,-1.69 1.70,-1.51 1.86,-1.28 2.01,-1.05 2.11,-0.80 2.21,-0.54 2.24,-0.27 2.27,0.00 2.27,0.00 L 2.27,0 Z"></path></g><g transform="translate(207.32417766675354 170) rotate(0 0.5 2)" stroke="none"><path fill="#000000" d="M 2.24,-0.56 Q 2.24,-0.56 2.28,-0.57 2.32,-0.58 2.36,-0.29 2.40,-0.00 2.36,0.27 2.33,0.56 2.23,0.83 2.12,1.10 1.96,1.34 1.80,1.58 1.58,1.77 1.37,1.97 1.11,2.10 0.85,2.24 0.57,2.31 0.29,2.38 0.00,2.38 -0.28,2.38 -0.56,2.31 -0.84,2.24 -1.10,2.11 -1.35,1.97 -1.57,1.78 -1.79,1.59 -1.95,1.35 -2.12,1.12 -2.22,0.85 -2.32,0.58 -2.36,0.19 -2.39,-0.19 -2.29,-0.56 -2.20,-0.94 -1.99,-1.27 -1.78,-1.60 -1.48,-1.84 -1.18,-2.08 -0.81,-2.22 -0.45,-2.35 -0.06,-2.36 0.32,-2.37 0.69,-2.26 1.06,-2.15 1.37,-1.92 1.69,-1.69 1.92,-1.38 2.14,-1.06 2.26,-0.69 2.37,-0.32 2.36,0.06 2.35,0.44 2.22,0.81 2.09,1.17 1.84,1.48 1.60,1.78 1.27,1.99 0.95,2.20 0.57,2.29 0.19,2.39 -0.18,2.36 -0.57,2.33 -0.93,2.17 -1.29,2.02 -1.57,1.76 -1.86,1.50 -2.06,1.16 -2.25,0.83 -2.32,0.44 -2.39,0.06 -2.34,-0.31 -2.29,-0.70 -2.12,-1.05 -1.95,-1.39 -1.67,-1.67 -1.40,-1.94 -1.05,-2.12 -0.70,-2.29 -0.32,-2.34 0.06,-2.39 0.44,-2.32 0.82,-2.25 1.16,-2.06 1.50,-1.87 1.76,-1.58 2.02,-1.29 2.17,-0.93 2.32,-0.58 2.32,-0.58 2.32,-0.58 2.36,-0.29 2.40,-0.00 2.36,0.27 2.33,0.56 2.23,0.83 2.12,1.10 1.96,1.34 1.80,1.58 1.58,1.77 1.37,1.97 1.11,2.10 0.85,2.24 0.57,2.31 0.29,2.38 0.00,2.38 -0.28,2.38 -0.56,2.31 -0.84,2.24 -1.10,2.11 -1.35,1.98 -1.57,1.78 -1.79,1.59 -1.95,1.36 -2.12,1.12 -2.22,0.85 -2.32,0.58 -2.28,0.57 -2.24,0.56 -2.28,0.28 -2.31,0.00 -2.28,-0.26 -2.25,-0.54 -2.15,-0.80 -2.05,-1.06 -1.89,-1.30 -1.73,-1.53 -1.53,-1.71 -1.32,-1.90 -1.07,-2.03 -0.82,-2.16 -0.55,-2.23 -0.28,-2.29 -0.00,-2.29 0.27,-2.30 0.54,-2.23 0.81,-2.16 1.06,-2.03 1.30,-1.91 1.51,-1.72 1.72,-1.54 1.88,-1.31 2.04,-1.08 2.14,-0.82 2.24,-0.56 2.24,-0.56 L 2.24,-0.56 Z"></path></g><g transform="translate(223.32417766675354 168) rotate(0 1.5 3.5)" stroke="none"><path fill="#000000" d="M 1.92,-1.28 Q 1.92,-1.28 2.54,-0.44 3.16,0.39 3.79,2.38 4.42,4.37 4.80,5.04 5.18,5.71 5.18,6.03 5.18,6.36 5.10,6.67 5.03,6.99 4.88,7.28 4.72,7.57 4.51,7.81 4.29,8.05 4.03,8.24 3.76,8.42 3.45,8.54 3.15,8.65 2.83,8.69 2.51,8.73 2.18,8.69 1.86,8.65 1.56,8.54 1.25,8.42 0.98,8.24 0.72,8.05 0.50,7.81 0.29,7.57 0.13,7.28 -0.01,6.99 -0.08,6.68 -0.16,6.36 -1.13,3.61 -2.10,0.87 -2.18,0.51 -2.27,0.15 -2.23,-0.21 -2.20,-0.57 -2.05,-0.91 -1.90,-1.25 -1.65,-1.52 -1.40,-1.79 -1.08,-1.97 -0.75,-2.14 -0.39,-2.21 -0.03,-2.27 0.33,-2.22 0.69,-2.17 1.02,-2.00 1.35,-1.83 1.61,-1.57 1.86,-1.30 2.02,-0.97 2.18,-0.64 2.23,-0.27 2.27,0.09 2.20,0.45 2.12,0.81 1.94,1.13 1.75,1.45 1.48,1.69 1.20,1.93 0.86,2.07 0.52,2.21 0.15,2.24 -0.21,2.26 -0.57,2.17 -0.92,2.08 -1.23,1.88 -1.54,1.67 -1.77,1.38 -1.99,1.09 -2.12,0.74 -2.24,0.40 -2.24,0.03 -2.25,-0.33 -2.14,-0.68 -2.02,-1.03 -1.81,-1.33 -1.59,-1.63 -1.28,-1.84 -0.98,-2.05 -0.63,-2.15 -0.27,-2.26 0.08,-2.24 0.45,-2.23 0.80,-2.10 1.14,-1.97 1.43,-1.73 1.71,-1.50 1.91,-1.18 2.10,-0.87 2.10,-0.87 2.10,-0.87 3.64,2.41 5.18,5.71 5.18,6.03 5.18,6.36 5.10,6.67 5.03,6.99 4.88,7.28 4.72,7.56 4.51,7.81 4.29,8.05 4.03,8.24 3.76,8.42 3.45,8.54 3.15,8.65 2.83,8.69 2.51,8.73 2.18,8.69 1.86,8.65 1.56,8.54 1.25,8.42 0.98,8.24 0.72,8.05 0.50,7.81 0.29,7.57 0.13,7.28 -0.01,6.99 -0.08,6.68 -0.16,6.36 -0.51,4.70 -0.86,3.05 -1.39,2.16 -1.92,1.28 -2.04,1.03 -2.17,0.78 -2.23,0.51 -2.29,0.24 -2.29,-0.03 -2.28,-0.31 -2.21,-0.58 -2.14,-0.85 -2.01,-1.09 -1.87,-1.34 -1.69,-1.54 -1.50,-1.75 -1.27,-1.90 -1.03,-2.06 -0.77,-2.15 -0.51,-2.24 -0.23,-2.27 0.03,-2.30 0.31,-2.26 0.58,-2.23 0.84,-2.12 1.10,-2.02 1.33,-1.86 1.55,-1.70 1.73,-1.49 1.92,-1.28 1.92,-1.28 L 1.92,-1.28 Z"></path></g><g transform="translate(233.32417766675354 163) rotate(0 3 1.5)" stroke="none"><path fill="#000000" d="M 0.55,-2.22 Q 0.55,-2.22 1.88,-1.86 3.21,-1.50 4.23,-0.51 5.25,0.47 5.94,0.50 6.63,0.52 6.88,0.72 7.14,0.91 7.34,1.17 7.54,1.42 7.67,1.71 7.80,2.00 7.86,2.32 7.92,2.64 7.90,2.96 7.89,3.28 7.79,3.59 7.70,3.89 7.53,4.17 7.37,4.45 7.14,4.67 6.91,4.90 6.64,5.07 6.37,5.24 6.06,5.34 5.75,5.43 5.43,5.45 5.11,5.47 4.79,5.42 4.48,5.36 4.18,5.23 3.89,5.10 1.41,3.54 -1.06,1.99 -1.35,1.77 -1.64,1.54 -1.85,1.24 -2.05,0.94 -2.15,0.58 -2.24,0.23 -2.22,-0.12 -2.20,-0.49 -2.06,-0.83 -1.93,-1.17 -1.69,-1.44 -1.45,-1.72 -1.14,-1.91 -0.82,-2.10 -0.47,-2.17 -0.11,-2.25 0.24,-2.21 0.61,-2.17 0.94,-2.02 1.27,-1.86 1.53,-1.61 1.80,-1.36 1.97,-1.03 2.14,-0.71 2.20,-0.35 2.25,0.00 2.19,0.36 2.13,0.72 1.96,1.05 1.79,1.37 1.52,1.62 1.26,1.87 0.92,2.02 0.59,2.17 0.23,2.21 -0.13,2.25 -0.48,2.17 -0.84,2.09 -1.15,1.90 -1.46,1.71 -1.70,1.43 -1.94,1.15 -2.07,0.81 -2.20,0.47 -2.22,0.11 -2.24,-0.25 -2.14,-0.60 -2.04,-0.95 -1.84,-1.25 -1.63,-1.56 -1.34,-1.78 -1.05,-2.00 -0.70,-2.11 -0.35,-2.23 0.00,-2.23 0.37,-2.22 0.71,-2.11 1.06,-1.99 1.06,-1.99 1.06,-1.99 3.84,-0.73 6.63,0.52 6.88,0.72 7.14,0.91 7.34,1.16 7.54,1.42 7.67,1.71 7.80,2.00 7.86,2.32 7.92,2.64 7.90,2.96 7.89,3.28 7.79,3.59 7.70,3.89 7.53,4.17 7.37,4.45 7.14,4.67 6.91,4.90 6.64,5.07 6.37,5.24 6.06,5.34 5.75,5.43 5.43,5.45 5.11,5.47 4.79,5.42 4.48,5.36 4.18,5.23 3.89,5.10 3.43,4.94 2.96,4.79 2.17,3.72 1.38,2.65 0.41,2.44 -0.55,2.22 -0.81,2.12 -1.07,2.02 -1.30,1.87 -1.52,1.71 -1.70,1.50 -1.89,1.29 -2.02,1.05 -2.14,0.80 -2.21,0.53 -2.27,0.26 -2.27,-0.00 -2.27,-0.28 -2.20,-0.55 -2.14,-0.82 -2.01,-1.06 -1.88,-1.30 -1.69,-1.51 -1.51,-1.72 -1.28,-1.87 -1.05,-2.03 -0.80,-2.13 -0.54,-2.22 -0.26,-2.26 0.00,-2.29 0.28,-2.26 0.55,-2.22 0.55,-2.22 L 0.55,-2.22 Z"></path></g><g transform="translate(245.32417766675354 161) rotate(0 3 1.5)" stroke="none"><path fill="#000000" d="M 0,-2.33 Q 0,-2.33 1.15,-2.37 2.3,-2.41 4.31,-1.82 6.32,-1.23 7.21,0.09 8.09,1.42 8.16,1.74 8.23,2.07 8.22,2.40 8.21,2.73 8.12,3.06 8.03,3.38 7.86,3.66 7.70,3.95 7.47,4.20 7.24,4.44 6.96,4.62 6.68,4.80 6.37,4.90 6.05,5.01 5.72,5.04 5.39,5.07 5.06,5.02 4.73,4.97 4.43,4.84 4.12,4.71 3.85,4.52 3.58,4.32 3.37,4.06 3.16,3.81 3.02,3.51 2.87,3.21 0.98,2.68 -0.90,2.15 -1.22,1.94 -1.54,1.74 -1.78,1.45 -2.02,1.16 -2.15,0.80 -2.29,0.45 -2.30,0.07 -2.31,-0.30 -2.20,-0.66 -2.09,-1.02 -1.88,-1.33 -1.66,-1.64 -1.35,-1.86 -1.05,-2.08 -0.69,-2.19 -0.33,-2.31 0.04,-2.30 0.42,-2.29 0.78,-2.16 1.13,-2.03 1.43,-1.80 1.72,-1.57 1.93,-1.25 2.13,-0.93 2.23,-0.57 2.32,-0.20 2.29,0.17 2.26,0.54 2.12,0.89 1.97,1.24 1.72,1.52 1.47,1.81 1.14,1.99 0.81,2.18 0.44,2.26 0.07,2.33 -0.29,2.28 -0.67,2.23 -1.01,2.07 -1.35,1.90 -1.61,1.63 -1.88,1.37 -2.05,1.03 -2.22,0.69 -2.28,0.32 -2.33,-0.04 -2.26,-0.41 -2.19,-0.79 -2.01,-1.12 -1.82,-1.45 -1.54,-1.70 -1.26,-1.95 -0.92,-2.11 -0.57,-2.26 -0.20,-2.29 0.17,-2.32 0.54,-2.23 0.90,-2.15 0.90,-2.15 0.90,-2.15 4.50,-0.36 8.09,1.42 8.16,1.74 8.23,2.07 8.22,2.40 8.21,2.73 8.12,3.05 8.03,3.38 7.87,3.66 7.70,3.95 7.47,4.20 7.24,4.44 6.96,4.62 6.68,4.80 6.37,4.90 6.05,5.01 5.72,5.04 5.39,5.07 5.06,5.02 4.73,4.97 4.43,4.84 4.12,4.71 3.85,4.52 3.59,4.32 3.37,4.06 3.16,3.81 3.02,3.51 2.87,3.21 2.58,2.81 2.3,2.41 1.15,2.37 0,2.33 -0.27,2.29 -0.55,2.26 -0.82,2.16 -1.08,2.06 -1.31,1.90 -1.54,1.74 -1.73,1.53 -1.91,1.32 -2.04,1.07 -2.18,0.82 -2.24,0.55 -2.31,0.28 -2.31,-0.00 -2.31,-0.28 -2.24,-0.55 -2.18,-0.82 -2.04,-1.07 -1.91,-1.32 -1.73,-1.53 -1.54,-1.74 -1.31,-1.90 -1.08,-2.06 -0.82,-2.16 -0.55,-2.26 -0.27,-2.29 0.00,-2.33 0.00,-2.33 L 0,-2.33 Z"></path></g><g transform="translate(260.32417766675354 151) rotate(0 3 6)" stroke="none"><path fill="#000000" d="M 2.36,-1.18 Q 2.36,-1.18 2.94,-0.03 3.52,1.11 4.06,2.17 4.61,3.23 5.49,5.11 6.38,6.99 7.44,8.68 8.50,10.36 8.70,10.81 8.89,11.25 8.94,11.73 8.98,12.22 8.87,12.69 8.75,13.16 8.49,13.57 8.24,13.98 7.86,14.28 7.49,14.59 7.03,14.76 6.58,14.93 6.10,14.95 5.61,14.96 5.15,14.82 4.68,14.69 4.29,14.41 3.89,14.13 3.61,13.74 3.32,13.34 3.18,12.88 3.03,12.42 3.04,11.94 3.05,11.45 3.22,11.00 3.38,10.54 3.68,10.16 3.98,9.78 4.39,9.52 4.79,9.25 5.26,9.13 5.73,9.01 6.21,9.05 6.70,9.09 7.14,9.27 7.59,9.46 7.95,9.78 8.31,10.10 8.56,10.52 8.80,10.94 8.89,11.42 8.99,11.89 8.92,12.37 8.86,12.85 8.65,13.29 8.44,13.72 8.10,14.07 7.76,14.41 7.33,14.63 6.89,14.85 6.41,14.92 5.94,14.99 5.46,14.90 4.98,14.81 4.56,14.58 4.14,14.34 3.81,13.98 3.49,13.62 3.49,13.62 3.49,13.63 2.97,12.13 2.46,10.63 1.95,9.51 1.44,8.39 0.62,7.00 -0.18,5.61 -0.70,4.55 -1.22,3.48 -1.79,2.33 -2.36,1.18 -2.47,0.88 -2.57,0.58 -2.60,0.26 -2.64,-0.05 -2.59,-0.36 -2.55,-0.68 -2.43,-0.97 -2.31,-1.27 -2.12,-1.53 -1.94,-1.79 -1.70,-1.99 -1.45,-2.20 -1.17,-2.34 -0.88,-2.48 -0.57,-2.55 -0.26,-2.62 0.05,-2.62 0.37,-2.61 0.67,-2.53 0.98,-2.45 1.26,-2.29 1.54,-2.14 1.77,-1.92 2.01,-1.71 2.18,-1.44 2.36,-1.18 2.36,-1.18 L 2.36,-1.18 Z"></path></g><g transform="translate(269.32417766675354 149) rotate(0 3.5 4)" stroke="none"><path fill="#000000" d="M 1.85,-1.85 Q 1.85,-1.85 2.71,-1.01 3.57,-0.16 4.76,0.84 5.96,1.85 6.72,3.06 7.49,4.27 8.36,5.14 9.23,6.02 9.49,6.43 9.74,6.84 9.86,7.30 9.97,7.77 9.93,8.25 9.88,8.73 9.69,9.18 9.50,9.62 9.17,9.98 8.85,10.33 8.43,10.57 8.00,10.80 7.53,10.89 7.06,10.98 6.58,10.91 6.10,10.84 5.67,10.62 5.24,10.40 4.90,10.06 4.56,9.72 4.35,9.28 4.14,8.85 4.08,8.37 4.01,7.89 4.11,7.42 4.20,6.95 4.44,6.53 4.68,6.11 5.05,5.79 5.41,5.47 5.85,5.28 6.30,5.10 6.78,5.06 7.26,5.02 7.73,5.14 8.19,5.26 8.60,5.53 9.00,5.79 9.30,6.17 9.60,6.55 9.76,7.00 9.93,7.45 9.94,7.94 9.95,8.42 9.80,8.88 9.66,9.34 9.37,9.73 9.09,10.12 8.69,10.40 8.30,10.68 7.84,10.81 7.38,10.95 6.89,10.94 6.41,10.92 5.96,10.75 5.51,10.58 5.14,10.28 4.76,9.97 4.76,9.97 4.76,9.97 3.47,8.03 2.18,6.09 1.02,4.85 -0.12,3.61 -0.99,2.73 -1.85,1.85 -2.05,1.60 -2.24,1.35 -2.37,1.06 -2.50,0.78 -2.56,0.46 -2.61,0.15 -2.59,-0.15 -2.58,-0.47 -2.48,-0.77 -2.39,-1.07 -2.22,-1.34 -2.06,-1.61 -1.84,-1.84 -1.61,-2.06 -1.34,-2.22 -1.07,-2.39 -0.77,-2.48 -0.47,-2.58 -0.15,-2.59 0.15,-2.61 0.46,-2.56 0.78,-2.50 1.06,-2.37 1.35,-2.24 1.60,-2.05 1.85,-1.85 1.85,-1.85 L 1.85,-1.85 Z"></path></g><g transform="translate(281.32417766675354 143) rotate(0 3 5.5)" stroke="none"><path fill="#000000" d="M 1.47,-2.20 Q 1.47,-2.20 2.36,-1.64 3.25,-1.07 4.20,-0.02 5.14,1.03 6.79,2.76 8.44,4.49 8.15,5.98 7.85,7.48 6.17,10.17 4.49,12.85 4.13,13.20 3.77,13.55 3.31,13.77 2.86,13.99 2.36,14.05 1.86,14.10 1.37,14.00 0.87,13.90 0.44,13.64 0.00,13.39 -0.32,13.01 -0.65,12.63 -0.84,12.16 -1.03,11.69 -1.06,11.19 -1.09,10.69 -0.96,10.20 -0.83,9.72 -0.55,9.30 -0.28,8.88 0.11,8.57 0.51,8.26 0.98,8.09 1.46,7.93 1.96,7.92 2.47,7.92 2.95,8.07 3.43,8.23 3.83,8.53 4.23,8.83 4.52,9.25 4.81,9.66 4.95,10.14 5.09,10.63 5.06,11.13 5.04,11.63 4.86,12.10 4.68,12.57 4.36,12.96 4.03,13.35 3.60,13.61 3.18,13.88 2.69,13.99 2.19,14.10 1.69,14.05 1.19,14.00 0.73,13.80 0.27,13.59 -0.09,13.25 -0.45,12.90 -0.69,12.46 -0.93,12.02 -1.02,11.52 -1.11,11.03 -1.03,10.53 -0.95,10.03 -0.72,9.58 -0.49,9.14 -0.49,9.14 -0.49,9.14 1.10,7.52 2.71,5.90 1.45,4.63 0.19,3.37 -0.63,2.79 -1.47,2.20 -1.71,2.00 -1.95,1.79 -2.14,1.53 -2.33,1.27 -2.44,0.97 -2.56,0.67 -2.61,0.35 -2.65,0.04 -2.62,-0.27 -2.58,-0.59 -2.47,-0.89 -2.37,-1.19 -2.19,-1.46 -2.01,-1.72 -1.77,-1.94 -1.54,-2.16 -1.26,-2.31 -0.98,-2.46 -0.67,-2.54 -0.36,-2.63 -0.04,-2.63 0.27,-2.64 0.58,-2.56 0.90,-2.49 1.18,-2.35 1.47,-2.20 1.47,-2.20 L 1.47,-2.20 Z"></path></g><g transform="translate(291.32417766675354 137) rotate(0 5.5 4.5)" stroke="none"><path fill="#000000" d="M 2.21,-1.47 Q 2.21,-1.47 2.78,-0.65 3.35,0.16 4.64,0.62 5.92,1.08 7.09,2.07 8.26,3.06 10.68,4.88 13.09,6.70 13.40,7.09 13.71,7.49 13.88,7.96 14.05,8.44 14.06,8.94 14.07,9.44 13.92,9.92 13.77,10.40 13.47,10.81 13.17,11.21 12.76,11.50 12.35,11.79 11.87,11.94 11.39,12.08 10.88,12.06 10.38,12.04 9.91,11.86 9.44,11.69 9.05,11.37 8.66,11.05 8.40,10.62 8.13,10.20 8.01,9.71 7.89,9.22 7.94,8.72 7.99,8.22 8.19,7.76 8.39,7.30 8.73,6.93 9.07,6.55 9.51,6.31 9.95,6.07 10.44,5.98 10.94,5.89 11.44,5.96 11.93,6.03 12.38,6.26 12.83,6.49 13.18,6.85 13.54,7.20 13.76,7.66 13.97,8.11 14.04,8.61 14.10,9.11 14.00,9.60 13.90,10.09 13.65,10.53 13.40,10.96 13.02,11.30 12.65,11.63 12.18,11.82 11.72,12.02 11.22,12.05 10.71,12.09 10.23,11.97 9.74,11.84 9.32,11.56 8.90,11.29 8.90,11.29 8.90,11.29 6.57,9.41 4.25,7.53 3.41,6.70 2.57,5.86 1.62,5.32 0.66,4.77 -0.19,4.02 -1.05,3.28 -1.63,2.38 -2.21,1.47 -2.36,1.19 -2.50,0.90 -2.57,0.59 -2.64,0.27 -2.64,-0.04 -2.63,-0.36 -2.55,-0.67 -2.47,-0.98 -2.32,-1.26 -2.16,-1.54 -1.95,-1.78 -1.73,-2.02 -1.46,-2.20 -1.19,-2.37 -0.89,-2.48 -0.59,-2.59 -0.27,-2.63 0.04,-2.66 0.36,-2.62 0.67,-2.57 0.97,-2.45 1.27,-2.33 1.53,-2.15 1.79,-1.96 2.00,-1.72 2.21,-1.47 2.21,-1.47 L 2.21,-1.47 Z"></path></g><g transform="translate(304.32417766675354 134) rotate(0 5 2)" stroke="none"><path fill="#000000" d="M 0.50,-2.51 Q 0.50,-2.51 1.94,-2.20 3.38,-1.90 4.56,-1.44 5.74,-0.98 8.77,0.41 11.80,1.80 12.11,2.15 12.41,2.50 12.58,2.92 12.76,3.34 12.79,3.80 12.82,4.26 12.71,4.71 12.59,5.15 12.34,5.53 12.09,5.92 11.72,6.20 11.36,6.49 10.93,6.64 10.50,6.79 10.04,6.80 9.58,6.80 9.14,6.66 8.70,6.52 8.33,6.25 7.96,5.98 7.70,5.60 7.43,5.22 7.30,4.78 7.18,4.34 7.19,3.88 7.21,3.42 7.38,2.99 7.54,2.57 7.83,2.21 8.12,1.86 8.52,1.61 8.91,1.37 9.35,1.27 9.80,1.16 10.26,1.20 10.72,1.25 11.14,1.43 11.56,1.62 11.89,1.93 12.23,2.24 12.45,2.65 12.67,3.05 12.75,3.50 12.84,3.95 12.77,4.41 12.70,4.86 12.49,5.27 12.28,5.68 11.95,6.00 11.62,6.32 11.21,6.52 10.79,6.72 10.34,6.78 9.88,6.83 9.43,6.74 8.98,6.65 8.58,6.42 8.19,6.19 8.19,6.19 8.19,6.19 6.76,5.27 5.33,4.35 3.84,3.70 2.36,3.05 0.93,2.78 -0.50,2.51 -0.79,2.41 -1.08,2.31 -1.35,2.15 -1.61,1.99 -1.82,1.76 -2.04,1.54 -2.19,1.28 -2.35,1.01 -2.43,0.71 -2.52,0.42 -2.54,0.11 -2.55,-0.19 -2.49,-0.49 -2.43,-0.80 -2.30,-1.08 -2.17,-1.36 -1.97,-1.60 -1.78,-1.84 -1.53,-2.02 -1.28,-2.21 -1.00,-2.33 -0.72,-2.45 -0.41,-2.50 -0.11,-2.55 0.19,-2.53 0.50,-2.51 0.50,-2.51 L 0.50,-2.51 Z"></path></g><g transform="translate(318.32417766675354 127) rotate(0 2 3.5)" stroke="none"><path fill="#000000" d="M 0.81,-2.44 Q 0.81,-2.44 1.69,-2.19 2.58,-1.93 3.23,-1.56 3.89,-1.19 4.19,-1.05 4.49,-0.91 4.74,-0.70 5.00,-0.50 5.20,-0.23 5.40,0.02 5.53,0.32 5.65,0.63 5.71,0.95 5.76,1.28 5.73,1.61 5.71,1.94 5.60,2.25 5.50,2.56 5.32,2.84 5.15,3.12 4.91,3.35 4.67,3.57 4.39,3.74 4.10,3.90 3.78,4.00 3.47,4.09 3.14,4.10 2.81,4.12 2.49,4.05 2.16,3.98 0.63,2.64 -0.89,1.30 -0.88,0.96 -0.86,0.63 -0.77,0.31 -0.68,-0.00 -0.52,-0.29 -0.35,-0.57 -0.12,-0.82 0.10,-1.06 0.38,-1.23 0.66,-1.41 0.98,-1.52 1.29,-1.63 1.62,-1.65 1.95,-1.68 2.28,-1.63 2.61,-1.58 2.92,-1.45 3.22,-1.32 3.49,-1.12 3.76,-0.92 3.97,-0.66 4.18,-0.41 4.32,-0.11 4.47,0.18 4.53,0.51 4.60,0.84 2.72,-0.28 0.84,-1.40 2.44,-1.08 4.04,-0.75 4.90,0.62 5.75,2.01 5.85,3.11 5.96,4.22 5.98,5.00 6.00,5.78 5.97,6.14 5.93,6.50 5.81,6.85 5.69,7.19 5.49,7.49 5.29,7.79 5.02,8.04 4.75,8.29 4.43,8.46 4.12,8.64 3.76,8.73 3.41,8.83 3.05,8.84 2.69,8.84 2.33,8.76 1.98,8.68 1.65,8.52 1.33,8.36 1.05,8.12 0.77,7.89 0.56,7.59 0.35,7.30 0.21,6.96 0.08,6.62 0.02,6.26 -0.02,5.90 -1.15,3.53 -2.28,1.17 -2.41,0.77 -2.53,0.37 -2.53,-0.03 -2.52,-0.45 -2.38,-0.84 -2.25,-1.23 -1.99,-1.56 -1.73,-1.88 -1.39,-2.11 -1.04,-2.34 -0.64,-2.45 -0.24,-2.55 0.17,-2.52 0.58,-2.49 0.97,-2.34 1.35,-2.18 1.66,-1.90 1.98,-1.63 2.18,-1.27 2.39,-0.91 2.48,-0.50 2.56,-0.10 2.51,0.31 2.46,0.72 2.28,1.09 2.10,1.47 1.81,1.76 1.52,2.06 1.15,2.25 0.78,2.44 0.37,2.50 -0.03,2.56 -0.44,2.49 -0.85,2.42 -1.21,2.22 -1.58,2.02 -1.86,1.71 -2.14,1.41 -2.31,1.03 -2.48,0.65 -2.52,0.23 -2.56,-0.17 -2.46,-0.58 -2.37,-0.98 -2.15,-1.33 -1.93,-1.69 -1.61,-1.95 -1.29,-2.21 -0.90,-2.36 -0.51,-2.51 -0.10,-2.53 0.31,-2.54 0.71,-2.43 1.11,-2.31 1.45,-2.07 1.79,-1.83 2.03,-1.50 2.28,-1.16 2.28,-1.16 2.28,-1.17 4.14,2.30 6.00,5.78 5.97,6.14 5.93,6.50 5.81,6.85 5.69,7.19 5.49,7.49 5.29,7.79 5.02,8.04 4.75,8.29 4.43,8.46 4.12,8.64 3.77,8.73 3.41,8.83 3.05,8.84 2.69,8.84 2.33,8.76 1.98,8.68 1.65,8.52 1.33,8.36 1.05,8.12 0.77,7.89 0.56,7.59 0.35,7.30 0.21,6.96 0.08,6.62 0.02,6.26 -0.02,5.90 0.11,4.30 0.24,2.71 1.63,3.09 3.03,3.46 1.06,2.38 -0.89,1.30 -0.88,0.97 -0.86,0.63 -0.77,0.31 -0.68,-0.00 -0.52,-0.29 -0.35,-0.57 -0.12,-0.81 0.10,-1.06 0.38,-1.23 0.66,-1.41 0.97,-1.52 1.29,-1.63 1.62,-1.65 1.95,-1.68 2.28,-1.63 2.61,-1.58 2.92,-1.45 3.22,-1.32 3.49,-1.12 3.76,-0.92 3.97,-0.66 4.18,-0.41 4.32,-0.11 4.47,0.18 4.53,0.51 4.60,0.84 4.25,-0.17 3.89,-1.20 4.19,-1.05 4.49,-0.91 4.74,-0.70 5.00,-0.50 5.20,-0.23 5.40,0.02 5.53,0.32 5.65,0.63 5.71,0.95 5.76,1.28 5.73,1.61 5.71,1.93 5.60,2.25 5.50,2.56 5.32,2.84 5.15,3.12 4.91,3.35 4.67,3.57 4.39,3.74 4.10,3.90 3.78,4.00 3.47,4.09 3.14,4.10 2.81,4.12 2.49,4.05 2.16,3.98 1.51,3.53 0.86,3.08 0.02,2.76 -0.81,2.44 -1.09,2.31 -1.37,2.17 -1.61,1.98 -1.85,1.78 -2.04,1.53 -2.23,1.28 -2.35,1.00 -2.47,0.71 -2.52,0.41 -2.57,0.10 -2.54,-0.20 -2.52,-0.51 -2.42,-0.80 -2.32,-1.10 -2.16,-1.36 -1.99,-1.62 -1.77,-1.84 -1.54,-2.05 -1.27,-2.21 -1.01,-2.36 -0.71,-2.45 -0.41,-2.54 -0.10,-2.55 0.20,-2.56 0.51,-2.50 0.81,-2.44 0.81,-2.44 L 0.81,-2.44 Z"></path></g><g transform="translate(328.32417766675354 122) rotate(0 3.5 5)" stroke="none"><path fill="#000000" d="M 1.58,-2.11 Q 1.58,-2.11 2.73,-1.23 3.89,-0.34 4.67,0.55 5.45,1.44 6.34,2.34 7.24,3.23 8.61,6.45 9.99,9.66 9.96,10.15 9.93,10.64 9.76,11.09 9.58,11.54 9.26,11.91 8.95,12.28 8.53,12.54 8.11,12.79 7.64,12.89 7.16,13.00 6.68,12.95 6.20,12.90 5.75,12.69 5.31,12.49 4.96,12.15 4.60,11.82 4.37,11.39 4.15,10.96 4.07,10.48 3.99,10.00 4.06,9.52 4.14,9.04 4.37,8.61 4.60,8.18 4.95,7.84 5.30,7.51 5.74,7.30 6.18,7.10 6.67,7.04 7.15,6.99 7.63,7.09 8.10,7.20 8.52,7.45 8.94,7.70 9.25,8.07 9.57,8.44 9.75,8.89 9.93,9.34 9.96,9.83 9.99,10.32 9.86,10.78 9.73,11.25 9.46,11.66 9.18,12.06 8.80,12.36 8.41,12.65 7.95,12.81 7.49,12.96 7.00,12.96 6.51,12.96 6.05,12.81 5.59,12.66 5.20,12.36 4.81,12.07 4.54,11.67 4.27,11.26 4.14,10.79 4.00,10.33 4.00,10.33 4.00,10.33 3.46,8.68 2.91,7.03 1.81,5.41 0.70,3.79 -0.43,2.95 -1.58,2.11 -1.81,1.89 -2.04,1.67 -2.22,1.40 -2.39,1.13 -2.49,0.83 -2.59,0.53 -2.62,0.21 -2.64,-0.10 -2.59,-0.41 -2.54,-0.73 -2.41,-1.02 -2.29,-1.32 -2.10,-1.57 -1.91,-1.83 -1.66,-2.03 -1.41,-2.23 -1.12,-2.37 -0.84,-2.51 -0.52,-2.57 -0.21,-2.63 0.10,-2.62 0.42,-2.61 0.72,-2.52 1.03,-2.43 1.31,-2.27 1.58,-2.11 1.58,-2.11 L 1.58,-2.11 Z"></path></g><g transform="translate(340.32417766675354 110) rotate(0 3.5 4.5)" stroke="none"><path fill="#000000" d="M 1.85,-1.85 Q 1.85,-1.85 2.73,-0.98 3.61,-0.12 4.22,0.79 4.84,1.71 5.29,3.01 5.75,4.30 7.25,5.46 8.74,6.61 9.08,6.95 9.41,7.29 9.62,7.72 9.83,8.16 9.89,8.63 9.95,9.10 9.86,9.57 9.76,10.04 9.52,10.46 9.28,10.87 8.92,11.19 8.56,11.50 8.12,11.69 7.68,11.87 7.20,11.91 6.73,11.94 6.26,11.82 5.80,11.70 5.40,11.44 5.00,11.18 4.70,10.80 4.41,10.42 4.25,9.97 4.08,9.52 4.08,9.04 4.07,8.57 4.21,8.11 4.36,7.65 4.64,7.27 4.92,6.88 5.32,6.61 5.71,6.33 6.17,6.20 6.63,6.06 7.10,6.08 7.58,6.10 8.03,6.27 8.48,6.44 8.85,6.74 9.22,7.04 9.47,7.45 9.72,7.85 9.83,8.32 9.95,8.78 9.90,9.26 9.86,9.74 9.66,10.18 9.47,10.61 9.15,10.97 8.82,11.32 8.41,11.55 7.99,11.78 7.52,11.87 7.04,11.95 6.57,11.88 6.10,11.81 5.67,11.60 5.24,11.38 5.25,11.38 5.25,11.38 4.28,10.06 3.32,8.74 2.26,8.01 1.19,7.28 0.51,5.42 -0.16,3.57 -1.00,2.71 -1.85,1.85 -2.04,1.60 -2.24,1.35 -2.37,1.06 -2.50,0.77 -2.55,0.46 -2.61,0.15 -2.59,-0.15 -2.57,-0.47 -2.48,-0.77 -2.38,-1.07 -2.22,-1.34 -2.06,-1.61 -1.83,-1.83 -1.61,-2.06 -1.34,-2.22 -1.07,-2.39 -0.77,-2.48 -0.47,-2.57 -0.15,-2.59 0.15,-2.61 0.46,-2.55 0.77,-2.50 1.06,-2.37 1.35,-2.24 1.60,-2.04 1.85,-1.85 1.85,-1.85 L 1.85,-1.85 Z"></path></g><g transform="translate(351.32417766675354 106) rotate(0 3.5 3.5)" stroke="none"><path fill="#000000" d="M 1.43,-2.15 Q 1.43,-2.15 2.34,-1.58 3.25,-1.01 3.98,-0.17 4.71,0.65 5.57,1.50 6.42,2.34 7.60,3.50 8.77,4.66 9.09,5.00 9.42,5.34 9.62,5.78 9.82,6.21 9.87,6.68 9.93,7.15 9.82,7.61 9.72,8.08 9.48,8.48 9.23,8.89 8.87,9.20 8.51,9.51 8.07,9.68 7.63,9.86 7.16,9.89 6.68,9.91 6.22,9.79 5.77,9.66 5.37,9.39 4.98,9.13 4.69,8.75 4.40,8.37 4.25,7.92 4.10,7.47 4.10,7.00 4.10,6.52 4.25,6.07 4.40,5.62 4.69,5.25 4.97,4.87 5.37,4.60 5.76,4.33 6.22,4.21 6.67,4.08 7.15,4.10 7.62,4.13 8.06,4.30 8.50,4.48 8.87,4.79 9.23,5.09 9.47,5.50 9.72,5.91 9.82,6.37 9.93,6.83 9.87,7.30 9.82,7.78 9.62,8.21 9.43,8.64 9.10,8.98 8.77,9.33 8.35,9.55 7.93,9.77 7.47,9.85 7.00,9.93 6.53,9.85 6.06,9.78 5.64,9.55 5.22,9.33 5.22,9.33 5.22,9.33 3.69,7.74 2.16,6.16 1.18,4.73 0.19,3.31 -0.61,2.73 -1.43,2.15 -1.67,1.95 -1.91,1.75 -2.09,1.49 -2.27,1.24 -2.39,0.95 -2.50,0.66 -2.55,0.35 -2.59,0.04 -2.56,-0.26 -2.52,-0.58 -2.42,-0.87 -2.31,-1.16 -2.14,-1.42 -1.96,-1.68 -1.73,-1.90 -1.50,-2.11 -1.23,-2.26 -0.95,-2.41 -0.65,-2.49 -0.35,-2.57 -0.04,-2.57 0.27,-2.58 0.57,-2.51 0.88,-2.44 1.16,-2.29 1.43,-2.15 1.43,-2.15 L 1.43,-2.15 Z"></path></g><g transform="translate(364.32417766675354 100) rotate(0 3 4)" stroke="none"><path fill="#000000" d="M 1.53,-2.05 Q 1.53,-2.05 2.69,-1.17 3.84,-0.29 4.62,0.59 5.40,1.48 6.07,2.56 6.73,3.63 7.53,4.99 8.33,6.35 8.53,6.77 8.73,7.18 8.79,7.64 8.85,8.10 8.76,8.55 8.67,9.01 8.43,9.41 8.20,9.81 7.86,10.11 7.51,10.42 7.08,10.59 6.66,10.77 6.20,10.81 5.74,10.84 5.29,10.72 4.84,10.61 4.45,10.35 4.07,10.10 3.78,9.74 3.50,9.38 3.34,8.94 3.19,8.51 3.18,8.04 3.17,7.58 3.31,7.14 3.45,6.70 3.72,6.33 4.00,5.96 4.37,5.69 4.75,5.42 5.19,5.29 5.64,5.16 6.10,5.18 6.56,5.20 6.99,5.36 7.42,5.52 7.78,5.82 8.14,6.11 8.38,6.50 8.63,6.89 8.74,7.34 8.84,7.79 8.80,8.25 8.76,8.71 8.57,9.13 8.39,9.56 8.07,9.90 7.76,10.24 7.36,10.46 6.95,10.69 6.50,10.77 6.04,10.85 5.59,10.78 5.13,10.72 4.72,10.51 4.31,10.30 3.98,9.97 3.66,9.64 3.66,9.64 3.66,9.64 2.90,8.22 2.15,6.80 1.45,5.27 0.75,3.74 -0.39,2.89 -1.53,2.05 -1.76,1.83 -1.98,1.62 -2.14,1.36 -2.31,1.10 -2.41,0.80 -2.51,0.51 -2.53,0.20 -2.56,-0.10 -2.51,-0.40 -2.46,-0.71 -2.34,-0.99 -2.22,-1.27 -2.03,-1.52 -1.85,-1.77 -1.61,-1.96 -1.37,-2.16 -1.09,-2.29 -0.81,-2.43 -0.51,-2.49 -0.20,-2.55 0.10,-2.54 0.40,-2.53 0.70,-2.44 1.00,-2.35 1.27,-2.20 1.53,-2.05 1.53,-2.05 L 1.53,-2.05 Z"></path></g><g transform="translate(376.32417766675354 80) rotate(0 -4 5)" stroke="none"><path fill="#000000" d="M 1.47,2.21 Q 1.47,2.21 0.62,2.81 -0.21,3.41 -1.24,4.01 -2.26,4.61 -3.92,5.14 -5.59,5.67 -5.23,7.84 -4.86,10.01 -4.95,10.51 -5.04,11.01 -5.28,11.46 -5.52,11.90 -5.89,12.25 -6.25,12.60 -6.72,12.81 -7.18,13.02 -7.68,13.07 -8.18,13.12 -8.68,13.01 -9.17,12.90 -9.60,12.63 -10.04,12.37 -10.36,11.98 -10.69,11.59 -10.87,11.12 -11.06,10.65 -11.08,10.14 -11.10,9.64 -10.97,9.15 -10.83,8.66 -10.54,8.25 -10.25,7.83 -9.85,7.52 -9.44,7.22 -8.96,7.06 -8.48,6.90 -7.98,6.91 -7.47,6.91 -6.99,7.07 -6.51,7.24 -6.11,7.55 -5.71,7.86 -5.43,8.28 -5.15,8.70 -5.01,9.19 -4.88,9.68 -4.91,10.18 -4.94,10.69 -5.13,11.16 -5.32,11.63 -5.65,12.01 -5.98,12.39 -6.42,12.65 -6.86,12.91 -7.35,13.02 -7.85,13.12 -8.35,13.06 -8.85,13.01 -9.31,12.79 -9.77,12.57 -10.13,12.22 -10.50,11.87 -10.73,11.42 -10.97,10.97 -11.05,10.47 -11.13,9.97 -11.13,9.97 -11.13,9.98 -11.07,8.00 -11.02,6.02 -10.67,4.50 -10.32,2.99 -9.61,2.07 -8.89,1.16 -7.38,0.57 -5.86,-0.01 -4.54,-0.56 -3.23,-1.11 -2.35,-1.66 -1.47,-2.21 -1.19,-2.36 -0.90,-2.50 -0.59,-2.57 -0.27,-2.64 0.04,-2.64 0.36,-2.63 0.67,-2.55 0.98,-2.47 1.26,-2.32 1.54,-2.16 1.78,-1.95 2.02,-1.73 2.19,-1.46 2.37,-1.19 2.48,-0.89 2.59,-0.59 2.62,-0.27 2.66,0.04 2.61,0.36 2.57,0.67 2.45,0.97 2.33,1.27 2.15,1.53 1.96,1.79 1.72,2.00 1.47,2.21 1.47,2.21 L 1.47,2.21 Z"></path></g><g transform="translate(364.32417766675354 77) rotate(0 -2 3)" stroke="none"><path fill="#000000" d="M 2.26,0.56 Q 2.26,0.56 1.99,1.77 1.71,2.98 1.12,3.94 0.53,4.89 -0.17,5.79 -0.87,6.70 -1.03,6.99 -1.19,7.28 -1.41,7.53 -1.64,7.78 -1.92,7.96 -2.19,8.15 -2.51,8.26 -2.82,8.38 -3.15,8.41 -3.48,8.45 -3.81,8.40 -4.14,8.36 -4.45,8.24 -4.76,8.11 -5.04,7.92 -5.31,7.73 -5.53,7.48 -5.74,7.22 -5.89,6.93 -6.05,6.63 -6.12,6.30 -6.20,5.98 -6.19,5.65 -6.19,5.31 -6.10,4.99 -6.02,4.67 -4.01,1.72 -2.00,-1.21 -1.75,-1.50 -1.51,-1.79 -1.18,-1.98 -0.86,-2.18 -0.48,-2.26 -0.11,-2.34 0.25,-2.30 0.63,-2.25 0.98,-2.09 1.32,-1.93 1.59,-1.67 1.87,-1.41 2.05,-1.07 2.22,-0.74 2.28,-0.36 2.34,0.00 2.28,0.38 2.22,0.75 2.04,1.09 1.86,1.42 1.58,1.68 1.30,1.94 0.96,2.10 0.61,2.26 0.24,2.30 -0.13,2.34 -0.50,2.25 -0.87,2.17 -1.20,1.97 -1.52,1.78 -1.77,1.49 -2.01,1.20 -2.15,0.84 -2.29,0.49 -2.31,0.11 -2.33,-0.26 -2.22,-0.62 -2.12,-0.99 -1.91,-1.30 -1.69,-1.62 -1.39,-1.84 -1.09,-2.07 -0.73,-2.19 -0.37,-2.31 0.00,-2.31 0.38,-2.31 0.74,-2.19 1.10,-2.06 1.40,-1.83 1.71,-1.60 1.92,-1.29 2.13,-0.97 2.23,-0.61 2.33,-0.24 2.31,0.13 2.29,0.51 2.14,0.86 2.00,1.21 2.00,1.21 2.00,1.21 0.56,3.95 -0.87,6.70 -1.03,6.99 -1.19,7.28 -1.41,7.53 -1.64,7.78 -1.92,7.96 -2.19,8.15 -2.51,8.26 -2.82,8.38 -3.15,8.41 -3.48,8.45 -3.81,8.40 -4.14,8.36 -4.45,8.24 -4.76,8.12 -5.04,7.92 -5.31,7.73 -5.53,7.48 -5.74,7.22 -5.89,6.93 -6.05,6.63 -6.12,6.31 -6.20,5.98 -6.19,5.65 -6.19,5.31 -6.10,4.99 -6.02,4.67 -5.49,4.32 -4.96,3.97 -3.91,2.79 -2.86,1.61 -2.56,0.52 -2.26,-0.56 -2.16,-0.82 -2.06,-1.09 -1.90,-1.32 -1.74,-1.55 -1.53,-1.74 -1.31,-1.92 -1.07,-2.05 -0.82,-2.18 -0.54,-2.25 -0.27,-2.31 0.00,-2.31 0.28,-2.31 0.56,-2.24 0.83,-2.18 1.08,-2.04 1.33,-1.91 1.54,-1.72 1.75,-1.54 1.91,-1.31 2.07,-1.07 2.17,-0.81 2.26,-0.55 2.30,-0.27 2.33,0.00 2.29,0.28 2.26,0.56 2.26,0.56 L 2.26,0.56 Z"></path></g></svg>