<svg version="1.1" xmlns="http://www.w3.org/2000/svg" viewBox="0 0 483.0001 272" width="483.0001" height="272">
  <!-- svg-source:excalidraw -->
  
  <defs>
    <style class="style-fonts">
      @font-face {
        font-family: "Virgil";
        src: url("https://excalidraw.com/Virgil.woff2");
      }
      @font-face {
        font-family: "Cascadia";
        src: url("https://excalidraw.com/Cascadia.woff2");
      }
    </style>
  </defs>
  <g stroke-linecap="round" transform="translate(10 10) rotate(0 156 126)"><path d="M30.58 -0.82 L281.33 1.89 L295.89 3.31 L302.79 6.78 L308.62 18.45 L313.23 30.23 L312.77 218.61 L308.87 233.56 L305.75 243.38 L295.35 251.62 L280.44 251.9 L33.76 250.85 L19.15 248.89 L8.63 245.23 L3.61 234.62 L1.92 218.32 L1.51 23.42 L3.03 17.24 L7.97 9.2 L18.79 2.67 L32.54 0.4" stroke="none" stroke-width="0" fill="#000000"></path><path d="M32 0 M32 0 C99.22 0.84, 169.27 3.39, 280 0 M32 0 C121.07 0.05, 211.51 0.49, 280 0 M280 0 C299.71 0.4, 313.34 11.17, 312 32 M280 0 C301.51 1.54, 313.27 9.19, 312 32 M312 32 C315.62 70.44, 315.31 109.67, 312 220 M312 32 C313.07 81.99, 312.68 131.78, 312 220 M312 220 C312.35 240.55, 300.31 251.98, 280 252 M312 220 C313.92 243.49, 301.43 251.6, 280 252 M280 252 C184.4 251.84, 87.52 250.15, 32 252 M280 252 C214.24 252.22, 149.78 253.12, 32 252 M32 252 C9.83 250.13, 0.68 239.61, 0 220 M32 252 C8.48 254.04, 0.64 241.56, 0 220 M0 220 C-1.6 150.58, -2.54 77.44, 0 32 M0 220 C1.6 180.36, 1.55 141.35, 0 32 M0 32 C-1.94 11.12, 11.06 1.83, 32 0 M0 32 C-0.62 9.75, 8.39 -1.3, 32 0" stroke="#000000" stroke-width="1" fill="none"></path></g><g transform="translate(473 206) rotate(0 0.00004999999998744897 0.00004999999998744897)" stroke="none"><path fill="#fff" d="M 1.57,-1.57 Q 1.57,-1.57 1.77,-1.27 1.98,-0.98 2.09,-0.64 2.20,-0.29 2.19,0.05 2.18,0.41 2.05,0.75 1.93,1.09 1.70,1.37 1.48,1.65 1.18,1.84 0.87,2.04 0.52,2.12 0.18,2.21 -0.17,2.18 -0.53,2.15 -0.86,2.01 -1.19,1.87 -1.46,1.63 -1.73,1.39 -1.90,1.07 -2.08,0.76 -2.15,0.41 -2.21,0.05 -2.17,-0.29 -2.12,-0.65 -1.96,-0.97 -1.80,-1.29 -1.54,-1.54 -1.29,-1.80 -0.97,-1.96 -0.65,-2.12 -0.29,-2.17 0.06,-2.21 0.41,-2.15 0.76,-2.08 1.07,-1.90 1.39,-1.73 1.63,-1.46 1.87,-1.19 2.01,-0.86 2.15,-0.53 2.18,-0.17 2.21,0.18 2.12,0.52 2.03,0.87 1.84,1.18 1.65,1.48 1.37,1.70 1.09,1.93 0.75,2.05 0.41,2.18 0.05,2.19 -0.30,2.20 -0.64,2.09 -0.98,1.98 -1.27,1.77 -1.57,1.56 -1.57,1.57 -1.57,1.57 -1.73,1.35 -1.90,1.14 -2.01,0.90 -2.12,0.66 -2.16,0.39 -2.21,0.13 -2.20,-0.13 -2.18,-0.40 -2.10,-0.65 -2.02,-0.91 -1.88,-1.14 -1.74,-1.36 -1.55,-1.55 -1.36,-1.74 -1.14,-1.88 -0.91,-2.02 -0.65,-2.10 -0.40,-2.18 -0.13,-2.20 0.13,-2.21 0.39,-2.16 0.66,-2.12 0.90,-2.01 1.14,-1.90 1.35,-1.73 1.57,-1.57 1.57,-1.57 L 1.57,-1.57 Z"></path></g><g transform="translate(79 67) rotate(0 16 14)" stroke="none"><path fill="#fff" d="M 10.17,0.67 Q 10.17,0.67 10.01,4.99 9.85,9.32 9.98,14.05 10.12,18.78 15.35,17.52 20.59,16.26 19.32,11.38 18.05,6.50 21.25,9.63 24.44,12.75 29.47,10.00 34.51,7.24 29.86,4.81 25.22,2.39 29.96,3.35 34.71,4.32 34.62,4.31 34.54,4.30 36.24,4.84 37.95,5.38 39.48,6.31 41.00,7.24 42.26,8.50 43.52,9.77 44.44,11.30 45.36,12.84 45.89,14.55 46.42,16.25 46.52,18.04 46.62,19.82 46.30,21.58 45.97,23.34 45.23,24.97 44.49,26.59 43.39,28.00 42.28,29.40 40.87,30.50 39.46,31.60 37.83,32.33 36.19,33.06 34.43,33.37 32.67,33.69 30.89,33.58 29.11,33.46 23.06,30.87 17.01,28.28 12.44,23.57 7.88,18.86 2.49,14.89 -2.90,10.93 -3.51,6.58 -4.12,2.24 -1.99,-4.36 0.12,-10.97 5.14,-14.20 10.16,-17.43 14.68,-17.85 19.19,-18.26 23.96,-18.26 28.73,-18.26 35.38,-15.26 42.03,-12.27 44.08,-7.19 46.12,-2.11 45.57,2.42 45.01,6.97 44.14,9.28 43.28,11.60 41.71,13.53 40.15,15.45 38.06,16.77 35.96,18.09 33.56,18.67 31.15,19.26 28.68,19.04 26.22,18.83 23.95,17.84 21.68,16.84 19.84,15.18 18.01,13.51 16.80,11.35 15.60,9.19 15.15,6.76 14.69,4.32 15.04,1.87 15.39,-0.57 16.50,-2.78 17.62,-5.00 19.38,-6.74 21.14,-8.48 23.36,-9.57 25.59,-10.65 28.04,-10.97 30.50,-11.29 32.93,-10.81 35.36,-10.33 37.51,-9.10 39.65,-7.87 41.30,-6.01 42.94,-4.16 43.90,-1.88 44.87,0.39 45.06,2.86 45.24,5.33 44.63,7.73 44.02,10.13 42.67,12.21 41.33,14.28 39.39,15.82 37.45,17.36 35.12,18.20 32.79,19.04 30.31,19.10 27.84,19.15 25.48,18.41 23.11,17.67 21.11,16.21 19.11,14.75 17.67,12.73 16.24,10.71 15.53,8.34 14.82,5.97 14.90,3.50 14.98,1.02 14.98,1.02 14.98,1.02 17.06,4.22 19.14,7.42 23.09,9.83 27.03,12.25 22.05,12.22 17.07,12.20 20.62,9.76 24.17,7.33 23.70,2.13 23.24,-3.06 19.13,-5.02 15.02,-6.97 19.40,-6.17 23.78,-5.37 29.16,-0.53 34.54,4.30 36.24,4.84 37.95,5.38 39.47,6.31 41.00,7.24 42.26,8.50 43.52,9.77 44.44,11.30 45.36,12.84 45.89,14.54 46.42,16.25 46.52,18.04 46.62,19.82 46.30,21.58 45.97,23.34 45.23,24.96 44.49,26.59 43.39,28.00 42.28,29.40 40.87,30.50 39.46,31.60 37.83,32.33 36.19,33.06 34.44,33.37 32.68,33.69 30.89,33.58 29.11,33.46 28.79,33.30 28.48,33.15 23.98,32.25 19.48,31.35 14.03,27.60 8.58,23.85 6.49,16.90 4.41,9.96 5.52,4.16 6.63,-1.62 10.97,-6.05 15.32,-10.47 21.49,-12.82 27.66,-15.17 32.70,-13.65 37.74,-12.13 41.34,-6.73 44.94,-1.33 45.40,4.35 45.86,10.05 45.66,15.10 45.45,20.15 44.22,25.55 42.98,30.96 39.88,35.23 36.79,39.51 30.22,41.74 23.65,43.96 18.85,42.19 14.05,40.41 9.39,39.56 4.74,38.70 0.27,36.12 -4.18,33.53 -7.07,30.13 -9.96,26.73 -10.96,21.60 -11.95,16.48 -11.48,12.20 -11.00,7.92 -10.59,3.62 -10.17,-0.67 -9.94,-1.88 -9.71,-3.09 -9.20,-4.21 -8.69,-5.33 -7.93,-6.29 -7.16,-7.25 -6.19,-8.00 -5.22,-8.76 -4.09,-9.25 -2.97,-9.75 -1.76,-9.97 -0.55,-10.18 0.67,-10.10 1.90,-10.02 3.07,-9.64 4.24,-9.27 5.29,-8.63 6.34,-7.99 7.20,-7.11 8.06,-6.24 8.69,-5.18 9.32,-4.12 9.68,-2.95 10.04,-1.77 10.11,-0.54 10.17,0.67 10.17,0.67 L 10.17,0.67 Z"></path></g><g transform="translate(79 136) rotate(0 15.5 39)" stroke="none"><path fill="#fff" d="M 0,-10.04 Q 0,-10.04 3.44,-10.22 6.89,-10.41 11.33,-10.77 15.77,-11.14 20.00,-11.52 24.24,-11.90 29.45,-10.87 34.65,-9.84 39.95,-7.44 45.26,-5.04 46.53,-0.39 47.81,4.25 48.81,9.52 49.80,14.79 49.14,20.47 48.48,26.14 46.36,31.88 44.23,37.62 44.73,42.93 45.23,48.24 45.33,53.09 45.44,57.94 45.03,63.76 44.63,69.58 41.68,76.17 38.74,82.76 31.94,86.06 25.13,89.35 20.76,89.60 16.39,89.85 11.74,88.77 7.08,87.69 2.54,82.01 -1.99,76.33 -2.44,71.89 -2.90,67.46 -2.49,62.63 -2.08,57.81 -1.41,53.19 -0.75,48.58 -1.70,43.35 -2.65,38.12 -3.39,32.78 -4.13,27.44 -3.34,22.80 -2.55,18.15 -0.25,13.91 2.04,9.66 0.42,13.90 -1.20,18.14 1.06,23.13 3.33,28.12 11.33,24.95 19.33,21.79 19.53,27.43 19.73,33.07 19.17,40.32 18.60,47.56 19.52,52.57 20.45,57.57 21.90,62.43 23.34,67.28 24.17,69.16 25.00,71.05 24.97,72.92 24.93,74.79 24.45,76.61 23.97,78.42 23.08,80.06 22.18,81.71 20.91,83.09 19.64,84.47 18.08,85.51 16.52,86.54 14.76,87.18 12.99,87.81 11.13,88.01 9.27,88.20 7.41,87.94 5.55,87.68 3.81,86.99 2.07,86.29 0.55,85.20 -0.97,84.11 -2.18,82.69 -3.40,81.26 -4.24,79.59 -5.09,77.91 -5.50,76.09 -5.92,74.26 -6.61,69.26 -7.31,64.25 -7.81,59.87 -8.31,55.49 -7.89,51.07 -7.46,46.66 -4.01,49.37 -0.56,52.07 -4.45,48.04 -8.34,44.00 -8.79,39.11 -9.24,34.22 -11.70,30.18 -14.17,26.15 -9.48,30.40 -4.80,34.65 -9.05,34.47 -13.30,34.30 -16.14,30.94 -18.97,27.58 -19.71,23.35 -20.45,19.12 -20.47,14.69 -20.49,10.27 -20.50,7.60 -20.51,4.93 -20.28,3.08 -20.06,1.22 -19.40,-0.52 -18.73,-2.27 -17.67,-3.81 -16.61,-5.35 -15.21,-6.59 -13.81,-7.83 -12.15,-8.70 -10.50,-9.56 -8.68,-10.01 -6.86,-10.46 -4.99,-10.46 -3.12,-10.46 -1.31,-10.01 0.50,-9.56 2.15,-8.69 3.81,-7.83 5.21,-6.59 6.61,-5.35 7.67,-3.81 8.73,-2.27 9.40,-0.52 10.06,1.22 10.28,3.08 10.51,4.93 10.43,10.58 10.35,16.23 10.34,21.12 10.32,26.02 10.35,30.82 10.37,35.62 10.38,40.00 10.39,44.38 12.12,48.71 13.85,53.04 18.22,56.35 22.58,59.67 26.30,62.64 30.01,65.61 25.73,64.42 21.45,63.23 23.36,59.34 25.27,55.45 22.43,59.12 19.59,62.79 17.70,56.86 15.81,50.93 16.02,48.54 16.24,46.15 15.68,44.39 15.13,42.63 15.01,40.79 14.89,38.95 15.22,37.13 15.54,35.31 16.30,33.63 17.05,31.94 18.18,30.49 19.31,29.03 20.76,27.89 22.21,26.74 23.89,25.98 25.57,25.22 27.39,24.88 29.20,24.54 31.04,24.64 32.89,24.75 34.65,25.29 36.41,25.84 38.00,26.79 39.58,27.74 40.89,29.04 42.20,30.34 43.16,31.91 44.12,33.49 38.44,29.06 32.76,24.64 27.30,27.42 21.84,30.21 20.25,31.86 18.66,33.51 19.14,31.08 19.61,28.64 20.84,26.49 22.08,24.33 23.93,22.68 25.79,21.03 28.07,20.06 30.36,19.09 32.83,18.90 35.31,18.71 37.71,19.32 40.12,19.92 42.21,21.27 44.29,22.62 45.84,24.56 47.39,26.50 48.23,28.84 49.08,31.17 49.13,33.65 49.19,36.13 48.45,38.50 47.71,40.87 46.26,42.88 44.80,44.89 42.78,46.33 40.75,47.77 38.38,48.49 36.00,49.21 33.52,49.13 31.04,49.05 28.71,48.19 26.38,47.32 24.45,45.76 22.53,44.19 21.20,42.09 19.87,40.00 19.28,37.58 18.69,35.17 18.91,32.70 19.12,30.22 20.11,27.95 21.10,25.67 22.77,23.83 24.43,21.99 26.60,20.78 28.77,19.57 31.21,19.11 33.65,18.65 36.11,19.00 38.57,19.35 40.79,20.46 43.00,21.57 44.75,23.34 46.50,25.10 47.59,27.33 48.69,29.56 49.01,32.02 49.33,34.48 49.33,34.48 49.33,34.48 49.15,37.49 48.96,40.50 47.16,44.55 45.35,48.61 38.10,51.90 30.84,55.20 23.54,50.67 16.24,46.15 15.68,44.39 15.13,42.63 15.01,40.79 14.89,38.95 15.22,37.13 15.54,35.31 16.29,33.63 17.05,31.94 18.18,30.49 19.31,29.03 20.76,27.89 22.21,26.74 23.89,25.98 25.57,25.22 27.38,24.88 29.20,24.54 31.04,24.64 32.88,24.75 34.65,25.29 36.41,25.84 37.99,26.78 39.58,27.73 40.89,29.03 42.20,30.34 43.16,31.91 44.12,33.49 45.14,37.56 46.16,41.63 46.23,46.93 46.29,52.23 43.04,48.06 39.79,43.89 43.83,48.16 47.87,52.42 48.86,59.75 49.84,67.08 47.82,71.19 45.80,75.31 43.92,79.45 42.04,83.59 37.13,87.59 32.22,91.60 25.20,92.13 18.18,92.66 12.47,88.82 6.76,84.98 3.32,82.37 -0.11,79.77 -4.06,76.46 -8.01,73.15 -10.26,68.70 -12.51,64.25 -15.28,60.23 -18.05,56.21 -19.35,52.02 -20.65,47.83 -20.51,41.72 -20.37,35.62 -20.35,30.82 -20.32,26.02 -20.34,21.12 -20.35,16.23 -20.43,10.58 -20.51,4.93 -20.28,3.08 -20.06,1.22 -19.40,-0.52 -18.73,-2.27 -17.67,-3.81 -16.61,-5.34 -15.21,-6.58 -13.81,-7.83 -12.15,-8.69 -10.50,-9.56 -8.68,-10.01 -6.87,-10.46 -5.00,-10.46 -3.13,-10.46 -1.31,-10.01 0.50,-9.56 2.15,-8.70 3.81,-7.83 5.21,-6.59 6.61,-5.35 7.67,-3.81 8.73,-2.27 9.40,-0.52 10.06,1.22 10.28,3.08 10.51,4.93 10.51,5.57 10.50,6.20 9.98,10.87 9.46,15.53 4.98,11.36 0.51,7.19 6.24,11.18 11.96,15.18 15.64,20.18 19.31,25.18 18.89,29.83 18.47,34.48 20.48,44.19 22.49,53.90 23.04,58.14 23.58,62.39 24.29,66.72 25.00,71.05 24.97,72.92 24.93,74.79 24.45,76.60 23.98,78.42 23.08,80.06 22.18,81.71 20.91,83.09 19.64,84.47 18.08,85.51 16.52,86.54 14.76,87.18 13.00,87.81 11.13,88.01 9.27,88.20 7.41,87.94 5.55,87.68 3.81,86.99 2.07,86.29 0.55,85.20 -0.96,84.11 -2.18,82.69 -3.40,81.26 -4.24,79.59 -5.09,77.92 -5.50,76.09 -5.92,74.26 -5.22,75.80 -4.52,77.34 -6.18,72.70 -7.83,68.05 -9.57,61.35 -11.30,54.65 -11.37,50.12 -11.43,45.58 -10.44,40.37 -9.45,35.16 -9.35,30.77 -9.25,26.39 -8.21,20.76 -7.16,15.13 -4.52,10.76 -1.89,6.39 8.12,3.90 18.13,1.41 22.29,5.47 26.44,9.54 27.66,16.06 28.88,22.58 24.99,27.83 21.10,33.09 22.93,28.33 24.76,23.56 26.56,30.71 28.35,37.86 28.71,44.14 29.07,50.42 28.50,54.84 27.93,59.26 27.29,63.57 26.65,67.88 21.54,65.79 16.43,63.70 16.53,59.10 16.63,54.49 16.72,50.16 16.81,45.83 16.92,41.55 17.02,37.27 17.80,32.49 18.58,27.70 20.98,22.62 23.39,17.55 23.75,12.87 24.11,8.19 28.63,10.88 33.16,13.57 28.70,12.74 24.24,11.90 20.00,11.52 15.77,11.14 11.33,10.77 6.89,10.41 3.44,10.22 0,10.04 -1.20,9.89 -2.40,9.75 -3.53,9.32 -4.66,8.89 -5.66,8.20 -6.66,7.51 -7.46,6.61 -8.26,5.70 -8.83,4.63 -9.39,3.56 -9.68,2.38 -9.97,1.21 -9.97,-0.00 -9.97,-1.21 -9.68,-2.38 -9.39,-3.56 -8.83,-4.63 -8.26,-5.70 -7.46,-6.61 -6.66,-7.52 -5.66,-8.20 -4.66,-8.89 -3.53,-9.32 -2.40,-9.75 -1.20,-9.90 0.00,-10.04 0.00,-10.04 L 0,-10.04 Z"></path></g><g transform="translate(173.05555555555554 133.83333333333331) rotate(0 15.5555555555556 38.33333333333334)" stroke="none"><path d="M1 1.89 L2.73 1.01 L2.19 4.87 L4.16 11.28 L2.38 17.43 L1.05 24.27 L1.97 23.04 L4.94 29.22 L4.45 30.15 L7.84 38.79 L7.12 41.76 L8.66 41.32 L6.38 42.75 L4.76 47.91 L7.76 56.34 L7.71 62.2 L6.13 65.16 L6.67 67.06 L7.92 69.08 L8.34 71.24 L7.11 74.72 L6.11 74.26 L7.49 73.51 L8.71 73.73 L11.94 77.82 L13.75 77.61 L13.14 77.26 L14.86 75.05 L15.35 77.57 L15.67 76.89 L19.46 77.88 L22.49 78.49 L24.85 80.13 L25.64 79.99 L29.34 78.33 L31.65 79.64 L30.3 77.74 L30.64 75.8 L31.57 74.81 L32.26 75.36 L28.99 75.88 L26.21 74.88 L26.61 72.73 L27.49 75.03 L26.75 71.91 L26.01 70.78 L26.36 65.85 L24.14 59.47 L24.22 55.97 L26.24 52.96 L23.73 50.91 L24.7 51.87 L23.23 49.87 L25.23 47.85 L23.06 43.68 L24.44 39.94 L24.2 37.07 L21.62 34.45 L21.47 30.44 L19.84 32.63 L21.2 30.28 L19.73 27.21 L23.08 25.18 L21.27 26.33 L19.5 21.63 L23.1 23.36 L22.37 19.54 L21.44 17.32 L19.18 15.82 L22.06 14 L21 12.6 L20.29 13.09 L22.43 9.66 L21.02 10.81 L21.65 9.78 L22.73 6.15 L20.41 4.73 L21.43 5.11 L18.9 4.16 L20.49 1.56 L19.09 -0.17 L19.49 0.36 L18.53 -3.06 L15.81 -0.63 L17.87 -0.33 L15.73 0.55 L14.89 -1.02 L12.2 -2.03 L12.71 -0.74 L11.71 -1.31 L11.11 -1.19 L11.01 1.86 L10.12 1.98 L7.73 2.1 L6.42 2.62 L1.74 -0.34 L-0.4 1.07" stroke="none" stroke-width="0" fill="#000000" fill-rule="evenodd"></path><path fill="#fff" d="M 10.38,-1.38 Q 10.38,-1.38 11.07,3.40 11.77,8.18 12.20,12.45 12.62,16.73 13.90,21.33 15.17,25.94 16.58,31.05 17.99,36.16 18.59,43.54 19.19,50.91 19.31,56.50 19.42,62.09 19.52,66.85 19.62,71.62 17.56,67.58 15.51,63.55 20.47,65.11 25.43,66.67 21.41,69.82 17.38,72.97 18.87,78.50 20.35,84.04 16.60,80.18 12.85,76.31 12.28,71.44 11.72,66.57 11.52,62.23 11.31,57.89 10.02,51.89 8.73,45.89 7.78,40.44 6.82,34.99 6.54,29.85 6.25,24.70 6.19,20.02 6.13,15.34 6.17,10.79 6.21,6.25 11.22,9.28 16.24,12.31 11.41,14.33 6.57,16.35 1.51,15.57 -3.55,14.80 -5.82,13.85 -8.09,12.89 -9.94,11.26 -11.79,9.63 -13.02,7.50 -14.25,5.36 -14.73,2.95 -15.21,0.53 -14.90,-1.90 -14.59,-4.35 -13.51,-6.56 -12.43,-8.78 -10.71,-10.53 -8.98,-12.29 -6.78,-13.40 -4.58,-14.52 -2.14,-14.87 0.28,-15.22 2.71,-14.78 5.13,-14.33 7.29,-13.14 9.44,-11.94 11.10,-10.12 12.76,-8.30 13.75,-6.04 14.74,-3.79 14.96,-1.34 15.18,1.11 14.61,3.50 14.03,5.90 12.72,7.99 11.41,10.07 9.50,11.63 7.60,13.19 5.29,14.06 2.98,14.93 0.52,15.01 -1.93,15.10 -4.29,14.40 -6.65,13.69 -8.66,12.27 -10.68,10.85 -12.13,8.86 -13.58,6.87 -14.32,4.52 -15.07,2.17 -15.02,-0.28 -14.97,-2.75 -14.14,-5.07 -13.31,-7.38 -11.78,-9.32 -10.25,-11.25 -8.19,-12.59 -6.12,-13.94 -3.74,-14.55 -1.35,-15.16 1.10,-14.98 3.55,-14.80 3.55,-14.80 3.55,-14.80 2.58,-12.61 1.62,-10.42 5.55,-12.74 9.48,-15.05 13.96,-15.72 18.45,-16.38 23.06,-14.94 27.68,-13.50 30.76,-8.13 33.85,-2.75 35.01,2.93 36.16,8.63 36.10,13.27 36.04,17.90 35.99,22.69 35.93,27.47 36.53,32.16 37.13,36.84 37.21,42.26 37.28,47.68 38.73,53.41 40.18,59.14 40.50,64.33 40.82,69.52 36.90,65.29 32.98,61.07 36.74,63.75 40.51,66.43 42.67,71.44 44.83,76.45 42.73,82.19 40.63,87.93 36.48,89.99 32.34,92.04 26.29,92.30 20.25,92.55 15.33,91.24 10.41,89.94 5.66,87.30 0.91,84.66 -2.68,79.09 -6.28,73.53 -6.19,67.82 -6.09,62.11 -5.99,56.56 -5.89,51.00 -5.91,44.30 -5.93,37.59 -7.05,30.72 -8.18,23.84 -8.70,17.41 -9.22,10.98 -9.80,6.18 -10.38,1.38 -10.39,0.12 -10.41,-1.14 -10.12,-2.36 -9.83,-3.59 -9.26,-4.72 -8.68,-5.84 -7.86,-6.80 -7.03,-7.75 -6.00,-8.48 -4.97,-9.21 -3.79,-9.67 -2.62,-10.13 -1.37,-10.30 -0.12,-10.47 1.13,-10.33 2.38,-10.19 3.57,-9.76 4.75,-9.32 5.80,-8.62 6.85,-7.91 7.70,-6.98 8.54,-6.04 9.14,-4.93 9.74,-3.82 10.06,-2.60 10.38,-1.38 10.38,-1.38 L 10.38,-1.38 Z"></path></g><g transform="translate(205.27777777777783 179.3888888888889) rotate(0 32.22222222222217 -1.1111111111111427)" stroke="none"><path fill="#fff" d="M -10.03,-1.82 Q -10.03,-1.82 -9.56,-5.37 -9.08,-8.92 -6.73,-14.35 -4.38,-19.79 -1.94,-23.99 0.50,-28.19 8.25,-29.94 16.00,-31.69 15.45,-31.74 14.90,-31.80 16.29,-31.35 17.69,-30.91 18.93,-30.14 20.18,-29.38 21.21,-28.33 22.23,-27.29 22.98,-26.03 23.73,-24.78 24.16,-23.37 24.58,-21.97 24.66,-20.51 24.74,-19.05 24.46,-17.61 24.19,-16.18 23.58,-14.85 22.97,-13.52 22.06,-12.37 21.14,-11.22 19.99,-10.33 18.83,-9.44 17.49,-8.85 16.15,-8.25 14.71,-8.00 13.27,-7.75 11.80,-7.85 10.34,-7.95 11.82,-6.13 13.29,-4.32 11.98,-3.61 10.66,-2.90 9.22,-2.52 7.78,-2.15 6.29,-2.13 4.80,-2.11 3.34,-2.45 1.89,-2.78 0.56,-3.46 -0.76,-4.14 -1.89,-5.11 -3.02,-6.08 -3.88,-7.30 -4.74,-8.52 -5.29,-9.90 -5.84,-11.29 -6.03,-12.77 -6.23,-14.25 -6.07,-15.73 -5.91,-17.21 -5.40,-18.61 -4.89,-20.02 -4.06,-21.25 -3.23,-22.49 -2.12,-23.49 -1.02,-24.50 3.45,-25.63 7.92,-26.76 9.75,-27.41 11.58,-28.06 13.11,-28.08 14.65,-28.11 16.14,-27.78 17.64,-27.44 19.01,-26.75 20.38,-26.06 21.54,-25.07 22.71,-24.08 23.60,-22.83 24.50,-21.59 25.07,-20.16 25.64,-18.74 25.85,-17.22 26.07,-15.71 25.91,-14.18 25.76,-12.66 25.24,-11.21 24.72,-9.77 23.88,-8.49 23.03,-7.21 21.90,-6.18 20.78,-5.14 19.43,-4.40 18.09,-3.66 16.61,-3.27 15.13,-2.87 7.62,-10.05 0.11,-17.23 2.06,-23.96 4.00,-30.70 7.51,-33.15 11.01,-35.60 16.46,-36.94 21.90,-38.29 26.83,-38.75 31.76,-39.22 36.19,-39.91 40.62,-40.61 45.92,-40.11 51.22,-39.61 56.31,-38.06 61.39,-36.51 66.53,-33.33 71.66,-30.14 74.10,-25.97 76.54,-21.80 74.92,-15.42 73.29,-9.04 71.01,-5.73 68.73,-2.42 67.15,-1.65 65.57,-0.88 63.85,-0.52 62.13,-0.15 60.37,-0.20 58.62,-0.26 56.93,-0.73 55.23,-1.20 53.70,-2.07 52.17,-2.93 50.89,-4.14 49.62,-5.34 48.66,-6.82 47.71,-8.30 47.14,-9.96 46.57,-11.62 46.41,-13.37 46.25,-15.12 46.52,-16.86 46.78,-18.60 47.46,-20.22 48.13,-21.84 49.17,-23.26 50.22,-24.67 51.57,-25.79 52.92,-26.92 63.61,-23.69 74.30,-20.47 76.35,-15.79 78.40,-11.11 81.53,-6.38 84.66,-1.66 86.81,2.93 88.95,7.53 90.27,12.65 91.59,17.76 89.28,25.22 86.97,32.67 76.10,33.26 65.22,33.86 62.74,30.04 60.26,26.22 62.65,29.89 65.04,33.56 60.60,31.12 56.17,28.68 54.03,23.92 51.89,19.15 49.88,13.33 47.87,7.52 47.42,2.65 46.98,-2.21 42.23,-1.73 37.49,-1.25 33.07,-1.24 28.65,-1.22 24.10,0.04 19.56,1.31 13.56,3.57 7.55,5.83 3.68,11.59 -0.17,17.35 1.33,14.16 2.84,10.97 1.93,13.30 1.03,15.62 -0.56,17.53 -2.16,19.44 -4.29,20.74 -6.41,22.04 -8.84,22.59 -11.27,23.15 -13.75,22.90 -16.23,22.64 -18.50,21.61 -20.77,20.58 -22.59,18.88 -24.41,17.18 -25.60,14.99 -26.78,12.80 -27.20,10.34 -27.62,7.88 -27.23,5.42 -26.85,2.96 -25.70,0.75 -24.55,-1.45 -22.75,-3.18 -20.95,-4.90 -18.70,-5.97 -16.44,-7.03 -13.97,-7.32 -11.49,-7.60 -9.06,-7.08 -6.62,-6.57 -4.47,-5.30 -2.33,-4.03 -0.70,-2.14 0.91,-0.25 1.85,2.05 2.79,4.35 2.94,6.84 3.10,9.33 2.45,11.74 1.80,14.14 0.41,16.21 -0.96,18.29 -2.93,19.81 -4.91,21.33 -7.26,22.14 -9.62,22.96 -12.11,22.97 -14.60,22.99 -16.97,22.21 -19.34,21.43 -21.33,19.94 -23.33,18.44 -24.74,16.39 -26.15,14.34 -26.83,11.94 -27.52,9.55 -27.40,7.06 -27.28,4.57 -27.28,4.57 -27.28,4.57 -23.90,-0.39 -20.52,-5.36 -17.51,-9.74 -14.51,-14.12 -9.98,-17.78 -5.46,-21.44 -0.81,-24.17 3.84,-26.91 7.98,-27.90 12.13,-28.90 18.54,-30.49 24.94,-32.07 29.78,-32.08 34.62,-32.08 38.94,-32.06 43.27,-32.03 47.68,-31.85 52.09,-31.67 57.39,-29.51 62.69,-27.34 66.02,-24.19 69.35,-21.04 72.93,-15.04 76.51,-9.04 77.18,-3.73 77.86,1.56 79.44,6.65 81.03,11.73 76.70,9.09 72.36,6.46 77.49,10.49 82.62,14.53 73.84,13.66 65.06,12.78 65.33,18.66 65.61,24.55 63.18,19.76 60.75,14.97 58.82,10.79 56.90,6.60 52.92,0.27 48.95,-6.05 58.84,-4.24 68.73,-2.42 67.15,-1.65 65.57,-0.88 63.85,-0.52 62.13,-0.15 60.38,-0.20 58.62,-0.26 56.93,-0.73 55.23,-1.20 53.70,-2.07 52.17,-2.93 50.90,-4.14 49.62,-5.34 48.66,-6.82 47.71,-8.30 47.14,-9.96 46.57,-11.62 46.41,-13.37 46.25,-15.12 46.52,-16.86 46.78,-18.59 47.46,-20.22 48.13,-21.84 49.17,-23.26 50.21,-24.67 51.57,-25.79 52.92,-26.92 52.89,-24.65 52.86,-22.38 52.39,-15.92 51.92,-9.47 49.58,-13.29 47.24,-17.11 42.34,-14.44 37.45,-11.76 32.77,-12.12 28.10,-12.48 22.98,-11.46 17.87,-10.45 21.58,-15.96 25.29,-21.47 18.44,-24.76 11.58,-28.06 13.11,-28.08 14.64,-28.11 16.14,-27.78 17.63,-27.44 19.00,-26.75 20.38,-26.07 21.54,-25.07 22.71,-24.08 23.60,-22.83 24.50,-21.59 25.07,-20.17 25.64,-18.74 25.85,-17.23 26.07,-15.71 25.91,-14.18 25.76,-12.66 25.24,-11.21 24.72,-9.77 23.88,-8.49 23.03,-7.22 21.90,-6.18 20.78,-5.14 19.43,-4.40 18.09,-3.66 16.61,-3.27 15.13,-2.87 14.21,-3.60 13.29,-4.32 11.98,-3.61 10.67,-2.90 9.22,-2.52 7.78,-2.15 6.29,-2.13 4.80,-2.11 3.34,-2.45 1.89,-2.78 0.56,-3.46 -0.76,-4.14 -1.89,-5.11 -3.02,-6.08 -3.88,-7.30 -4.74,-8.52 -5.29,-9.90 -5.84,-11.29 -6.03,-12.77 -6.23,-14.25 -6.07,-15.73 -5.91,-17.21 -5.40,-18.61 -4.89,-20.01 -4.06,-21.25 -3.23,-22.49 -2.13,-23.49 -1.02,-24.50 2.05,-26.97 5.13,-29.44 10.01,-30.62 14.90,-31.80 16.29,-31.36 17.68,-30.91 18.93,-30.14 20.18,-29.38 21.21,-28.34 22.23,-27.29 22.98,-26.03 23.73,-24.78 24.15,-23.38 24.58,-21.98 24.66,-20.51 24.74,-19.05 24.46,-17.61 24.19,-16.18 23.58,-14.85 22.97,-13.52 22.06,-12.37 21.14,-11.23 19.99,-10.33 18.83,-9.44 17.49,-8.85 16.15,-8.25 14.71,-8.00 13.27,-7.75 11.81,-7.85 10.35,-7.95 8.84,-9.34 7.33,-10.73 12.57,-11.46 17.82,-12.18 14.73,-8.65 11.64,-5.12 10.84,-1.65 10.03,1.82 9.67,2.99 9.31,4.17 8.67,5.22 8.04,6.28 7.17,7.15 6.30,8.02 5.25,8.66 4.20,9.29 3.02,9.66 1.85,10.03 0.62,10.10 -0.60,10.18 -1.81,9.96 -3.02,9.74 -4.14,9.24 -5.26,8.73 -6.23,7.98 -7.20,7.22 -7.96,6.25 -8.72,5.29 -9.23,4.16 -9.73,3.04 -9.96,1.83 -10.18,0.62 -10.11,-0.59 -10.03,-1.82 -10.03,-1.82 L -10.03,-1.82 Z"></path></g></svg>