<svg version="1.1" xmlns="http://www.w3.org/2000/svg" viewBox="0 0 323 562" width="969" height="1686">
  <!-- svg-source:excalidraw -->
  
  <defs>
    <style class="style-fonts">
      @font-face {
        font-family: "Virgil";
        src: url("https://excalidraw.com/Virgil.woff2");
      }
      @font-face {
        font-family: "Cascadia";
        src: url("https://excalidraw.com/Cascadia.woff2");
      }
    </style>
  </defs>
  <g transform="translate(211 19) rotate(0 -30.5 262)" stroke="none"><path fill="#5c940d" d="M 10.11,1.26 Q 10.11,1.26 9.64,5.87 9.16,10.48 9.17,15.00 9.18,19.51 9.28,24.62 9.38,29.73 10.51,33.97 11.65,38.21 14.22,42.00 16.79,45.78 20.87,49.18 24.95,52.58 27.56,56.11 30.18,59.64 33.60,63.81 37.02,67.98 40.17,71.90 43.31,75.83 46.25,80.32 49.19,84.82 51.01,89.07 52.82,93.32 55.91,96.32 59.01,99.31 62.85,104.07 66.70,108.82 68.89,112.50 71.07,116.17 73.27,120.35 75.46,124.54 78.28,129.30 81.10,134.06 84.84,140.31 88.57,146.55 91.09,150.48 93.60,154.42 95.61,159.72 97.62,165.03 100.03,170.94 102.45,176.85 104.37,183.19 106.28,189.54 108.65,196.91 111.02,204.28 111.99,208.47 112.97,212.67 113.59,220.04 114.22,227.42 113.69,232.07 113.17,236.73 113.55,240.97 113.94,245.21 114.11,250.43 114.28,255.65 114.20,261.69 114.12,267.74 113.29,274.81 112.46,281.88 110.41,286.83 108.35,291.77 109.27,296.18 110.18,300.58 108.63,306.22 107.07,311.86 105.43,317.29 103.78,322.72 103.06,327.77 102.33,332.82 101.02,337.01 99.70,341.20 96.95,346.45 94.20,351.70 90.43,358.50 86.67,365.30 83.78,370.29 80.90,375.29 78.03,379.92 75.16,384.55 73.05,388.78 70.93,393.02 68.02,396.82 65.11,400.63 63.05,404.72 60.99,408.80 58.88,412.97 56.76,417.14 52.90,423.09 49.03,429.03 45.16,432.92 41.29,436.81 36.09,441.17 30.89,445.54 27.69,448.70 24.49,451.87 21.00,454.82 17.50,457.77 13.49,460.96 9.48,464.16 6.93,467.83 4.38,471.51 1.68,474.83 -1.02,478.15 -6.00,483.49 -10.97,488.83 -13.51,493.91 -16.05,498.98 -17.03,504.02 -18.01,509.06 -17.71,514.41 -17.41,519.76 -17.24,524.67 -17.07,529.58 -17.06,530.69 -17.04,531.80 -17.26,533.59 -17.47,535.38 -18.11,537.06 -18.75,538.75 -19.77,540.23 -20.80,541.72 -22.14,542.91 -23.49,544.11 -25.09,544.95 -26.68,545.79 -28.43,546.22 -30.18,546.65 -31.99,546.65 -33.79,546.65 -35.54,546.22 -37.29,545.79 -38.89,544.96 -40.48,544.12 -41.83,542.92 -43.18,541.73 -44.21,540.25 -45.23,538.76 -45.87,537.08 -46.51,535.39 -46.73,533.61 -46.95,531.82 -47.70,525.82 -48.45,519.82 -48.71,514.97 -48.97,510.11 -49.03,505.45 -49.09,500.78 -46.17,504.54 -43.24,508.29 -47.47,504.95 -51.69,501.62 -55.59,499.24 -59.49,496.87 -66.21,493.87 -72.94,490.87 -78.84,487.76 -84.74,484.65 -89.17,482.14 -93.60,479.63 -99.16,476.76 -104.71,473.89 -108.41,471.69 -112.11,469.50 -117.17,464.99 -122.22,460.49 -125.37,456.31 -128.52,452.12 -131.60,446.80 -134.68,441.47 -137.74,436.81 -140.81,432.15 -144.83,427.63 -148.86,423.12 -151.60,417.50 -154.34,411.88 -155.14,406.62 -155.95,401.36 -156.74,396.70 -157.54,392.04 -159.32,383.77 -161.09,375.50 -162.14,369.17 -163.18,362.85 -164.55,356.48 -165.92,350.12 -166.76,345.53 -167.59,340.94 -168.39,336.42 -169.20,331.90 -169.42,327.51 -169.64,323.12 -169.76,318.04 -169.89,312.95 -169.98,308.57 -170.07,304.19 -170.06,298.86 -170.05,293.54 -170.12,288.48 -170.19,283.42 -171.62,278.46 -173.05,273.50 -175.15,266.81 -177.24,260.11 -177.28,254.16 -177.33,248.21 -177.36,242.20 -177.40,236.18 -177.05,230.67 -176.70,225.17 -176.55,219.70 -176.41,214.24 -176.01,208.79 -175.61,203.34 -175.31,198.06 -175.00,192.78 -172.93,186.77 -170.86,180.76 -168.35,175.76 -165.85,170.76 -162.27,165.77 -158.69,160.79 -155.86,156.72 -153.03,152.65 -150.30,148.89 -147.56,145.13 -144.33,140.16 -141.09,135.18 -137.85,130.56 -134.60,125.93 -131.30,119.45 -127.99,112.97 -124.99,109.60 -121.99,106.24 -118.82,102.00 -115.65,97.76 -113.50,93.24 -111.34,88.73 -108.30,83.37 -105.26,78.02 -100.93,73.43 -96.61,68.83 -89.08,65.28 -81.54,61.73 -76.84,58.55 -72.13,55.37 -67.42,54.72 -62.71,54.07 -67.47,56.98 -72.22,59.88 -69.38,55.18 -66.53,50.47 -61.74,46.56 -56.95,42.65 -52.32,41.28 -47.68,39.92 -43.69,36.67 -39.71,33.42 -35.19,30.92 -30.68,28.41 -31.85,33.83 -33.02,39.24 -36.58,35.84 -40.15,32.43 -39.86,26.13 -39.57,19.84 -36.73,15.34 -33.90,10.84 -30.79,7.85 -27.67,4.85 -28.29,5.95 -28.91,7.05 -27.56,5.81 -26.20,4.57 -24.59,3.68 -22.98,2.80 -21.21,2.33 -19.43,1.85 -17.59,1.82 -15.76,1.79 -13.97,2.19 -12.18,2.60 -10.53,3.42 -8.89,4.25 -7.49,5.44 -6.10,6.63 -5.03,8.13 -3.96,9.62 -3.27,11.32 -2.59,13.03 -2.33,14.85 -2.08,16.67 -2.27,18.50 -2.46,20.32 -3.08,22.05 -3.70,23.78 -4.71,25.31 -5.73,26.84 -18.03,25.79 -30.34,24.75 -31.57,16.51 -32.80,8.28 -30.65,3.99 -28.50,-0.30 -26.28,-5.13 -24.06,-9.96 -24.56,-11.00 -25.06,-12.05 -24.18,-14.37 -23.30,-16.70 -21.72,-18.62 -20.14,-20.55 -18.03,-21.86 -15.92,-23.18 -13.50,-23.76 -11.08,-24.33 -8.61,-24.10 -6.13,-23.88 -3.86,-22.87 -1.58,-21.86 0.24,-20.18 2.08,-18.50 3.28,-16.33 4.48,-14.15 4.93,-11.70 5.37,-9.25 5.01,-6.79 4.65,-4.33 3.52,-2.11 2.39,0.09 0.61,1.84 -1.16,3.58 -3.40,4.66 -5.64,5.74 -8.10,6.05 -10.57,6.36 -13.01,5.87 -15.45,5.37 -17.60,4.12 -19.75,2.88 -21.39,1.01 -23.04,-0.85 -24.00,-3.15 -24.95,-5.44 -25.13,-7.92 -25.31,-10.40 -24.68,-12.81 -24.05,-15.22 -22.69,-17.30 -21.33,-19.38 -19.38,-20.92 -17.42,-22.46 -15.08,-23.29 -12.73,-24.12 -10.25,-24.17 -7.76,-24.21 -5.39,-23.45 -3.02,-22.70 -1.01,-21.22 0.98,-19.75 2.41,-17.72 3.84,-15.68 4.55,-13.30 5.25,-10.91 5.16,-8.42 5.06,-5.94 5.06,-5.94 5.06,-5.94 4.66,-5.01 4.25,-4.08 3.01,0.66 1.77,5.41 -1.04,11.06 -3.87,16.71 -4.47,12.38 -5.08,8.05 -16.99,7.55 -28.91,7.05 -27.56,5.81 -26.20,4.57 -24.59,3.68 -22.98,2.80 -21.21,2.33 -19.43,1.86 -17.60,1.82 -15.76,1.79 -13.97,2.19 -12.18,2.60 -10.53,3.42 -8.89,4.25 -7.50,5.44 -6.10,6.63 -5.03,8.13 -3.96,9.62 -3.27,11.32 -2.59,13.03 -2.33,14.85 -2.08,16.67 -2.27,18.49 -2.46,20.32 -3.08,22.05 -3.69,23.78 -4.71,25.31 -5.73,26.84 -8.86,29.56 -11.99,32.27 -12.00,27.83 -12.02,23.39 -9.75,30.96 -7.47,38.53 -9.01,44.28 -10.55,50.04 -14.76,53.24 -18.96,56.45 -24.82,59.76 -30.68,63.07 -36.55,64.29 -42.41,65.52 -44.45,70.42 -46.49,75.32 -52.71,77.87 -58.92,80.42 -62.70,83.86 -66.47,87.30 -70.75,88.37 -75.02,89.45 -78.52,92.10 -82.02,94.75 -84.67,100.77 -87.33,106.79 -89.84,110.68 -92.35,114.56 -96.05,119.76 -99.74,124.95 -103.90,130.84 -108.06,136.73 -110.24,140.93 -112.42,145.14 -116.13,149.67 -119.85,154.19 -122.46,158.96 -125.08,163.73 -127.97,167.61 -130.85,171.48 -133.46,174.92 -136.08,178.36 -138.73,182.20 -141.38,186.04 -143.93,189.54 -146.48,193.03 -146.86,199.32 -147.24,205.61 -147.44,210.11 -147.65,214.62 -147.74,219.16 -147.84,223.70 -148.21,229.92 -148.59,236.15 -148.58,241.99 -148.58,247.83 -148.91,253.36 -149.23,258.89 -147.23,264.15 -145.23,269.42 -143.52,276.42 -141.80,283.42 -141.87,288.48 -141.94,293.54 -141.93,298.86 -141.92,304.19 -142.01,308.54 -142.09,312.89 -142.17,317.83 -142.25,322.77 -141.76,328.92 -141.27,335.07 -139.64,341.94 -138.01,348.80 -136.67,353.61 -135.33,358.42 -134.40,363.66 -133.46,368.91 -131.50,375.73 -129.53,382.56 -128.14,387.03 -126.75,391.50 -126.79,396.07 -126.83,400.64 -124.96,404.67 -123.10,408.71 -118.92,413.39 -114.75,418.08 -112.32,422.33 -109.89,426.57 -106.80,431.76 -103.72,436.95 -100.46,440.70 -97.20,444.45 -92.93,447.57 -88.66,450.68 -83.87,452.45 -79.08,454.22 -75.09,456.52 -71.09,458.82 -62.96,463.16 -54.82,467.50 -50.29,469.05 -45.76,470.60 -41.71,472.60 -37.67,474.59 -32.71,478.46 -27.74,482.33 -24.55,485.84 -21.37,489.35 -20.13,495.07 -18.90,500.78 -18.95,505.26 -19.00,509.73 -18.83,514.16 -18.66,518.59 -17.85,525.19 -17.04,531.80 -17.26,533.58 -17.47,535.37 -18.11,537.06 -18.75,538.75 -19.77,540.23 -20.80,541.71 -22.14,542.91 -23.49,544.11 -25.09,544.95 -26.68,545.78 -28.43,546.22 -30.18,546.65 -31.98,546.65 -33.79,546.65 -35.54,546.22 -37.29,545.79 -38.88,544.96 -40.48,544.12 -41.83,542.93 -43.18,541.73 -44.21,540.25 -45.23,538.77 -45.87,537.08 -46.51,535.40 -46.73,533.61 -46.95,531.82 -46.94,530.72 -46.93,529.63 -46.97,525.22 -47.01,520.82 -47.20,513.83 -47.38,506.84 -46.29,501.01 -45.20,495.18 -43.71,488.61 -42.22,482.03 -39.25,476.44 -36.28,470.86 -31.97,469.25 -27.65,467.64 -25.44,463.75 -23.23,459.87 -20.25,456.17 -17.26,452.48 -12.63,447.03 -7.99,441.59 -3.55,437.97 0.88,434.34 4.52,431.88 8.17,429.43 12.85,424.79 17.52,420.15 21.17,417.17 24.82,414.19 27.76,410.81 30.70,407.42 32.57,402.78 34.43,398.15 36.85,394.32 39.27,390.49 42.46,386.20 45.65,381.91 48.01,378.30 50.37,374.69 52.84,370.40 55.31,366.12 58.14,361.23 60.97,356.34 64.25,350.91 67.52,345.48 70.46,339.18 73.40,332.87 74.60,328.27 75.79,323.67 77.29,315.90 78.78,308.13 80.31,302.44 81.83,296.75 81.86,292.47 81.89,288.19 83.66,280.58 85.43,272.97 85.66,268.16 85.89,263.35 86.26,257.05 86.62,250.75 85.97,242.70 85.31,234.66 86.36,229.49 87.41,224.32 86.13,219.12 84.84,213.91 83.24,208.27 81.65,202.63 80.07,197.36 78.49,192.10 76.09,185.99 73.70,179.88 71.61,174.35 69.53,168.81 66.91,164.67 64.29,160.53 60.45,154.67 56.61,148.80 53.76,144.18 50.92,139.55 48.98,135.75 47.04,131.96 44.80,127.53 42.56,123.11 39.03,119.04 35.50,114.96 31.07,109.70 26.63,104.44 23.68,98.69 20.73,92.94 17.94,89.03 15.16,85.11 11.29,80.54 7.43,75.96 5.12,72.05 2.80,68.13 -1.23,64.27 -5.27,60.40 -7.78,56.32 -10.29,52.25 -11.65,48.15 -13.00,44.04 -14.07,38.66 -15.14,33.28 -13.18,27.31 -11.23,21.34 -11.94,25.61 -12.64,29.89 -12.76,24.14 -12.87,18.39 -12.17,13.15 -11.46,7.91 -10.79,3.32 -10.11,-1.26 -9.81,-2.45 -9.51,-3.64 -8.94,-4.73 -8.36,-5.82 -7.55,-6.73 -6.73,-7.65 -5.71,-8.34 -4.70,-9.04 -3.55,-9.47 -2.40,-9.90 -1.18,-10.05 0.03,-10.19 1.25,-10.04 2.47,-9.88 3.62,-9.44 4.76,-9.00 5.77,-8.30 6.78,-7.60 7.59,-6.68 8.41,-5.76 8.97,-4.67 9.54,-3.58 9.83,-2.38 10.12,-1.19 10.11,0.03 10.11,1.26 10.11,1.26 L 10.11,1.26 Z"></path></g><g transform="translate(207 81) rotate(0 4 166.5)" stroke="none"><path fill="#5c940d" d="M -0.79,10.35 Q -0.79,10.35 -4.53,10.21 -8.28,10.07 -13.21,10.73 -18.15,11.38 -22.46,13.29 -26.77,15.20 -30.77,17.00 -34.77,18.81 -37.03,20.10 -39.28,21.39 -40.80,21.83 -42.31,22.27 -43.89,22.34 -45.47,22.40 -47.02,22.09 -48.57,21.77 -50.00,21.09 -51.43,20.42 -52.66,19.42 -53.88,18.42 -54.83,17.15 -55.78,15.89 -56.40,14.43 -57.02,12.98 -57.28,11.42 -57.53,9.86 -57.40,8.28 -57.28,6.71 -56.78,5.21 -56.28,3.71 -55.43,2.37 -54.59,1.03 -53.45,-0.05 -52.31,-1.15 -50.94,-1.94 -49.57,-2.73 -44.88,-2.53 -40.20,-2.33 -37.55,-6.48 -34.89,-10.63 -29.73,-13.47 -24.57,-16.31 -20.24,-17.12 -15.91,-17.92 -12.14,-20.60 -8.36,-23.29 -1.71,-22.53 4.92,-21.76 3.71,-22.55 2.49,-23.34 4.10,-22.69 5.70,-22.04 7.10,-21.02 8.50,-20.01 9.61,-18.68 10.73,-17.36 11.50,-15.81 12.27,-14.26 12.64,-12.57 13.01,-10.88 12.97,-9.15 12.93,-7.42 12.48,-5.76 12.02,-4.09 11.18,-2.57 10.34,-1.06 9.17,0.20 7.99,1.46 6.54,2.41 5.10,3.36 3.46,3.94 1.83,4.51 0.11,4.68 -1.60,4.85 -3.31,4.60 -5.03,4.35 0.09,2.89 5.22,1.43 7.28,7.11 9.34,12.79 9.29,18.00 9.24,23.21 9.20,28.82 9.15,34.43 9.10,40.12 9.05,45.80 8.64,50.63 8.24,55.45 9.13,61.05 10.03,66.65 10.49,72.61 10.95,78.56 11.49,85.86 12.03,93.17 12.58,99.71 13.12,106.26 13.56,112.54 13.99,118.82 14.50,125.67 15.01,132.52 15.41,138.03 15.82,143.54 15.62,151.20 15.42,158.86 15.37,165.50 15.32,172.15 15.77,176.70 16.22,181.24 16.07,192.36 15.92,203.47 15.33,211.38 14.74,219.29 14.18,229.81 13.63,240.33 13.81,246.01 13.98,251.69 15.28,259.61 16.57,267.52 17.87,273.35 19.17,279.18 20.44,283.27 21.71,287.36 23.38,295.31 25.05,303.27 25.72,309.30 26.39,315.33 26.84,321.64 27.29,327.94 27.44,333.09 27.60,338.24 29.99,342.09 32.38,345.94 25.54,343.19 18.69,340.45 19.42,335.40 20.15,330.35 20.53,324.90 20.92,319.45 21.46,314.04 21.99,308.63 21.60,301.66 21.20,294.70 22.02,288.38 22.83,282.06 24.19,276.26 25.54,270.46 28.02,261.81 30.50,253.17 32.75,242.83 34.99,232.49 35.69,228.03 36.39,223.57 37.30,218.94 38.21,214.31 38.83,208.36 39.46,202.41 39.57,197.91 39.68,193.42 40.72,186.02 41.76,178.61 42.66,159.31 43.56,140.00 44.18,131.35 44.79,122.69 44.33,117.57 43.87,112.44 43.26,110.02 42.65,107.59 42.80,106.42 42.94,105.26 43.37,104.16 43.79,103.06 44.46,102.09 45.13,101.13 46.02,100.35 46.90,99.57 47.94,99.03 48.99,98.48 50.13,98.21 51.28,97.93 52.45,97.93 53.63,97.94 54.77,98.22 55.92,98.51 56.96,99.06 58.00,99.61 58.87,100.40 59.75,101.18 60.42,102.15 61.08,103.12 61.50,104.23 61.91,105.33 62.05,106.50 62.18,107.67 62.48,114.57 62.78,121.48 63.55,130.33 64.33,139.18 65.20,144.62 66.06,150.07 67.01,155.20 67.96,160.34 68.72,165.68 69.48,171.02 70.23,178.07 70.98,185.13 71.30,191.31 71.62,197.48 71.71,205.48 71.80,213.49 71.80,217.95 71.80,222.41 71.79,226.89 71.78,231.37 71.90,238.68 72.01,245.98 72.18,250.37 72.35,254.76 71.62,260.54 70.89,266.33 70.41,272.37 69.93,278.41 69.48,286.21 69.04,294.00 68.95,299.42 68.87,304.84 68.90,309.96 68.93,315.07 68.78,315.18 68.63,315.29 68.43,316.87 68.23,318.45 67.66,319.93 67.09,321.42 66.18,322.72 65.27,324.03 64.08,325.08 62.88,326.13 61.47,326.87 60.06,327.60 58.51,327.98 56.96,328.35 55.37,328.35 53.78,328.34 52.24,327.95 50.69,327.57 49.29,326.82 47.88,326.08 46.69,325.02 45.50,323.96 44.61,322.64 43.71,321.33 43.15,319.84 42.59,318.35 42.40,316.77 42.22,315.19 42.33,309.60 42.44,304.02 43.29,298.95 44.14,293.88 45.13,289.30 46.13,284.72 46.89,280.08 47.66,275.43 48.66,271.10 49.67,266.77 50.37,262.51 51.08,258.24 52.49,250.75 53.90,243.27 55.13,235.95 56.35,228.63 55.96,220.93 55.57,213.22 55.37,207.79 55.17,202.37 54.94,197.12 54.72,191.88 54.66,186.68 54.60,181.48 54.59,175.50 54.59,169.53 55.10,159.34 55.62,149.15 56.02,138.59 56.42,128.02 56.62,119.83 56.83,111.64 57.11,108.64 57.39,105.64 57.65,104.21 57.91,102.77 58.51,101.43 59.10,100.10 60.00,98.95 60.90,97.79 62.04,96.89 63.19,95.98 64.52,95.38 65.85,94.78 67.29,94.51 68.72,94.24 70.18,94.32 71.64,94.41 73.04,94.84 74.43,95.27 75.68,96.02 76.94,96.77 77.97,97.80 79.01,98.83 79.77,100.08 80.53,101.33 80.97,102.72 81.41,104.11 81.50,105.57 81.59,107.03 84.77,112.79 87.95,118.55 88.36,125.32 88.77,132.08 88.61,137.23 88.45,142.38 88.09,148.88 87.73,155.38 87.92,161.70 88.11,168.03 88.88,172.48 89.64,176.94 90.46,182.15 91.27,187.37 91.59,193.35 91.90,199.34 92.08,204.98 92.26,210.61 93.41,215.99 94.55,221.36 94.82,226.70 95.09,232.04 95.10,238.95 95.11,245.87 94.40,252.65 93.69,259.43 93.61,264.21 93.53,268.99 93.65,273.60 93.78,278.22 93.86,283.25 93.94,288.29 87.09,295.27 80.24,302.26 74.69,300.02 69.14,297.78 66.35,288.66 63.56,279.54 63.28,269.96 62.99,260.39 63.52,254.78 64.06,249.17 64.87,239.58 65.67,229.99 65.76,223.31 65.85,216.63 66.43,209.18 67.01,201.74 67.89,197.50 68.76,193.26 69.05,187.41 69.34,181.56 69.22,176.13 69.09,170.70 68.91,166.01 68.72,161.32 68.56,156.66 68.39,152.00 66.04,146.47 63.68,140.94 61.67,135.82 59.66,130.69 59.02,126.23 58.38,121.76 55.89,117.56 53.41,113.36 50.88,109.67 48.36,105.97 43.95,101.47 39.54,96.97 35.52,93.13 31.50,89.28 27.45,85.38 23.41,81.48 21.61,77.22 19.81,72.96 18.90,68.40 18.00,63.84 16.14,57.51 14.29,51.19 11.67,46.81 9.05,42.43 4.46,37.51 -0.13,32.59 -3.02,29.41 -5.90,26.23 -6.87,24.78 -7.85,23.32 -8.44,21.68 -9.04,20.03 -9.22,18.30 -9.41,16.56 -9.17,14.82 -8.94,13.09 -8.29,11.47 -7.65,9.84 -6.63,8.42 -5.62,6.99 -4.29,5.85 -2.97,4.71 -1.41,3.92 0.14,3.13 1.85,2.74 3.55,2.35 5.30,2.37 7.05,2.40 8.74,2.84 10.43,3.28 11.97,4.12 13.50,4.96 14.80,6.13 16.09,7.31 21.28,13.38 26.48,19.45 28.34,23.98 30.21,28.51 31.98,34.47 33.76,40.43 35.34,45.89 36.92,51.36 38.38,57.43 39.85,63.50 40.96,69.81 42.06,76.12 42.70,80.94 43.33,85.76 42.75,90.15 42.17,94.53 39.76,89.10 37.36,83.66 42.55,87.99 47.74,92.32 48.15,101.51 48.55,110.69 46.32,119.96 44.10,129.23 41.17,135.72 38.24,142.21 37.57,150.02 36.90,157.83 35.86,165.73 34.82,173.62 35.01,178.53 35.19,183.44 35.63,188.51 36.06,193.59 36.04,199.86 36.02,206.14 34.94,211.88 33.87,217.62 33.11,224.53 32.36,231.45 32.25,235.83 32.14,240.21 32.31,246.19 32.48,252.17 33.66,259.42 34.84,266.67 36.14,273.58 37.44,280.49 38.00,283.90 38.57,287.31 38.55,288.96 38.52,290.62 38.11,292.22 37.69,293.82 36.90,295.27 36.11,296.72 34.99,297.95 33.88,299.17 32.50,300.09 31.13,301.01 29.57,301.57 28.02,302.14 26.37,302.31 24.73,302.49 23.09,302.27 21.45,302.04 19.91,301.43 18.37,300.83 17.03,299.87 15.68,298.91 14.60,297.65 13.52,296.40 12.77,294.92 12.02,293.45 11.65,291.84 11.28,290.23 11.43,283.22 11.57,276.21 12.11,269.25 12.64,262.29 13.16,255.02 13.69,247.75 13.90,241.49 14.12,235.24 14.14,229.99 14.16,224.75 14.51,216.65 14.87,208.55 14.62,203.55 14.38,198.56 13.51,187.70 12.65,176.83 11.70,170.66 10.75,164.49 9.74,156.99 8.73,149.49 6.98,142.09 5.23,134.70 4.87,129.83 4.52,124.97 4.77,114.67 5.02,104.36 3.83,98.44 2.63,92.51 1.41,86.63 0.20,80.75 0.05,74.80 -0.09,68.85 0.75,64.48 1.59,60.11 1.59,52.19 1.59,44.26 10.51,43.13 19.44,42.00 24.64,48.45 29.85,54.90 32.11,59.65 34.37,64.40 36.69,71.70 39.00,78.99 40.77,86.09 42.53,93.19 43.76,97.94 44.99,102.69 46.08,109.05 47.17,115.42 47.63,121.11 48.10,126.81 48.30,134.64 48.50,142.47 48.43,151.01 48.37,159.55 49.04,166.47 49.72,173.39 50.12,179.96 50.52,186.52 50.68,191.96 50.84,197.39 50.95,202.35 51.06,207.32 51.22,211.92 51.37,216.51 51.44,218.23 51.51,219.94 51.32,221.56 51.12,223.18 50.54,224.70 49.97,226.22 49.04,227.57 48.12,228.91 46.90,229.99 45.68,231.07 44.23,231.83 42.79,232.58 41.21,232.97 39.63,233.36 38.00,233.36 36.37,233.36 34.78,232.97 33.20,232.58 31.76,231.83 30.31,231.07 29.10,229.99 27.88,228.91 26.95,227.57 26.02,226.22 25.45,224.70 24.87,223.18 24.67,221.56 24.48,219.94 24.43,215.51 24.39,211.09 24.99,203.87 25.59,196.66 26.21,188.99 26.83,181.33 26.88,176.06 26.93,170.79 27.30,163.66 27.67,156.53 27.83,152.25 27.98,147.97 28.11,142.85 28.24,137.73 28.30,128.32 28.37,118.92 27.37,110.06 26.37,101.20 27.07,88.07 27.76,74.95 27.78,70.54 27.81,66.12 27.60,62.58 27.38,59.03 27.57,57.77 27.76,56.50 28.25,55.32 28.74,54.14 29.49,53.11 30.25,52.08 31.23,51.26 32.21,50.44 33.35,49.88 34.50,49.32 35.75,49.05 37.00,48.78 38.27,48.82 39.55,48.85 40.78,49.19 42.01,49.54 43.13,50.16 44.24,50.79 45.17,51.66 46.10,52.53 46.80,53.61 47.49,54.68 47.91,55.88 48.33,57.09 48.45,58.36 48.56,59.63 49.12,65.12 49.68,70.61 54.77,72.60 59.86,74.59 60.86,80.01 61.86,85.43 61.96,90.79 62.06,96.15 62.16,100.80 62.26,105.45 62.41,109.78 62.56,114.10 62.36,115.72 62.17,117.35 61.59,118.87 61.01,120.40 60.08,121.75 59.15,123.09 57.93,124.18 56.70,125.26 55.25,126.02 53.81,126.78 52.22,127.17 50.63,127.57 49.00,127.57 47.36,127.57 45.77,127.17 44.18,126.78 42.74,126.02 41.29,125.26 40.06,124.18 38.84,123.09 37.91,121.75 36.98,120.40 36.40,118.87 35.82,117.35 35.63,115.72 35.43,114.10 40.61,120.86 45.80,127.63 33.36,120.09 20.93,112.56 16.25,108.31 11.58,104.06 4.48,95.22 -2.61,86.38 -6.37,82.07 -10.13,77.75 -13.48,73.99 -16.82,70.23 -22.68,63.57 -28.53,56.92 -33.05,52.42 -37.58,47.93 -41.77,43.25 -45.96,38.57 -48.19,35.73 -50.41,32.89 -50.98,31.86 -51.54,30.84 -51.85,29.71 -52.15,28.58 -52.18,27.41 -52.21,26.24 -51.95,25.10 -51.70,23.96 -51.18,22.91 -50.66,21.86 -49.90,20.97 -49.15,20.08 -48.20,19.39 -47.25,18.71 -46.17,18.27 -45.08,17.83 -43.93,17.66 -42.77,17.49 -41.61,17.61 -40.44,17.72 -39.34,18.11 -38.24,18.50 -37.26,19.15 -36.28,19.79 -35.49,20.65 -34.69,21.50 -29.16,27.02 -23.64,32.53 -20.21,36.24 -16.78,39.95 -13.07,43.13 -9.35,46.31 -14.09,46.26 -18.82,46.21 -23.63,44.70 -28.44,43.20 -32.93,41.36 -37.42,39.52 -43.02,38.42 -48.61,37.33 -55.30,37.26 -61.99,37.19 -66.54,37.27 -71.10,37.34 -71.65,37.37 -72.20,37.40 -73.81,37.20 -75.41,37.00 -76.92,36.43 -78.43,35.85 -79.76,34.93 -81.08,34.01 -82.15,32.80 -83.22,31.59 -83.97,30.16 -84.72,28.73 -85.10,27.16 -85.48,25.59 -85.48,23.97 -85.48,22.36 -85.09,20.79 -84.70,19.22 -83.95,17.80 -83.19,16.37 -82.12,15.16 -81.05,13.95 -79.72,13.04 -78.39,12.12 -76.88,11.55 -75.36,10.98 -73.76,10.79 -72.16,10.60 -68.26,7.69 -64.37,4.78 -58.47,2.35 -52.56,-0.07 -47.65,-1.34 -42.74,-2.62 -37.69,-3.89 -32.65,-5.17 -28.56,-6.54 -24.47,-7.92 -18.54,-8.95 -12.61,-9.99 -3.68,-6.46 5.25,-2.94 6.29,4.23 7.33,11.41 2.98,15.62 -1.37,19.83 -5.60,20.57 -9.83,21.30 -15.31,19.32 -20.79,17.34 -24.20,11.84 -27.60,6.34 -30.61,1.60 -33.61,-3.14 -34.17,-7.42 -34.73,-11.71 -35.31,-12.70 -35.88,-13.69 -36.36,-16.04 -36.85,-18.40 -36.55,-20.78 -36.26,-23.17 -35.22,-25.34 -34.18,-27.51 -32.50,-29.23 -30.82,-30.95 -28.68,-32.05 -26.54,-33.15 -24.17,-33.50 -21.79,-33.86 -19.42,-33.44 -17.05,-33.01 -14.94,-31.86 -12.83,-30.70 -11.21,-28.93 -9.58,-27.16 -8.60,-24.97 -7.62,-22.77 -7.39,-20.38 -7.16,-17.98 -7.71,-15.64 -8.26,-13.30 -9.53,-11.26 -10.80,-9.21 -12.66,-7.68 -14.51,-6.15 -16.76,-5.29 -19.00,-4.43 -21.41,-4.34 -23.81,-4.24 -26.12,-4.92 -28.43,-5.59 -30.40,-6.97 -32.37,-8.35 -33.80,-10.28 -35.23,-12.22 -35.96,-14.51 -36.70,-16.80 -36.66,-19.20 -36.63,-21.61 -35.83,-23.87 -35.03,-26.14 -33.55,-28.04 -32.06,-29.93 -30.05,-31.25 -28.04,-32.57 -25.72,-33.18 -23.39,-33.79 -20.99,-33.63 -18.59,-33.47 -16.37,-32.54 -14.15,-31.62 -12.34,-30.04 -10.53,-28.46 -9.32,-26.38 -8.11,-24.30 -8.11,-24.30 -8.11,-24.30 -7.55,-19.02 -6.99,-13.74 -4.83,-9.21 -2.66,-4.69 -6.78,-6.02 -10.90,-7.36 -14.79,-4.08 -18.68,-0.81 -17.52,4.53 -16.36,9.87 -15.15,14.18 -13.94,18.48 -18.99,20.21 -24.05,21.93 -31.47,23.61 -38.90,25.29 -44.96,26.94 -51.03,28.60 -57.16,32.47 -63.30,36.34 -67.75,36.87 -72.20,37.40 -73.81,37.20 -75.41,37.00 -76.92,36.43 -78.43,35.85 -79.75,34.93 -81.08,34.01 -82.15,32.80 -83.22,31.59 -83.97,30.16 -84.72,28.73 -85.10,27.16 -85.48,25.59 -85.48,23.98 -85.48,22.36 -85.09,20.79 -84.70,19.23 -83.95,17.80 -83.20,16.37 -82.12,15.16 -81.05,13.95 -79.72,13.04 -78.39,12.12 -76.88,11.55 -75.37,10.98 -73.76,10.79 -72.16,10.60 -71.61,10.63 -71.06,10.66 -66.45,10.75 -61.85,10.85 -54.97,10.90 -48.10,10.96 -37.51,12.92 -26.93,14.88 -22.39,17.07 -17.85,19.26 -13.67,21.37 -9.50,23.48 -3.83,26.92 1.83,30.36 3.61,36.31 5.40,42.27 4.83,47.04 4.26,51.82 2.04,55.99 -0.18,60.17 -5.73,63.23 -11.27,66.30 -17.58,64.70 -23.89,63.11 -28.03,58.65 -32.17,54.18 -36.16,49.87 -40.16,45.55 -45.28,39.22 -50.41,32.89 -50.98,31.86 -51.54,30.84 -51.85,29.71 -52.15,28.58 -52.18,27.41 -52.21,26.24 -51.95,25.10 -51.70,23.96 -51.18,22.91 -50.66,21.87 -49.90,20.97 -49.15,20.08 -48.20,19.39 -47.25,18.71 -46.17,18.27 -45.09,17.83 -43.93,17.66 -42.77,17.49 -41.61,17.61 -40.44,17.72 -39.34,18.11 -38.24,18.50 -37.26,19.15 -36.28,19.79 -35.49,20.65 -34.69,21.50 -33.55,24.11 -32.40,26.72 -28.73,31.03 -25.06,35.34 -20.55,39.82 -16.04,44.30 -8.76,50.66 -1.48,57.01 1.72,60.86 4.93,64.70 8.47,68.83 12.02,72.95 19.40,79.90 26.78,86.85 30.47,89.98 34.16,93.11 40.30,96.78 46.44,100.45 54.50,107.27 62.56,114.10 62.36,115.72 62.17,117.34 61.59,118.87 61.01,120.40 60.08,121.75 59.15,123.09 57.93,124.18 56.70,125.26 55.25,126.02 53.81,126.78 52.22,127.17 50.63,127.57 49.00,127.57 47.36,127.57 45.77,127.18 44.19,126.78 42.74,126.02 41.29,125.26 40.07,124.18 38.84,123.10 37.91,121.75 36.98,120.40 36.40,118.88 35.82,117.35 35.63,115.72 35.43,114.10 35.58,109.78 35.73,105.46 35.82,100.82 35.92,96.18 36.17,90.01 36.42,83.84 39.29,87.15 42.17,90.45 37.27,87.37 32.38,84.28 29.93,80.22 27.49,76.17 28.26,71.86 29.03,67.55 28.20,63.29 27.38,59.03 27.57,57.77 27.76,56.50 28.25,55.32 28.74,54.14 29.49,53.11 30.25,52.08 31.23,51.26 32.21,50.44 33.35,49.88 34.50,49.32 35.75,49.05 37.00,48.78 38.27,48.82 39.55,48.85 40.78,49.19 42.01,49.54 43.12,50.16 44.24,50.79 45.17,51.66 46.10,52.53 46.80,53.60 47.49,54.68 47.91,55.88 48.33,57.09 48.45,58.36 48.56,59.63 48.09,63.31 47.62,66.98 47.26,71.44 46.90,75.90 47.28,87.15 47.67,98.40 48.42,104.03 49.17,109.66 49.36,114.33 49.56,118.99 49.47,128.60 49.39,138.20 48.86,147.37 48.32,156.53 48.69,163.66 49.06,170.79 49.11,176.06 49.16,181.33 49.78,188.99 50.40,196.66 51.00,203.87 51.60,211.09 51.56,215.51 51.51,219.94 51.32,221.56 51.12,223.17 50.54,224.70 49.97,226.22 49.04,227.56 48.12,228.91 46.90,229.99 45.68,231.07 44.23,231.82 42.79,232.58 41.21,232.97 39.63,233.36 38.00,233.36 36.37,233.36 34.78,232.97 33.20,232.58 31.76,231.83 30.32,231.07 29.10,229.99 27.88,228.91 26.95,227.57 26.02,226.23 25.45,224.70 24.87,223.18 24.67,221.56 24.48,219.94 24.64,215.56 24.81,211.17 24.91,206.78 25.01,202.40 25.11,197.61 25.21,192.82 25.23,187.38 25.24,181.93 24.75,175.32 24.26,168.71 23.94,164.13 23.62,159.55 23.55,151.02 23.49,142.48 23.67,134.73 23.85,126.99 24.04,122.15 24.22,117.31 23.96,112.64 23.69,107.96 22.68,103.69 21.67,99.42 19.52,93.40 17.37,87.38 14.54,81.41 11.70,75.44 9.80,69.92 7.90,64.39 13.04,62.34 18.19,60.28 20.11,53.92 22.03,47.56 23.55,51.86 25.06,56.17 25.05,61.43 25.04,66.70 23.75,71.54 22.46,76.37 22.59,81.34 22.71,86.31 23.70,95.48 24.68,104.65 24.30,114.50 23.91,124.34 23.87,131.31 23.84,138.27 24.40,142.53 24.97,146.79 26.46,154.37 27.96,161.95 28.85,168.27 29.75,174.58 31.86,186.32 33.98,198.07 33.97,202.97 33.97,207.88 34.90,216.32 35.83,224.75 35.85,230.00 35.87,235.24 36.08,241.50 36.30,247.75 36.82,255.03 37.34,262.30 37.86,269.28 38.39,276.26 38.48,281.78 38.57,287.31 38.55,288.96 38.52,290.61 38.11,292.22 37.69,293.82 36.90,295.27 36.11,296.72 34.99,297.95 33.88,299.17 32.50,300.09 31.13,301.01 29.57,301.57 28.02,302.14 26.37,302.31 24.73,302.49 23.09,302.27 21.45,302.04 19.91,301.44 18.37,300.83 17.03,299.87 15.68,298.91 14.60,297.65 13.52,296.40 12.77,294.93 12.03,293.45 11.65,291.84 11.28,290.23 11.20,289.30 11.12,288.37 10.33,283.61 9.55,278.84 8.30,272.75 7.06,266.67 6.24,261.39 5.43,256.11 5.57,250.38 5.71,244.65 6.06,239.45 6.41,234.25 7.08,227.44 7.75,220.63 8.84,213.38 9.93,206.14 9.79,201.67 9.65,197.19 9.55,192.17 9.44,187.14 9.27,178.82 9.09,170.51 9.47,165.44 9.86,160.38 10.42,154.16 10.99,147.95 11.47,141.24 11.95,134.54 14.19,130.33 16.44,126.12 18.01,120.67 19.58,115.21 22.50,111.75 25.41,108.28 21.72,105.95 18.03,103.61 16.55,99.41 15.06,95.21 14.85,89.76 14.64,84.32 13.96,79.78 13.28,75.24 12.16,70.05 11.05,64.86 9.84,60.52 8.63,56.18 7.41,51.71 6.18,47.25 4.74,41.73 3.30,36.22 -1.30,31.23 -5.90,26.23 -6.87,24.78 -7.85,23.32 -8.44,21.68 -9.04,20.04 -9.22,18.30 -9.41,16.56 -9.17,14.83 -8.94,13.09 -8.29,11.47 -7.65,9.84 -6.63,8.42 -5.62,6.99 -4.29,5.85 -2.97,4.71 -1.41,3.92 0.14,3.13 1.85,2.74 3.55,2.35 5.30,2.37 7.05,2.40 8.74,2.84 10.43,3.28 11.97,4.12 13.50,4.95 14.80,6.13 16.09,7.31 16.77,7.81 17.46,8.32 20.63,12.36 23.81,16.40 26.94,19.63 30.07,22.86 34.11,29.04 38.15,35.21 41.29,43.34 44.44,51.47 45.34,55.99 46.24,60.51 45.42,65.05 44.60,69.60 41.47,66.06 38.33,62.52 42.97,64.56 47.62,66.59 51.25,70.28 54.87,73.97 58.96,77.67 63.05,81.38 66.42,84.79 69.78,88.20 72.33,92.02 74.87,95.83 78.23,102.12 81.60,108.41 83.79,115.53 85.98,122.65 87.69,126.97 89.40,131.28 91.66,136.88 93.93,142.49 94.76,147.25 95.60,152.01 95.43,156.67 95.27,161.33 95.07,166.09 94.86,170.86 94.54,176.75 94.21,182.64 93.50,190.47 92.79,198.30 91.48,204.82 90.18,211.34 89.90,216.98 89.63,222.63 89.46,226.94 89.29,231.25 89.12,240.97 88.95,250.70 88.79,259.47 88.62,268.25 88.34,275.44 88.06,282.64 83.33,280.70 78.60,278.75 72.36,282.37 66.12,285.98 66.20,280.87 66.28,275.76 66.50,270.39 66.72,265.01 67.12,260.41 67.51,255.81 68.19,250.86 68.86,245.90 68.84,239.13 68.81,232.36 68.58,227.13 68.35,221.91 68.03,216.28 67.71,210.66 67.86,205.11 68.01,199.55 68.15,194.39 68.28,189.23 68.10,184.90 67.92,180.57 67.05,175.23 66.18,169.89 65.22,162.64 64.26,155.38 63.90,148.88 63.55,142.37 63.39,137.21 63.24,132.05 62.89,125.57 62.54,119.10 59.97,112.37 57.39,105.64 57.65,104.21 57.91,102.77 58.51,101.43 59.10,100.10 60.00,98.95 60.90,97.79 62.04,96.89 63.19,95.98 64.52,95.38 65.85,94.78 67.29,94.51 68.72,94.24 70.18,94.32 71.64,94.41 73.04,94.84 74.43,95.27 75.68,96.02 76.94,96.77 77.97,97.80 79.01,98.83 79.77,100.08 80.53,101.33 80.97,102.72 81.41,104.11 81.50,105.57 81.59,107.03 80.95,110.11 80.31,113.19 79.94,120.61 79.57,128.02 79.97,138.59 80.37,149.15 80.87,156.02 81.38,162.90 81.36,168.60 81.33,174.30 81.32,180.25 81.32,186.19 81.24,190.97 81.17,195.75 80.99,201.03 80.82,206.31 80.98,213.01 81.15,219.70 81.03,229.40 80.91,239.10 80.33,243.48 79.75,247.87 79.08,252.27 78.41,256.68 77.29,263.11 76.17,269.54 74.84,274.18 73.51,278.82 72.41,284.33 71.31,289.83 70.08,297.85 68.85,305.88 68.74,310.58 68.63,315.28 68.43,316.86 68.23,318.44 67.66,319.93 67.09,321.42 66.18,322.72 65.27,324.03 64.08,325.08 62.88,326.13 61.47,326.87 60.06,327.60 58.51,327.98 56.97,328.35 55.37,328.35 53.78,328.34 52.24,327.95 50.69,327.57 49.29,326.82 47.88,326.08 46.69,325.02 45.51,323.96 44.61,322.64 43.71,321.33 43.15,319.84 42.59,318.35 42.40,316.77 42.22,315.19 42.67,311.93 43.12,308.67 43.34,303.99 43.56,299.32 44.07,292.43 44.58,285.53 44.96,277.72 45.34,269.90 46.49,262.33 47.64,254.76 47.81,250.37 47.98,245.98 48.09,238.68 48.20,231.37 48.20,226.89 48.19,222.41 48.18,217.96 48.17,213.51 48.24,205.58 48.30,197.66 48.47,191.87 48.63,186.08 48.54,180.00 48.44,173.91 47.80,169.06 47.15,164.21 46.16,158.91 45.17,153.60 44.16,148.00 43.16,142.41 42.19,136.01 41.21,129.62 41.35,125.25 41.49,120.88 42.07,114.23 42.65,107.59 42.80,106.43 42.94,105.26 43.36,104.16 43.79,103.06 44.46,102.09 45.13,101.13 46.01,100.35 46.90,99.57 47.94,99.03 48.99,98.48 50.13,98.21 51.28,97.93 52.45,97.93 53.63,97.94 54.77,98.22 55.91,98.51 56.96,99.06 58.00,99.61 58.87,100.40 59.75,101.18 60.42,102.15 61.08,103.12 61.50,104.23 61.91,105.33 62.05,106.50 62.18,107.67 62.12,110.16 62.06,112.66 61.46,117.79 60.86,122.91 61.24,131.58 61.62,140.25 61.98,160.36 62.34,180.46 62.09,187.32 61.84,194.18 61.64,198.89 61.44,203.60 61.33,211.19 61.21,218.79 60.38,223.02 59.55,227.26 58.87,231.48 58.19,235.71 56.78,246.85 55.37,258.00 53.94,267.63 52.50,277.26 51.21,282.09 49.92,286.92 49.17,292.73 48.41,298.54 48.93,307.71 49.44,316.87 48.42,321.98 47.41,327.08 46.44,333.47 45.48,339.85 42.27,346.12 39.06,352.39 35.82,355.99 32.57,359.59 28.00,361.00 23.42,362.41 17.63,359.43 11.83,356.44 7.59,351.67 3.35,346.90 2.87,342.57 2.39,338.24 2.54,333.12 2.69,327.99 2.98,322.29 3.27,316.60 3.19,311.59 3.10,306.58 1.97,299.16 0.84,291.73 0.18,286.94 -0.47,282.15 -0.78,276.45 -1.08,270.76 -1.43,261.12 -1.77,251.49 -1.45,245.79 -1.14,240.10 -1.35,229.26 -1.57,218.43 -1.37,211.28 -1.17,204.12 -2.16,193.31 -3.15,182.51 -3.33,177.42 -3.51,172.34 -3.69,165.79 -3.87,159.25 -4.38,152.10 -4.88,144.96 -5.19,139.99 -5.49,135.02 -6.67,128.04 -7.85,121.06 -8.66,115.09 -9.48,109.12 -10.53,103.07 -11.59,97.02 -13.44,89.58 -15.30,82.14 -17.00,73.01 -18.69,63.89 -19.39,59.44 -20.08,54.99 -19.56,50.22 -19.05,45.46 -19.10,39.94 -19.15,34.42 -19.18,28.78 -19.22,23.14 -19.22,17.78 -19.23,12.42 -19.13,5.91 -19.04,-0.59 -17.80,-6.43 -16.57,-12.27 -13.16,-16.06 -9.74,-19.85 -3.62,-21.60 2.49,-23.34 4.09,-22.69 5.70,-22.04 7.10,-21.02 8.50,-20.01 9.61,-18.69 10.73,-17.36 11.50,-15.81 12.27,-14.26 12.64,-12.57 13.01,-10.88 12.97,-9.16 12.93,-7.43 12.48,-5.76 12.02,-4.09 11.18,-2.57 10.34,-1.06 9.17,0.20 7.99,1.46 6.54,2.41 5.10,3.36 3.47,3.93 1.83,4.51 0.11,4.68 -1.60,4.85 -3.31,4.60 -5.02,4.35 -3.14,3.99 -1.26,3.64 -4.81,6.02 -8.36,8.40 -14.36,10.84 -20.35,13.28 -25.13,16.16 -29.91,19.03 -34.60,20.21 -39.28,21.39 -40.79,21.83 -42.31,22.27 -43.89,22.34 -45.47,22.40 -47.02,22.09 -48.57,21.77 -50.00,21.09 -51.43,20.42 -52.66,19.42 -53.88,18.42 -54.83,17.15 -55.78,15.89 -56.40,14.44 -57.02,12.98 -57.28,11.42 -57.53,9.86 -57.40,8.28 -57.28,6.71 -56.78,5.21 -56.28,3.71 -55.43,2.37 -54.59,1.03 -53.45,-0.05 -52.31,-1.15 -50.94,-1.94 -49.57,-2.73 -49.42,-2.97 -49.27,-3.21 -43.82,-5.16 -38.36,-7.12 -33.08,-8.38 -27.80,-9.65 -22.34,-10.50 -16.88,-11.35 -11.77,-11.29 -6.66,-11.22 -2.93,-10.79 0.79,-10.35 2.02,-10.10 3.25,-9.86 4.38,-9.33 5.51,-8.79 6.49,-8.01 7.46,-7.22 8.21,-6.22 8.97,-5.22 9.46,-4.07 9.96,-2.92 10.17,-1.69 10.37,-0.45 10.27,0.79 10.18,2.03 9.79,3.22 9.39,4.41 8.73,5.47 8.06,6.53 7.16,7.40 6.26,8.27 5.18,8.90 4.10,9.53 2.90,9.89 1.70,10.24 0.45,10.29 -0.79,10.35 -0.79,10.35 L -0.79,10.35 Z"></path></g><g transform="translate(194 28) rotate(0 -46 44)" stroke="none"><path fill="#5c940d" d="M 7.09,7.09 Q 7.09,7.09 4.92,9.53 2.76,11.96 -0.82,16.59 -4.41,21.22 -6.99,26.56 -9.56,31.90 -12.63,36.80 -15.69,41.71 -18.18,45.21 -20.67,48.72 -24.07,52.81 -27.47,56.90 -29.99,60.33 -32.51,63.76 -37.69,67.35 -42.86,70.93 -48.52,75.37 -54.17,79.80 -57.97,81.99 -61.77,84.19 -66.32,87.74 -70.88,91.30 -75.59,94.03 -80.29,96.76 -82.76,98.73 -85.23,100.71 -87.44,101.46 -89.64,102.20 -91.97,102.21 -94.30,102.21 -96.51,101.47 -98.72,100.73 -100.58,99.32 -102.44,97.92 -103.75,95.99 -105.06,94.06 -105.68,91.82 -106.31,89.57 -106.19,87.25 -106.07,84.92 -105.21,82.75 -104.35,80.59 -102.84,78.81 -101.34,77.03 -99.34,75.83 -97.35,74.62 -95.07,74.12 -92.80,73.61 -90.48,73.86 -88.16,74.11 -86.05,75.09 -83.93,76.06 -82.24,77.66 -80.54,79.26 -79.45,81.32 -78.35,83.38 -77.97,85.68 -77.59,87.97 -77.97,90.27 -78.34,92.57 -79.43,94.63 -80.52,96.70 -82.21,98.30 -83.90,99.90 -86.01,100.89 -88.12,101.87 -90.44,102.12 -92.76,102.38 -95.03,101.88 -97.31,101.38 -99.31,100.18 -101.30,98.98 -102.82,97.21 -104.33,95.44 -105.19,93.27 -106.06,91.11 -106.19,88.78 -106.32,86.46 -105.69,84.21 -105.07,81.96 -103.77,80.03 -102.46,78.10 -100.61,76.69 -98.76,75.28 -98.76,75.28 -98.76,75.28 -95.60,73.03 -92.44,70.78 -87.89,68.08 -83.34,65.38 -79.59,62.73 -75.83,60.08 -70.76,57.53 -65.69,54.97 -61.82,51.83 -57.95,48.68 -53.91,45.24 -49.88,41.80 -46.55,38.57 -43.23,35.34 -40.39,31.89 -37.55,28.44 -34.35,23.74 -31.16,19.04 -28.12,15.15 -25.09,11.26 -21.77,7.50 -18.45,3.75 -15.20,0.49 -11.96,-2.76 -9.52,-4.93 -7.09,-7.09 -6.14,-7.84 -5.19,-8.58 -4.08,-9.08 -2.98,-9.58 -1.79,-9.80 -0.60,-10.01 0.60,-9.94 1.80,-9.87 2.96,-9.51 4.11,-9.15 5.15,-8.52 6.19,-7.90 7.04,-7.04 7.90,-6.18 8.52,-5.15 9.15,-4.11 9.51,-2.96 9.87,-1.80 9.94,-0.60 10.01,0.60 9.80,1.79 9.58,2.98 9.08,4.08 8.58,5.19 7.84,6.14 7.09,7.09 7.09,7.09 L 7.09,7.09 Z"></path></g><g transform="translate(113 114) rotate(0 5.5 181.5)" stroke="none"><path fill="#5c940d" d="M 3.97,9.53 Q 3.97,9.53 0.64,11.07 -2.68,12.61 -6.05,16.81 -9.42,21.00 -13.04,24.43 -16.66,27.86 -20.46,33.92 -24.25,39.99 -29.44,43.72 -34.63,47.46 -34.90,52.65 -35.16,57.85 -37.20,61.78 -39.23,65.71 -42.03,71.63 -44.84,77.55 -47.34,82.69 -49.85,87.84 -54.34,94.69 -58.84,101.54 -58.53,106.18 -58.22,110.82 -59.95,116.12 -61.67,121.41 -62.46,126.56 -63.25,131.71 -63.22,136.61 -63.19,141.51 -63.18,146.59 -63.17,151.68 -63.14,156.59 -63.11,161.49 -63.11,167.43 -63.10,173.37 -63.16,178.30 -63.23,183.23 -62.66,188.57 -62.09,193.91 -61.27,198.86 -60.45,203.81 -59.49,211.51 -58.53,219.21 -57.11,226.22 -55.69,233.22 -54.28,238.40 -52.88,243.57 -52.37,250.58 -51.86,257.58 -49.32,262.18 -46.78,266.79 -45.56,271.11 -44.34,275.44 -42.36,279.41 -40.38,283.38 -39.15,288.06 -37.92,292.74 -35.05,297.86 -32.17,302.98 -29.94,306.72 -27.71,310.47 -26.08,317.78 -24.45,325.09 -27.25,333.58 -30.06,342.07 -28.75,336.78 -27.45,331.48 -24.13,337.15 -20.80,342.82 -16.71,345.55 -12.61,348.28 -7.93,350.82 -3.25,353.36 1.34,354.86 5.94,356.35 10.30,358.39 14.66,360.42 19.46,361.75 24.25,363.08 24.18,362.75 24.10,362.42 25.83,362.73 27.56,363.05 29.17,363.77 30.77,364.49 32.15,365.57 33.54,366.65 34.62,368.04 35.71,369.42 36.43,371.02 37.15,372.63 37.47,374.35 37.79,376.08 37.69,377.84 37.58,379.59 37.06,381.27 36.54,382.95 35.63,384.46 34.72,385.96 33.48,387.21 32.24,388.45 30.73,389.36 29.23,390.27 27.55,390.79 25.87,391.32 24.12,391.43 22.36,391.53 17.92,391.13 13.48,390.73 7.11,389.83 0.75,388.94 -5.92,385.89 -12.60,382.83 -18.41,379.63 -24.22,376.42 -29.55,373.32 -34.89,370.21 -38.67,367.77 -42.46,365.33 -45.71,362.26 -48.97,359.18 -52.78,356.34 -56.59,353.50 -62.86,348.63 -69.13,343.76 -71.55,339.56 -73.97,335.37 -76.11,330.87 -78.25,326.36 -81.17,323.07 -84.09,319.77 -86.38,313.51 -88.68,307.25 -94.29,302.33 -99.90,297.42 -101.34,293.29 -102.78,289.16 -104.74,282.61 -106.71,276.06 -107.74,270.70 -108.78,265.34 -109.11,260.79 -109.45,256.24 -111.84,249.72 -114.24,243.21 -115.76,237.56 -117.29,231.91 -117.48,226.63 -117.66,221.35 -117.72,216.60 -117.77,211.84 -117.01,207.41 -116.26,202.98 -115.93,190.61 -115.60,178.24 -115.13,171.27 -114.67,164.30 -113.48,158.40 -112.29,152.51 -112.69,147.05 -113.08,141.59 -111.51,135.43 -109.94,129.27 -107.47,123.94 -105.01,118.61 -102.58,114.03 -100.15,109.45 -95.70,104.55 -91.25,99.64 -88.91,95.93 -86.56,92.23 -85.77,87.88 -84.99,83.54 -82.49,78.90 -80.00,74.26 -76.85,69.46 -73.70,64.66 -70.92,60.59 -68.14,56.51 -65.75,52.96 -63.35,49.41 -65.19,55.88 -67.03,62.35 -67.95,56.98 -68.87,51.62 -67.47,48.27 -66.08,44.91 -65.10,43.40 -64.13,41.88 -62.82,40.64 -61.52,39.41 -59.95,38.52 -58.38,37.63 -56.65,37.14 -54.92,36.65 -53.12,36.59 -51.32,36.53 -49.55,36.90 -47.79,37.27 -46.17,38.06 -44.55,38.84 -43.16,39.99 -41.77,41.14 -40.70,42.59 -39.63,44.04 -38.94,45.70 -38.24,47.36 -37.96,49.14 -37.69,50.92 -37.85,52.71 -38.00,54.51 -38.59,56.21 -39.17,57.92 -42.08,49.97 -45.00,42.03 -49.11,39.85 -53.23,37.67 -49.22,36.00 -45.21,34.33 -42.27,29.78 -39.32,25.23 -33.89,21.36 -28.46,17.49 -24.15,13.81 -19.83,10.13 -16.84,6.91 -13.84,3.69 -9.51,-0.43 -5.18,-4.57 -2.60,-10.79 -0.02,-17.01 4.66,-19.32 9.34,-21.63 13.92,-22.68 18.50,-23.73 22.74,-25.52 26.97,-27.30 33.72,-29.80 40.47,-32.30 45.06,-33.39 49.66,-34.49 55.18,-34.29 60.71,-34.09 65.15,-32.74 69.59,-31.38 73.76,-27.08 77.92,-22.77 79.30,-17.85 80.68,-12.93 78.38,-7.53 76.07,-2.13 73.72,1.57 71.37,5.27 67.51,9.52 63.65,13.76 60.08,16.44 56.51,19.11 51.80,22.67 47.09,26.22 40.51,30.77 33.93,35.31 30.18,37.55 26.43,39.79 21.82,42.93 17.21,46.08 13.98,49.49 10.76,52.89 6.35,59.04 1.95,65.19 -1.84,74.59 -5.64,83.99 -7.23,87.97 -8.82,91.94 -14.16,96.24 -19.50,100.53 -25.61,95.62 -31.73,90.70 -30.59,84.89 -29.45,79.08 -25.58,69.61 -21.72,60.14 -19.88,54.65 -18.04,49.17 -15.89,43.02 -13.75,36.88 -12.44,32.31 -11.13,27.75 -8.08,20.24 -5.04,12.73 -2.17,8.96 0.69,5.19 5.70,-1.73 10.71,-8.67 14.02,-12.23 17.32,-15.80 25.51,-21.87 33.70,-27.94 36.85,-19.24 40.00,-10.55 36.87,-5.18 33.75,0.18 27.79,5.95 21.83,11.73 14.88,19.33 7.94,26.92 3.55,30.95 -0.83,34.97 -4.43,39.75 -8.04,44.53 -13.80,51.17 -19.55,57.81 -22.38,61.89 -25.21,65.98 -28.19,71.40 -31.17,76.82 -32.89,82.39 -34.61,87.96 -35.37,92.67 -36.12,97.38 -37.00,103.11 -37.88,108.83 -38.47,113.76 -39.06,118.68 -41.59,123.67 -44.13,128.65 -47.67,134.64 -51.21,140.62 -53.68,145.94 -56.15,151.26 -58.67,159.67 -61.18,168.08 -63.32,180.21 -65.46,192.34 -66.43,199.63 -67.40,206.91 -70.46,214.76 -73.52,222.60 -75.65,229.16 -77.78,235.73 -81.60,240.27 -85.43,244.82 -84.71,249.47 -84.00,254.12 -80.00,258.58 -76.00,263.05 -73.54,267.92 -71.08,272.80 -70.16,274.36 -69.24,275.91 -68.27,277.25 -67.30,278.59 -66.67,280.12 -66.05,281.65 -65.81,283.29 -65.57,284.93 -65.73,286.57 -65.89,288.22 -66.44,289.78 -66.99,291.34 -67.90,292.72 -68.81,294.10 -70.02,295.23 -71.23,296.36 -72.68,297.16 -74.12,297.96 -75.72,298.40 -77.31,298.83 -78.97,298.87 -80.62,298.91 -82.23,298.55 -83.85,298.19 -85.33,297.46 -86.81,296.73 -88.08,295.66 -89.34,294.59 -94.85,289.62 -100.36,284.65 -102.57,278.56 -104.79,272.47 -106.03,262.37 -107.27,252.27 -107.94,247.92 -108.61,243.56 -109.20,237.60 -109.79,231.63 -110.41,226.82 -111.04,222.01 -111.24,217.35 -111.43,212.70 -111.39,211.06 -111.36,209.43 -110.93,207.84 -110.50,206.26 -109.71,204.83 -108.91,203.40 -107.80,202.19 -106.69,200.99 -105.32,200.09 -103.95,199.19 -102.40,198.64 -100.86,198.10 -99.23,197.94 -97.60,197.78 -95.97,198.01 -94.35,198.24 -92.83,198.86 -91.31,199.47 -89.99,200.44 -88.66,201.40 -87.60,202.65 -86.54,203.90 -85.81,205.37 -85.08,206.83 -84.73,208.43 -84.37,210.03 -83.37,215.62 -82.36,221.20 -78.83,230.74 -75.30,240.28 -72.79,244.63 -70.27,248.97 -67.09,252.61 -63.91,256.25 -60.82,259.75 -57.74,263.24 -56.93,264.53 -56.12,265.82 -55.64,267.26 -55.16,268.70 -55.04,270.22 -54.92,271.74 -55.17,273.24 -55.42,274.74 -56.02,276.14 -56.62,277.54 -57.53,278.75 -58.45,279.97 -59.63,280.93 -60.81,281.89 -62.19,282.53 -63.56,283.18 -65.06,283.48 -66.55,283.79 -68.07,283.72 -69.59,283.66 -71.05,283.23 -72.51,282.80 -73.83,282.04 -75.14,281.27 -76.24,280.22 -77.33,279.16 -77.23,271.14 -77.12,263.11 -76.29,252.95 -75.47,242.80 -74.22,237.10 -72.97,231.40 -71.68,225.12 -70.39,218.83 -69.03,211.91 -67.67,204.98 -67.01,198.38 -66.36,191.79 -65.70,183.83 -65.03,175.86 -65.26,169.76 -65.48,163.66 -65.76,158.60 -66.03,153.54 -66.19,145.20 -66.35,136.86 -65.36,131.17 -64.37,125.49 -62.65,119.30 -60.94,113.11 -59.04,107.81 -57.13,102.51 -55.61,97.55 -54.08,92.59 -53.08,86.06 -52.07,79.53 -50.51,75.12 -48.96,70.70 -46.47,66.62 -43.97,62.53 -40.85,58.97 -37.72,55.41 -36.32,51.35 -34.91,47.30 -34.20,45.87 -33.49,44.45 -32.45,43.23 -31.42,42.02 -30.13,41.09 -28.84,40.16 -27.36,39.57 -25.88,38.97 -24.30,38.75 -22.72,38.53 -21.14,38.69 -19.55,38.85 -18.05,39.39 -16.55,39.92 -15.23,40.80 -13.90,41.68 -12.82,42.85 -11.74,44.02 -10.97,45.42 -10.20,46.81 -9.79,48.35 -9.38,49.89 -9.35,51.49 -9.32,53.08 -9.67,54.63 -10.02,56.19 -9.87,60.86 -9.73,65.54 -12.49,80.05 -15.26,94.56 -16.30,101.05 -17.33,107.54 -21.92,121.85 -26.50,136.17 -28.94,143.23 -31.37,150.30 -32.20,157.30 -33.03,164.31 -32.80,171.82 -32.57,179.33 -32.19,184.40 -31.81,189.46 -31.74,190.22 -31.67,190.98 -31.83,192.33 -32.00,193.69 -32.49,194.96 -32.97,196.24 -33.75,197.36 -34.53,198.48 -35.55,199.39 -36.58,200.29 -37.79,200.92 -39.00,201.56 -40.32,201.88 -41.65,202.21 -43.02,202.20 -44.38,202.20 -45.71,201.87 -47.03,201.54 -48.24,200.90 -49.45,200.27 -50.47,199.36 -51.49,198.45 -52.26,197.33 -53.03,196.20 -53.52,194.92 -54.00,193.65 -54.16,192.29 -54.32,190.94 -54.22,184.09 -54.11,177.24 -53.30,169.22 -52.48,161.19 -51.66,156.98 -50.85,152.76 -48.99,145.92 -47.13,139.07 -49.54,131.06 -51.96,123.05 -50.66,116.55 -49.37,110.06 -46.58,105.12 -43.79,100.19 -42.03,93.16 -40.26,86.13 -38.17,82.31 -36.08,78.50 -31.03,69.32 -25.97,60.15 -19.59,54.70 -13.21,49.24 -4.12,43.12 4.97,36.99 11.31,34.32 17.65,31.66 22.39,30.46 27.14,29.25 33.67,24.13 40.19,19.00 42.44,14.87 44.69,10.73 49.72,7.49 54.75,4.25 61.25,2.42 67.76,0.59 74.00,0.95 80.24,1.30 84.85,8.05 89.46,14.79 87.49,21.48 85.52,28.16 82.21,31.21 78.90,34.25 74.44,36.65 69.99,39.04 65.81,42.04 61.64,45.03 55.26,50.17 48.89,55.30 45.73,58.93 42.57,62.56 39.68,66.70 36.79,70.85 31.84,76.46 26.90,82.07 21.14,86.87 15.38,91.67 10.73,99.84 6.08,108.01 4.67,112.04 3.25,116.06 -0.42,127.38 -4.10,138.69 -5.76,144.72 -7.42,150.74 -8.58,155.99 -9.74,161.25 -11.24,165.35 -12.74,169.45 -15.14,174.02 -17.55,178.59 -17.79,182.93 -18.03,187.26 -18.48,191.83 -18.93,196.40 -18.77,202.63 -18.62,208.86 -18.37,213.85 -18.13,218.84 -16.23,225.03 -14.33,231.22 -13.20,233.49 -12.06,235.76 -11.80,237.33 -11.54,238.90 -11.67,240.48 -11.79,242.06 -12.30,243.57 -12.80,245.08 -13.64,246.42 -14.49,247.76 -15.63,248.86 -16.78,249.97 -18.15,250.76 -19.53,251.56 -21.05,252.00 -22.58,252.44 -24.16,252.51 -25.75,252.57 -27.30,252.26 -28.86,251.94 -30.30,251.26 -31.73,250.59 -32.96,249.58 -34.19,248.58 -35.15,247.31 -36.10,246.04 -36.73,244.58 -37.35,243.12 -36.47,237.40 -35.58,231.67 -35.00,226.24 -34.42,220.80 -33.96,206.56 -33.50,192.31 -32.08,179.24 -30.66,166.17 -29.22,152.45 -27.78,138.73 -27.15,130.97 -26.53,123.21 -25.79,114.98 -25.05,106.75 -24.90,102.15 -24.75,97.56 -22.56,87.26 -20.36,76.97 -17.61,69.88 -14.87,62.80 -12.78,58.90 -10.69,54.99 -7.00,51.11 -3.31,47.22 -0.00,44.08 3.30,40.93 4.42,40.22 5.55,39.51 6.81,39.10 8.07,38.68 9.40,38.57 10.72,38.47 12.03,38.68 13.35,38.90 14.57,39.42 15.79,39.95 16.85,40.75 17.91,41.55 18.75,42.58 19.59,43.61 20.16,44.81 20.73,46.02 20.99,47.32 21.25,48.62 21.20,49.95 21.14,51.28 20.77,52.56 20.40,53.83 19.73,54.98 19.06,56.13 18.14,57.09 17.21,58.05 18.85,53.54 20.48,49.03 19.44,55.96 18.39,62.89 16.53,67.07 14.66,71.25 12.99,76.12 11.32,80.99 9.63,85.55 7.93,90.10 6.24,94.10 4.55,98.10 2.36,102.68 0.18,107.25 -2.71,113.19 -5.60,119.13 -8.13,125.53 -10.65,131.93 -13.02,138.49 -15.40,145.06 -16.08,149.58 -16.76,154.11 -17.01,158.69 -17.27,163.28 -17.95,171.61 -18.64,179.95 -19.75,184.81 -20.86,189.68 -21.03,194.86 -21.20,200.04 -21.06,205.38 -20.91,210.72 -20.93,215.10 -20.96,219.49 -20.84,225.87 -20.73,232.26 -18.98,239.40 -17.23,246.53 -17.09,253.19 -16.94,259.85 -16.03,264.52 -15.11,269.19 -13.43,275.10 -11.75,281.01 -9.06,288.55 -6.38,296.09 -3.53,303.01 -0.68,309.93 0.62,313.50 1.93,317.07 2.46,318.50 2.98,319.93 3.15,321.44 3.32,322.95 3.12,324.46 2.92,325.97 2.37,327.39 1.82,328.81 0.94,330.05 0.07,331.29 -1.07,332.29 -2.22,333.29 -3.58,333.99 -4.93,334.68 -6.41,335.03 -7.89,335.38 -9.42,335.37 -10.94,335.35 -12.41,334.97 -13.89,334.60 -15.23,333.88 -16.57,333.16 -17.70,332.14 -18.83,331.12 -19.68,329.85 -20.53,328.59 -22.47,324.79 -24.40,320.99 -25.42,316.65 -26.45,312.32 -28.02,303.91 -29.59,295.51 -30.51,288.44 -31.44,281.38 -32.90,274.82 -34.36,268.26 -37.23,262.55 -40.10,256.83 -41.70,250.34 -43.31,243.85 -43.60,236.38 -43.90,228.90 -44.04,222.06 -44.18,215.22 -44.41,210.90 -44.63,206.58 -44.71,205.24 -44.80,203.89 -44.61,202.36 -44.43,200.83 -43.88,199.38 -43.33,197.94 -42.46,196.67 -41.58,195.40 -40.43,194.38 -39.27,193.35 -37.90,192.63 -36.54,191.92 -35.04,191.55 -33.54,191.18 -32.00,191.18 -30.46,191.18 -28.96,191.55 -27.46,191.91 -26.09,192.63 -24.72,193.35 -23.57,194.37 -22.41,195.39 -21.54,196.66 -20.66,197.93 -20.11,199.38 -19.56,200.82 -19.38,202.35 -19.19,203.88 -17.27,211.00 -15.35,218.12 -13.71,223.58 -12.07,229.03 -7.77,244.02 -3.47,259.00 -0.48,268.19 2.49,277.39 4.91,282.11 7.32,286.84 9.48,292.50 11.64,298.17 14.38,303.47 17.12,308.77 18.43,313.93 19.73,319.08 20.46,324.36 21.19,329.65 22.73,333.84 24.27,338.03 28.88,342.18 33.48,346.32 33.03,355.33 32.58,364.33 24.55,366.75 16.51,369.17 11.05,366.63 5.59,364.09 1.16,362.36 -3.26,360.63 -7.75,357.90 -12.25,355.17 -16.84,350.65 -21.43,346.14 -23.84,341.78 -26.24,337.42 -31.02,327.20 -35.80,316.99 -37.95,313.15 -40.10,309.32 -42.52,303.80 -44.93,298.28 -39.62,291.84 -34.31,285.39 -30.46,290.88 -26.62,296.38 -24.69,301.20 -22.75,306.01 -19.72,310.17 -16.69,314.32 -12.46,317.70 -8.22,321.07 -5.28,324.37 -2.34,327.67 4.00,330.71 10.34,333.76 14.91,336.12 19.48,338.49 24.47,342.06 29.45,345.63 40.56,351.90 51.67,358.17 61.37,362.62 71.07,367.07 75.96,369.01 80.86,370.95 82.93,371.89 85.00,372.83 86.08,373.44 87.16,374.05 88.06,374.91 88.97,375.76 89.64,376.80 90.31,377.85 90.71,379.02 91.11,380.20 91.22,381.43 91.33,382.67 91.14,383.90 90.95,385.13 90.48,386.27 90.00,387.42 89.26,388.42 88.52,389.42 87.57,390.21 86.61,391.00 85.49,391.54 84.38,392.08 83.16,392.34 81.95,392.60 80.71,392.56 79.47,392.52 78.27,392.18 77.07,391.85 72.81,388.26 68.54,384.68 64.27,381.99 59.99,379.30 57.63,375.27 55.28,371.24 54.49,365.75 53.70,360.27 54.54,352.36 55.38,344.45 58.31,339.10 61.24,333.74 65.13,327.77 69.02,321.79 72.82,315.60 76.63,309.42 80.09,301.67 83.56,293.91 85.30,287.21 87.04,280.51 88.87,276.48 90.71,272.45 94.09,269.25 97.46,266.06 98.14,265.37 98.81,264.67 100.03,263.58 101.25,262.48 102.69,261.72 104.14,260.95 105.72,260.55 107.31,260.15 108.95,260.14 110.59,260.13 112.18,260.51 113.77,260.90 115.22,261.65 116.68,262.40 117.91,263.48 119.14,264.56 120.08,265.90 121.01,267.25 121.60,268.77 122.19,270.30 122.40,271.93 122.60,273.55 122.41,275.18 122.23,276.80 121.65,278.34 121.08,279.87 120.16,281.22 119.23,282.58 120.72,276.32 122.20,270.06 122.87,277.59 123.54,285.12 122.62,291.77 121.70,298.41 119.83,305.72 117.97,313.03 114.45,316.97 110.94,320.90 107.59,325.60 104.25,330.29 101.86,334.00 99.48,337.72 95.64,341.77 91.80,345.82 89.75,351.07 87.70,356.32 85.63,360.41 83.56,364.50 83.18,365.52 82.79,366.53 81.78,367.89 80.77,369.25 79.45,370.32 78.14,371.40 76.61,372.13 75.08,372.86 73.42,373.20 71.76,373.55 70.07,373.49 68.38,373.42 66.75,372.96 65.11,372.49 63.64,371.64 62.17,370.80 60.95,369.63 59.72,368.46 58.81,367.03 57.90,365.60 57.36,363.99 56.82,362.38 56.67,360.69 56.53,359.00 56.80,357.33 57.07,355.66 57.73,354.09 58.39,352.53 63.09,348.23 67.80,343.92 72.94,338.28 78.09,332.64 80.68,329.22 83.26,325.81 86.18,322.33 89.10,318.84 93.48,314.65 97.86,310.46 102.77,307.69 107.68,304.92 106.14,305.52 104.61,306.13 105.91,305.19 107.22,304.26 108.71,303.67 110.20,303.08 111.79,302.86 113.38,302.64 114.97,302.81 116.57,302.98 118.07,303.53 119.58,304.07 120.92,304.96 122.25,305.85 123.33,307.04 124.41,308.22 125.18,309.63 125.95,311.04 126.36,312.59 126.76,314.14 126.79,315.74 126.81,317.35 126.45,318.91 126.09,320.47 125.37,321.90 124.65,323.34 123.60,324.55 122.56,325.77 120.46,330.12 118.35,334.46 115.17,338.17 111.99,341.88 108.18,347.34 104.37,352.79 98.76,358.34 93.14,363.88 84.96,366.88 76.79,369.89 72.06,371.51 67.33,373.13 63.42,375.37 59.51,377.62 51.99,376.31 44.46,375.00 41.15,367.14 37.83,359.28 40.23,351.64 42.63,344.00 45.25,337.77 47.87,331.54 50.99,324.84 54.10,318.14 56.15,313.34 58.20,308.54 60.81,301.91 63.42,295.27 65.09,289.34 66.76,283.42 68.78,276.42 70.79,269.41 72.08,264.58 73.36,259.76 75.82,250.42 78.27,241.09 80.75,236.46 83.23,231.84 85.76,221.02 88.28,210.20 88.89,199.94 89.50,189.68 89.77,179.83 90.03,169.98 89.76,161.62 89.50,153.27 86.92,148.86 84.35,144.45 81.66,135.80 78.96,127.15 77.70,122.64 76.43,118.14 74.41,112.29 72.39,106.45 71.09,100.56 69.79,94.67 68.95,90.31 68.11,85.95 67.79,80.92 67.47,75.89 66.15,68.25 64.82,60.61 63.17,55.26 61.52,49.90 59.86,45.74 58.21,41.57 57.85,40.14 57.50,38.70 57.50,37.22 57.50,35.74 57.85,34.31 58.21,32.87 58.90,31.56 59.58,30.25 60.56,29.15 61.54,28.04 62.76,27.20 63.98,26.36 65.36,25.84 66.74,25.31 68.21,25.13 69.68,24.96 71.15,25.13 72.62,25.31 74.00,25.84 75.38,26.36 76.60,27.20 77.81,28.04 78.79,29.15 79.77,30.25 80.46,31.56 81.15,32.87 82.26,37.71 83.36,42.54 83.11,47.29 82.85,52.04 82.89,57.47 82.93,62.90 82.53,67.91 82.12,72.93 81.86,77.82 81.59,82.71 81.04,88.55 80.49,94.39 80.31,98.91 80.13,103.42 80.01,108.18 79.89,112.95 79.84,117.57 79.79,122.20 78.74,128.27 77.70,134.33 77.02,139.16 76.33,143.99 76.11,151.11 75.88,158.23 76.02,162.99 76.16,167.75 75.72,176.43 75.29,185.11 74.82,190.06 74.35,195.01 73.80,200.19 73.25,205.37 72.59,212.37 71.94,219.38 71.17,227.88 70.40,236.38 69.55,245.88 68.69,255.38 67.87,264.01 67.05,272.65 66.58,285.94 66.11,299.24 65.82,308.97 65.52,318.69 65.42,319.46 65.32,320.23 65.03,320.95 64.75,321.67 64.30,322.30 63.85,322.93 63.27,323.43 62.68,323.94 61.99,324.29 61.30,324.64 60.55,324.81 59.80,324.99 59.02,324.98 58.25,324.97 57.50,324.77 56.75,324.57 56.07,324.21 55.39,323.84 54.82,323.32 54.25,322.80 53.82,322.15 53.39,321.51 53.12,320.79 52.86,320.06 52.78,319.29 52.69,318.52 58.45,306.06 64.20,293.60 67.92,282.19 71.64,270.78 73.52,258.16 75.41,245.54 76.27,233.59 77.13,221.63 78.11,210.38 79.08,199.12 79.51,187.31 79.94,175.49 80.01,167.56 80.08,159.64 80.46,152.57 80.84,145.51 81.01,140.22 81.18,134.93 80.61,130.16 80.04,125.38 79.98,123.85 79.91,122.31 79.95,121.26 80.00,120.21 80.29,119.20 80.59,118.18 81.11,117.27 81.64,116.36 82.37,115.60 83.10,114.84 83.99,114.28 84.89,113.72 85.89,113.39 86.89,113.06 87.94,112.97 88.99,112.89 90.02,113.06 91.06,113.23 92.03,113.65 93.00,114.06 93.84,114.70 94.68,115.33 95.35,116.15 96.01,116.96 96.46,117.92 96.91,118.87 97.12,119.90 97.33,120.93 96.94,129.45 96.55,137.96 93.89,147.73 91.23,157.49 89.13,165.54 87.03,173.58 86.44,179.84 85.84,186.09 85.19,190.32 84.53,194.56 84.68,201.28 84.83,208.01 85.43,212.64 86.02,217.27 86.10,222.64 86.19,228.01 85.91,233.46 85.64,238.91 85.34,243.35 85.03,247.79 84.58,252.98 84.13,258.17 84.01,262.74 83.89,267.31 83.66,275.88 83.44,284.44 82.70,289.56 81.97,294.69 80.69,303.24 79.41,311.80 78.30,315.63 77.19,319.46 76.62,320.77 76.05,322.07 75.18,323.21 74.32,324.34 73.21,325.23 72.10,326.12 70.81,326.72 69.51,327.32 68.12,327.59 66.72,327.87 65.29,327.80 63.87,327.73 62.51,327.32 61.14,326.91 59.91,326.19 58.69,325.47 57.67,324.47 56.65,323.48 55.90,322.27 55.15,321.06 54.71,319.70 54.27,318.35 54.16,316.92 54.06,315.50 54.30,314.10 54.54,312.70 52.74,308.55 50.93,304.40 49.81,297.23 48.68,290.05 49.35,262.06 50.01,234.07 52.84,204.70 55.67,175.33 57.59,149.85 59.51,124.37 60.44,113.23 61.36,102.09 61.22,95.25 61.08,88.42 60.17,84.16 59.25,79.90 57.47,73.97 55.69,68.04 54.10,63.73 52.50,59.43 51.42,55.23 50.33,51.03 50.23,50.36 50.14,49.69 50.21,48.38 50.29,47.06 50.67,45.81 51.06,44.55 51.74,43.42 52.41,42.29 53.34,41.36 54.27,40.42 55.39,39.74 56.51,39.05 57.77,38.66 59.02,38.26 60.34,38.18 61.65,38.09 62.94,38.32 64.24,38.56 65.44,39.09 66.64,39.63 67.68,40.43 68.72,41.24 69.54,42.27 70.35,43.31 70.90,44.51 71.44,45.70 71.68,47.00 71.93,48.29 70.27,56.63 68.62,64.97 65.81,72.34 63.00,79.72 61.57,86.32 60.15,92.91 59.47,97.72 58.79,102.53 58.03,110.63 57.27,118.73 55.19,129.96 53.11,141.19 51.44,160.11 49.78,179.03 50.91,201.68 52.05,224.33 53.56,246.79 55.07,269.24 53.62,285.35 52.16,301.45 51.77,308.65 51.37,315.84 51.25,320.51 51.12,325.19 51.69,329.47 52.26,333.75 52.07,334.77 51.87,335.80 51.43,336.74 51.00,337.69 50.35,338.51 49.70,339.32 48.87,339.96 48.04,340.60 47.09,341.02 46.13,341.44 45.11,341.62 44.08,341.79 43.04,341.72 42.00,341.65 41.00,341.33 40.01,341.01 39.12,340.47 38.23,339.92 37.50,339.17 36.77,338.43 36.24,337.53 35.70,336.64 35.40,335.64 35.10,334.64 35.05,333.60 34.99,332.55 34.73,326.70 34.47,320.84 34.00,312.32 33.54,303.81 32.91,294.28 32.27,284.74 32.39,274.93 32.50,265.11 33.51,253.90 34.52,242.69 35.88,231.62 37.24,220.56 38.43,211.56 39.62,202.56 40.30,194.79 40.97,187.02 41.37,177.26 41.77,167.51 41.97,158.16 42.18,148.81 42.00,140.33 41.82,131.85 40.74,126.49 39.65,121.12 38.99,115.36 38.33,109.59 37.45,101.92 36.57,94.24 36.02,87.05 35.47,79.85 35.10,72.00 34.73,64.14 34.41,60.35 34.10,56.56 34.26,55.26 34.41,53.96 34.88,52.73 35.35,51.50 36.09,50.42 36.84,49.34 37.82,48.47 38.80,47.59 39.97,46.98 41.13,46.37 42.40,46.06 43.68,45.74 44.99,45.74 46.31,45.74 47.58,46.06 48.86,46.37 50.02,46.98 51.18,47.59 52.17,48.46 53.15,49.33 53.90,50.41 54.64,51.49 55.11,52.72 55.57,53.95 55.73,55.25 55.89,56.56 50.65,77.50 45.41,98.44 43.08,107.60 40.75,116.75 38.19,134.20 35.63,151.64 34.41,164.44 33.20,177.25 32.01,190.25 30.82,203.25 30.26,212.98 29.69,222.70 28.82,231.89 27.95,241.07 28.08,246.05 28.21,251.03 27.78,259.32 27.36,267.62 26.63,273.07 25.90,278.51 26.77,283.19 27.65,287.87 28.23,293.13 28.82,298.39 29.71,302.88 30.61,307.37 30.89,312.22 31.17,317.08 30.16,321.32 29.15,325.57 28.50,326.94 27.86,328.30 26.91,329.48 25.96,330.65 24.75,331.56 23.55,332.47 22.16,333.07 20.78,333.66 19.29,333.91 17.80,334.16 16.29,334.04 14.79,333.92 13.35,333.45 11.92,332.98 10.64,332.17 9.36,331.37 8.31,330.28 7.26,329.20 6.50,327.89 5.74,326.59 5.32,325.14 4.89,323.69 4.83,322.18 4.76,320.67 5.06,319.19 5.36,317.71 5.86,306.01 6.36,294.30 6.69,287.04 7.03,279.77 7.63,269.77 8.23,259.77 8.12,250.29 8.02,240.81 7.55,231.59 7.08,222.37 6.04,214.60 5.00,206.82 3.65,201.31 2.30,195.81 1.23,190.70 0.16,185.58 -0.41,179.96 -1.00,174.33 -1.47,168.09 -1.95,161.85 -3.49,155.00 -5.03,148.15 -6.12,143.59 -7.22,139.04 -8.47,134.48 -9.72,129.92 -10.57,124.85 -11.43,119.78 -14.37,114.57 -17.32,109.35 -19.30,104.94 -21.28,100.54 -21.98,96.08 -22.69,91.62 -21.26,86.62 -19.84,81.61 -16.79,78.39 -13.75,75.17 -5.65,75.97 2.45,76.78 6.12,80.00 9.79,83.22 12.18,88.55 14.56,93.88 16.22,99.56 17.88,105.23 18.70,112.24 19.52,119.25 19.95,123.91 20.37,128.56 20.74,135.87 21.11,143.18 20.94,150.56 20.77,157.94 18.96,165.39 17.15,172.84 13.53,186.66 9.92,200.49 5.79,215.57 1.67,230.65 0.10,241.38 -1.46,252.11 -1.43,257.25 -1.39,262.39 -1.27,266.38 -1.14,270.36 -1.43,271.77 -1.72,273.17 -2.45,274.41 -3.17,275.64 -4.25,276.59 -5.33,277.53 -6.66,278.07 -7.98,278.62 -9.41,278.72 -10.84,278.81 -12.23,278.45 -13.61,278.08 -14.81,277.29 -16.01,276.50 -16.89,275.37 -17.77,274.24 -18.24,272.89 -18.72,271.54 -18.74,270.10 -18.75,268.67 -18.31,267.31 -17.87,265.94 -17.02,264.79 -16.17,263.64 -14.99,262.82 -13.81,262.00 -12.44,261.60 -11.06,261.20 -9.63,261.26 -8.20,261.32 -6.86,261.83 -5.52,262.35 -4.42,263.26 -3.32,264.18 -2.56,265.40 -1.81,266.61 -1.48,268.01 -1.16,269.41 -1.29,270.83 -1.43,272.26 -2.02,273.57 -2.60,274.88 -3.57,275.93 -4.55,276.98 -5.80,277.67 -7.06,278.35 -8.47,278.60 -9.89,278.85 -11.30,278.64 -12.72,278.42 -13.99,277.77 -15.27,277.11 -16.27,276.08 -17.27,275.06 -17.88,273.76 -18.50,272.47 -18.67,271.05 -18.85,269.62 -18.85,269.63 -18.85,269.63 -18.39,265.66 -17.94,261.70 -17.46,256.08 -16.97,250.46 -16.14,238.59 -15.30,226.72 -12.41,211.61 -9.52,196.51 -7.47,182.61 -5.41,168.70 -4.39,159.45 -3.37,150.20 -3.33,144.02 -3.30,137.84 -3.76,130.33 -4.22,122.83 -6.51,113.82 -8.80,104.82 -10.12,99.46 -11.45,94.11 -3.98,95.53 3.48,96.96 6.93,104.10 10.38,111.24 11.06,116.29 11.74,121.34 12.50,126.27 13.26,131.21 13.70,136.75 14.14,142.29 14.10,146.62 14.06,150.95 14.63,155.82 15.20,160.69 15.57,166.99 15.94,173.30 16.00,178.25 16.05,183.21 16.48,188.11 16.91,193.01 17.74,198.88 18.57,204.76 19.95,212.93 21.34,221.11 22.51,230.49 23.69,239.87 24.74,249.81 25.80,259.74 26.42,269.71 27.05,279.68 27.45,286.93 27.85,294.19 28.50,309.88 29.15,325.57 28.51,326.94 27.86,328.30 26.91,329.47 25.96,330.65 24.76,331.56 23.55,332.47 22.16,333.07 20.78,333.66 19.29,333.91 17.80,334.16 16.29,334.04 14.79,333.92 13.35,333.45 11.92,332.98 10.64,332.17 9.36,331.37 8.31,330.29 7.26,329.20 6.50,327.89 5.74,326.59 5.32,325.14 4.89,323.69 4.83,322.18 4.76,320.67 5.06,319.19 5.36,317.71 6.08,317.23 6.81,316.74 7.06,312.37 7.31,308.00 7.15,303.51 6.99,299.02 7.17,294.76 7.35,290.51 7.33,283.32 7.31,276.14 9.33,269.86 11.35,263.58 13.04,256.87 14.73,250.17 15.50,245.14 16.26,240.10 16.89,231.15 17.52,222.19 17.79,212.24 18.05,202.29 18.81,189.28 19.57,176.26 20.24,163.03 20.92,149.81 22.79,131.70 24.66,113.60 26.00,104.07 27.33,94.53 30.72,75.55 34.10,56.57 34.26,55.26 34.41,53.96 34.88,52.73 35.34,51.50 36.09,50.42 36.84,49.34 37.82,48.47 38.80,47.59 39.96,46.98 41.13,46.37 42.40,46.06 43.68,45.74 44.99,45.74 46.30,45.74 47.58,46.06 48.86,46.37 50.02,46.98 51.18,47.59 52.17,48.46 53.15,49.33 53.90,50.41 54.64,51.49 55.11,52.72 55.57,53.95 55.73,55.25 55.89,56.56 55.58,60.35 55.27,64.13 54.91,71.97 54.55,79.81 54.06,86.90 53.57,93.99 53.04,101.43 52.50,108.87 52.41,114.24 52.33,119.62 52.59,125.59 52.85,131.55 53.13,140.26 53.41,148.97 53.35,158.43 53.28,167.88 53.04,178.01 52.81,188.15 51.98,196.06 51.15,203.96 50.17,212.92 49.19,221.87 48.14,232.74 47.08,243.62 46.48,254.28 45.87,264.93 46.25,274.09 46.63,283.25 47.97,292.66 49.31,302.07 50.77,311.08 52.24,320.08 52.25,326.91 52.26,333.75 52.07,334.77 51.87,335.79 51.43,336.74 51.00,337.69 50.35,338.51 49.70,339.32 48.87,339.96 48.04,340.60 47.09,341.02 46.13,341.44 45.11,341.62 44.08,341.79 43.04,341.72 42.00,341.65 41.00,341.33 40.01,341.01 39.12,340.47 38.23,339.92 37.50,339.17 36.77,338.43 36.24,337.53 35.70,336.64 35.40,335.64 35.10,334.64 35.05,333.60 34.99,332.55 34.88,332.21 34.77,331.87 35.58,327.69 36.39,323.50 37.29,319.18 38.19,314.86 38.86,307.65 39.53,300.44 40.58,285.36 41.63,270.29 39.56,247.78 37.49,225.28 35.62,201.67 33.74,178.06 34.46,158.49 35.19,138.92 36.02,127.23 36.85,115.54 38.24,107.41 39.62,99.27 40.58,94.48 41.54,89.69 42.62,81.82 43.69,73.95 45.41,66.22 47.13,58.50 48.64,54.10 50.14,49.69 50.21,48.38 50.29,47.07 50.67,45.81 51.06,44.55 51.74,43.42 52.41,42.29 53.34,41.36 54.27,40.42 55.39,39.74 56.51,39.05 57.77,38.66 59.02,38.26 60.33,38.18 61.65,38.09 62.94,38.32 64.24,38.56 65.44,39.09 66.64,39.63 67.68,40.43 68.72,41.24 69.54,42.27 70.35,43.31 70.90,44.50 71.44,45.70 71.68,47.00 71.93,48.29 72.00,52.60 72.07,56.91 72.70,61.29 73.33,65.68 73.88,71.86 74.44,78.04 74.68,83.22 74.92,88.40 74.78,95.64 74.65,102.89 74.24,114.07 73.83,125.25 72.60,150.93 71.37,176.60 69.51,205.38 67.64,234.15 68.08,260.43 68.51,286.72 69.55,292.24 70.60,297.76 73.89,308.61 77.19,319.46 76.62,320.77 76.05,322.07 75.19,323.20 74.32,324.34 73.21,325.23 72.10,326.12 70.81,326.72 69.51,327.32 68.12,327.59 66.72,327.87 65.30,327.80 63.87,327.73 62.51,327.32 61.14,326.91 59.92,326.19 58.69,325.47 57.67,324.47 56.65,323.48 55.90,322.27 55.15,321.06 54.71,319.70 54.27,318.35 54.16,316.93 54.06,315.50 54.30,314.10 54.54,312.70 55.23,311.42 55.91,310.15 57.61,305.48 59.30,300.81 59.72,296.10 60.13,291.39 60.82,287.09 61.51,282.80 62.10,274.62 62.69,266.44 62.96,261.38 63.23,256.31 64.25,247.00 65.27,237.69 65.81,228.50 66.35,219.31 65.86,213.51 65.36,207.71 66.09,201.09 66.81,194.48 68.58,189.41 70.35,184.34 71.24,177.36 72.13,170.38 73.52,162.18 74.92,153.97 76.43,144.43 77.93,134.90 78.92,128.61 79.91,122.31 79.95,121.26 80.00,120.21 80.29,119.20 80.58,118.19 81.11,117.27 81.64,116.36 82.37,115.60 83.10,114.84 83.99,114.28 84.88,113.72 85.88,113.39 86.88,113.06 87.93,112.97 88.98,112.89 90.02,113.06 91.06,113.23 92.03,113.65 93.00,114.06 93.84,114.69 94.68,115.33 95.35,116.15 96.01,116.96 96.46,117.92 96.91,118.87 97.12,119.90 97.33,120.93 96.91,122.24 96.50,123.55 95.82,130.00 95.15,136.44 94.19,141.56 93.24,146.68 92.33,153.28 91.43,159.87 91.17,167.86 90.91,175.84 90.55,187.94 90.20,200.03 89.35,211.20 88.50,222.38 87.76,234.79 87.03,247.21 85.15,260.81 83.28,274.41 79.51,286.81 75.73,299.21 70.63,308.95 65.52,318.69 65.42,319.46 65.32,320.23 65.03,320.95 64.75,321.66 64.30,322.30 63.85,322.93 63.27,323.43 62.68,323.94 61.99,324.29 61.30,324.64 60.55,324.81 59.80,324.99 59.02,324.98 58.25,324.97 57.50,324.77 56.75,324.58 56.07,324.21 55.39,323.84 54.82,323.32 54.25,322.80 53.82,322.16 53.39,321.51 53.12,320.79 52.86,320.06 52.78,319.29 52.69,318.52 52.56,308.79 52.42,299.05 52.31,285.49 52.20,271.92 52.22,263.37 52.25,254.81 52.04,245.50 51.84,236.20 51.24,227.50 50.63,218.81 50.37,211.06 50.11,203.31 50.48,198.14 50.85,192.97 51.21,188.44 51.56,183.90 51.63,178.44 51.71,172.98 51.92,167.92 52.14,162.87 52.51,156.47 52.89,150.07 53.25,145.55 53.61,141.04 54.24,135.75 54.87,130.46 55.58,126.24 56.28,122.02 56.28,117.33 56.28,112.65 56.29,107.67 56.29,102.69 56.40,97.82 56.51,92.95 56.63,87.53 56.76,82.11 56.75,76.72 56.73,71.34 56.91,67.08 57.08,62.82 57.19,57.13 57.29,51.43 57.75,46.50 58.21,41.57 57.85,40.14 57.50,38.70 57.50,37.22 57.50,35.74 57.85,34.31 58.21,32.87 58.90,31.56 59.58,30.25 60.56,29.15 61.54,28.04 62.76,27.20 63.98,26.36 65.36,25.84 66.74,25.31 68.21,25.13 69.68,24.96 71.15,25.13 72.61,25.31 74.00,25.84 75.38,26.36 76.60,27.20 77.81,28.04 78.79,29.15 79.77,30.25 80.46,31.56 81.15,32.87 82.59,37.46 84.04,42.04 86.16,47.48 88.27,52.92 90.47,62.99 92.66,73.06 92.44,77.56 92.22,82.06 92.40,86.47 92.58,90.89 92.47,95.21 92.37,99.54 93.93,106.42 95.48,113.29 96.78,122.17 98.07,131.05 100.30,136.21 102.54,141.38 103.55,146.69 104.56,152.00 105.69,160.74 106.82,169.48 107.67,179.57 108.52,189.66 109.15,201.95 109.78,214.25 108.85,221.31 107.92,228.38 106.54,235.24 105.15,242.10 101.35,249.73 97.55,257.36 96.92,263.64 96.28,269.92 94.77,274.17 93.26,278.41 91.11,284.25 88.96,290.10 86.84,295.86 84.72,301.62 81.31,309.35 77.91,317.08 75.97,321.51 74.03,325.93 71.84,332.82 69.64,339.71 67.88,345.16 66.12,350.61 62.27,354.61 58.42,358.62 52.85,357.06 47.28,355.50 52.91,352.59 58.54,349.68 63.19,347.79 67.84,345.90 74.29,343.06 80.73,340.23 83.65,336.46 86.58,332.68 89.23,328.76 91.89,324.83 95.67,319.85 99.45,314.86 102.03,310.50 104.61,306.13 105.91,305.20 107.22,304.26 108.71,303.67 110.20,303.08 111.79,302.86 113.38,302.64 114.97,302.81 116.57,302.98 118.07,303.53 119.58,304.07 120.92,304.96 122.25,305.85 123.33,307.04 124.41,308.22 125.18,309.63 125.95,311.04 126.36,312.59 126.76,314.14 126.79,315.74 126.81,317.35 126.45,318.91 126.09,320.47 125.37,321.90 124.65,323.34 123.60,324.55 122.56,325.77 119.30,327.96 116.04,330.15 112.45,332.57 108.86,334.99 104.28,340.92 99.70,346.86 95.24,353.82 90.78,360.77 86.79,363.65 82.80,366.53 81.78,367.89 80.77,369.24 79.46,370.32 78.15,371.40 76.62,372.13 75.09,372.86 73.43,373.20 71.77,373.55 70.07,373.49 68.38,373.42 66.75,372.96 65.12,372.49 63.65,371.65 62.17,370.80 60.95,369.63 59.72,368.46 58.81,367.03 57.90,365.60 57.36,363.99 56.82,362.39 56.68,360.70 56.53,359.01 56.80,357.33 57.07,355.66 57.73,354.10 58.39,352.53 60.40,348.62 62.40,344.71 64.43,339.78 66.46,334.85 69.76,330.23 73.05,325.61 75.99,322.34 78.93,319.07 83.30,313.75 87.68,308.42 91.81,302.22 95.93,296.01 96.45,287.96 96.96,279.91 97.88,272.29 98.81,264.67 100.03,263.58 101.24,262.49 102.69,261.72 104.14,260.95 105.72,260.55 107.31,260.15 108.95,260.14 110.59,260.13 112.18,260.51 113.77,260.90 115.22,261.65 116.68,262.40 117.91,263.48 119.14,264.56 120.08,265.90 121.01,267.25 121.60,268.77 122.19,270.30 122.40,271.93 122.60,273.55 122.41,275.18 122.23,276.80 121.65,278.34 121.08,279.87 120.16,281.22 119.23,282.57 118.50,283.02 117.76,283.48 113.92,287.46 110.09,291.45 108.96,297.09 107.84,302.73 106.39,307.04 104.93,311.34 101.72,317.34 98.51,323.34 94.88,329.41 91.26,335.48 87.61,341.08 83.96,346.67 81.29,351.24 78.61,355.80 78.32,360.04 78.03,364.29 81.51,368.56 85.00,372.83 86.08,373.44 87.16,374.05 88.06,374.91 88.97,375.76 89.64,376.80 90.31,377.85 90.71,379.02 91.11,380.20 91.22,381.43 91.33,382.67 91.14,383.90 90.95,385.12 90.48,386.27 90.00,387.42 89.26,388.42 88.52,389.41 87.57,390.21 86.61,391.00 85.49,391.54 84.38,392.08 83.16,392.34 81.95,392.60 80.71,392.56 79.47,392.52 78.27,392.18 77.08,391.85 75.15,390.55 73.22,389.25 68.70,387.26 64.18,385.27 53.08,381.84 41.98,378.42 28.52,372.92 15.05,367.41 8.79,363.77 2.52,360.12 -1.76,358.16 -6.06,356.20 -13.57,351.63 -21.08,347.05 -25.57,342.06 -30.05,337.07 -33.36,334.19 -36.67,331.31 -40.05,326.35 -43.42,321.40 -46.40,314.21 -49.38,307.03 -52.22,299.61 -55.06,292.19 -54.86,287.00 -54.66,281.82 -49.83,276.66 -44.99,271.50 -37.81,274.30 -30.62,277.10 -27.38,282.89 -24.14,288.68 -21.88,293.29 -19.62,297.90 -17.54,301.66 -15.45,305.43 -8.91,314.96 -2.38,324.49 1.53,329.60 5.44,334.72 10.59,336.77 15.74,338.83 20.38,341.42 25.01,344.02 20.93,346.44 16.85,348.86 16.36,356.54 15.88,364.22 11.87,360.83 7.85,357.44 5.00,351.05 2.16,344.66 0.75,339.82 -0.64,334.98 -0.80,328.45 -0.96,321.91 -1.49,317.14 -2.02,312.38 -3.60,308.24 -5.18,304.11 -6.76,299.15 -8.35,294.20 -10.69,288.80 -13.03,283.41 -17.18,274.21 -21.32,265.01 -27.03,250.24 -32.75,235.47 -34.37,230.45 -35.99,225.42 -40.40,214.66 -44.80,203.89 -44.61,202.36 -44.43,200.83 -43.88,199.38 -43.33,197.94 -42.46,196.67 -41.58,195.40 -40.43,194.38 -39.27,193.35 -37.91,192.64 -36.54,191.92 -35.04,191.55 -33.54,191.18 -32.00,191.18 -30.46,191.18 -28.96,191.54 -27.46,191.91 -26.09,192.63 -24.73,193.35 -23.57,194.37 -22.41,195.39 -21.54,196.66 -20.66,197.93 -20.11,199.38 -19.56,200.82 -19.38,202.35 -19.19,203.88 -19.27,205.23 -19.36,206.57 -19.57,210.86 -19.79,215.15 -19.87,221.89 -19.96,228.64 -19.97,235.17 -19.99,241.71 -18.68,247.27 -17.38,252.82 -15.52,257.52 -13.67,262.22 -11.10,269.52 -8.54,276.82 -6.74,283.43 -4.95,290.04 -2.75,299.35 -0.56,308.66 0.68,312.86 1.93,317.07 2.45,318.50 2.98,319.92 3.15,321.44 3.32,322.95 3.12,324.46 2.92,325.97 2.37,327.39 1.82,328.80 0.94,330.05 0.07,331.29 -1.07,332.29 -2.22,333.29 -3.58,333.99 -4.93,334.68 -6.41,335.03 -7.89,335.38 -9.41,335.37 -10.94,335.35 -12.41,334.97 -13.88,334.60 -15.23,333.88 -16.57,333.16 -17.70,332.14 -18.83,331.12 -19.68,329.86 -20.53,328.59 -20.26,328.95 -19.99,329.30 -22.00,322.91 -24.01,316.52 -25.94,311.26 -27.86,305.99 -31.71,297.28 -35.55,288.57 -37.33,281.70 -39.10,274.82 -41.04,267.32 -42.98,259.82 -43.07,253.60 -43.15,247.37 -44.21,239.83 -45.26,232.29 -45.14,225.87 -45.01,219.45 -45.03,215.01 -45.04,210.56 -44.79,204.74 -44.55,198.92 -43.95,194.57 -43.36,190.23 -41.65,183.87 -39.94,177.52 -38.77,169.63 -37.60,161.75 -37.09,156.21 -36.58,150.66 -35.47,144.89 -34.36,139.12 -32.52,132.28 -30.67,125.45 -28.69,117.91 -26.70,110.36 -24.39,103.79 -22.09,97.22 -18.91,90.00 -15.74,82.78 -13.32,77.66 -10.89,72.54 -8.41,66.83 -5.92,61.11 -2.52,56.39 0.88,51.68 2.09,46.30 3.30,40.93 4.42,40.22 5.55,39.51 6.81,39.10 8.07,38.68 9.40,38.57 10.72,38.47 12.03,38.68 13.34,38.90 14.57,39.42 15.79,39.95 16.85,40.75 17.91,41.55 18.75,42.58 19.59,43.61 20.16,44.81 20.73,46.02 20.99,47.32 21.25,48.62 21.20,49.95 21.14,51.28 20.77,52.56 20.40,53.83 19.73,54.98 19.06,56.13 18.14,57.09 17.22,58.05 13.99,60.32 10.76,62.60 6.62,67.16 2.47,71.73 -0.67,77.24 -3.83,82.76 -5.72,87.62 -7.61,92.48 -8.93,100.01 -10.25,107.55 -10.40,115.75 -10.55,123.96 -10.66,131.88 -10.76,139.80 -11.05,153.51 -11.34,167.21 -11.27,179.44 -11.21,191.67 -9.88,207.17 -8.55,222.68 -10.30,229.22 -12.06,235.76 -11.80,237.33 -11.54,238.90 -11.67,240.48 -11.79,242.06 -12.30,243.57 -12.80,245.08 -13.64,246.42 -14.49,247.76 -15.63,248.86 -16.78,249.96 -18.15,250.76 -19.53,251.56 -21.05,252.00 -22.57,252.44 -24.16,252.51 -25.75,252.57 -27.30,252.26 -28.86,251.94 -30.30,251.26 -31.73,250.59 -32.96,249.58 -34.19,248.58 -35.15,247.31 -36.10,246.04 -36.73,244.58 -37.35,243.12 -37.37,243.38 -37.38,243.63 -39.21,238.59 -41.03,233.54 -42.33,223.98 -43.63,214.41 -43.37,209.27 -43.11,204.13 -42.76,199.22 -42.41,194.32 -41.40,189.15 -40.38,183.98 -38.40,176.12 -36.42,168.25 -32.48,162.53 -28.55,156.81 -27.20,151.29 -25.85,145.76 -24.32,139.95 -22.78,134.14 -20.84,123.32 -18.89,112.50 -16.33,106.68 -13.76,100.87 -10.57,90.93 -7.38,81.00 -4.48,77.80 -1.59,74.61 3.33,68.78 8.25,62.94 11.42,59.50 14.59,56.06 18.87,49.30 23.16,42.53 29.90,35.60 36.65,28.67 40.76,25.42 44.88,22.18 50.08,18.37 55.29,14.57 60.51,14.46 65.73,14.35 69.74,21.17 73.74,27.99 69.33,28.36 64.91,28.73 62.00,32.76 59.09,36.79 54.60,39.27 50.12,41.76 45.76,45.29 41.40,48.81 37.41,50.55 33.41,52.28 29.07,53.48 24.73,54.67 20.56,55.97 16.40,57.26 9.92,61.74 3.43,66.23 -3.11,73.14 -9.67,80.05 -10.32,84.96 -10.98,89.87 -14.18,95.98 -17.38,102.09 -19.64,107.52 -21.90,112.95 -24.03,118.62 -26.15,124.29 -24.47,131.26 -22.78,138.22 -24.22,145.13 -25.66,152.04 -27.27,157.87 -28.87,163.70 -29.80,171.43 -30.73,179.15 -31.20,185.06 -31.67,190.98 -31.83,192.33 -32.00,193.69 -32.49,194.96 -32.97,196.24 -33.75,197.36 -34.53,198.48 -35.55,199.39 -36.58,200.29 -37.79,200.92 -39.00,201.56 -40.32,201.88 -41.65,202.21 -43.01,202.20 -44.38,202.20 -45.70,201.87 -47.03,201.54 -48.24,200.91 -49.45,200.27 -50.47,199.36 -51.49,198.45 -52.26,197.33 -53.03,196.20 -53.52,194.93 -54.00,193.65 -54.16,192.29 -54.32,190.94 -54.25,190.17 -54.17,189.40 -53.74,184.25 -53.30,179.11 -52.79,171.25 -52.28,163.40 -50.22,154.22 -48.17,145.05 -46.24,138.16 -44.31,131.26 -41.34,118.14 -38.37,105.02 -37.85,98.37 -37.34,91.71 -36.36,74.01 -35.38,56.32 -35.15,51.81 -34.91,47.30 -34.20,45.87 -33.49,44.45 -32.45,43.24 -31.42,42.02 -30.13,41.09 -28.84,40.16 -27.36,39.57 -25.88,38.97 -24.30,38.75 -22.73,38.53 -21.14,38.69 -19.56,38.85 -18.06,39.39 -16.56,39.92 -15.23,40.80 -13.90,41.68 -12.82,42.85 -11.74,44.02 -10.97,45.42 -10.20,46.81 -9.79,48.35 -9.38,49.89 -9.35,51.48 -9.32,53.08 -9.67,54.63 -10.02,56.18 -10.39,57.35 -10.75,58.51 -13.89,64.45 -17.03,70.39 -21.69,74.66 -26.35,78.92 -28.33,83.65 -30.30,88.39 -32.19,94.57 -34.09,100.75 -36.16,105.20 -38.23,109.66 -39.95,113.96 -41.68,118.25 -43.10,123.81 -44.51,129.36 -45.48,133.73 -46.44,138.11 -47.07,145.66 -47.69,153.22 -47.79,158.15 -47.89,163.08 -47.69,169.67 -47.50,176.25 -47.20,184.61 -46.90,192.97 -47.10,200.43 -47.30,207.88 -47.96,215.08 -48.62,222.27 -49.37,228.92 -50.12,235.57 -50.97,241.35 -51.82,247.14 -52.52,252.02 -53.23,256.89 -53.24,262.39 -53.24,267.89 -54.71,272.32 -56.18,276.75 -56.96,270.00 -57.74,263.24 -56.93,264.53 -56.12,265.81 -55.64,267.26 -55.16,268.70 -55.04,270.22 -54.92,271.74 -55.17,273.24 -55.42,274.74 -56.02,276.14 -56.62,277.54 -57.53,278.75 -58.45,279.97 -59.63,280.93 -60.81,281.89 -62.19,282.53 -63.56,283.18 -65.06,283.48 -66.55,283.79 -68.07,283.72 -69.59,283.66 -71.05,283.23 -72.51,282.80 -73.82,282.04 -75.14,281.27 -76.24,280.22 -77.33,279.16 -79.87,275.86 -82.41,272.57 -86.81,266.71 -91.22,260.85 -93.92,255.27 -96.63,249.68 -99.80,243.42 -102.97,237.17 -104.81,232.36 -106.65,227.56 -109.04,220.13 -111.43,212.70 -111.39,211.07 -111.36,209.43 -110.93,207.85 -110.50,206.26 -109.71,204.83 -108.91,203.40 -107.80,202.19 -106.69,200.99 -105.32,200.09 -103.95,199.19 -102.40,198.64 -100.86,198.10 -99.23,197.94 -97.60,197.78 -95.98,198.01 -94.35,198.24 -92.83,198.86 -91.32,199.47 -89.99,200.44 -88.66,201.40 -87.60,202.65 -86.54,203.90 -85.81,205.37 -85.09,206.83 -84.73,208.43 -84.37,210.03 -84.80,213.29 -85.22,216.55 -84.51,223.11 -83.80,229.68 -83.49,234.43 -83.18,239.17 -82.35,243.44 -81.53,247.71 -80.03,253.93 -78.53,260.15 -78.12,265.95 -77.71,271.74 -73.48,273.83 -69.24,275.91 -68.27,277.25 -67.30,278.59 -66.67,280.12 -66.05,281.65 -65.81,283.29 -65.57,284.93 -65.73,286.57 -65.89,288.22 -66.44,289.78 -66.99,291.34 -67.90,292.72 -68.81,294.10 -70.02,295.23 -71.23,296.35 -72.67,297.16 -74.12,297.96 -75.72,298.40 -77.31,298.83 -78.96,298.87 -80.62,298.91 -82.23,298.55 -83.85,298.19 -85.33,297.46 -86.81,296.73 -88.07,295.66 -89.34,294.59 -89.61,293.93 -89.89,293.27 -92.02,289.50 -94.16,285.74 -95.99,281.63 -97.82,277.51 -99.29,273.10 -100.76,268.69 -103.82,264.17 -106.88,259.66 -107.08,253.69 -107.28,247.71 -106.01,242.43 -104.73,237.15 -100.52,232.21 -96.30,227.28 -93.62,221.58 -90.94,215.88 -88.91,210.52 -86.88,205.16 -86.69,197.62 -86.50,190.08 -85.91,176.79 -85.32,163.51 -84.21,156.17 -83.11,148.83 -81.53,144.48 -79.95,140.13 -77.99,135.62 -76.03,131.11 -71.92,123.95 -67.81,116.79 -65.95,112.76 -64.08,108.74 -62.65,102.83 -61.23,96.93 -60.33,92.56 -59.43,88.19 -57.90,81.74 -56.37,75.29 -53.19,70.29 -50.00,65.29 -46.11,59.61 -42.22,53.93 -39.26,49.84 -36.29,45.75 -29.18,35.17 -22.07,24.59 -15.07,17.83 -8.06,11.07 -4.60,7.43 -1.14,3.79 1.86,0.00 4.86,-3.79 10.17,-10.11 15.47,-16.44 19.27,-12.81 23.07,-9.17 31.02,-10.74 38.97,-12.31 35.81,-5.54 32.66,1.22 27.97,6.70 23.28,12.18 18.73,17.98 14.17,23.78 11.59,28.82 9.00,33.86 7.51,38.50 6.03,43.15 4.31,49.21 2.59,55.27 0.75,62.26 -1.09,69.25 -3.07,74.00 -5.05,78.76 -8.05,85.15 -11.05,91.54 -18.17,84.15 -25.29,76.77 -23.14,69.96 -20.99,63.14 -19.03,58.73 -17.08,54.32 -10.83,43.18 -4.57,32.03 -1.42,29.14 1.71,26.25 9.64,20.07 17.57,13.88 23.57,9.29 29.56,4.70 36.22,-0.25 42.88,-5.22 47.21,-10.68 51.53,-16.13 54.13,-11.03 56.73,-5.93 51.20,-4.44 45.67,-2.94 40.49,-0.20 35.30,2.52 28.26,3.06 21.22,3.60 18.81,9.07 16.39,14.55 12.79,18.15 9.19,21.76 5.71,25.11 2.24,28.46 -2.05,32.92 -6.35,37.38 -10.67,40.07 -14.98,42.75 -20.11,49.68 -25.24,56.60 -29.57,59.40 -33.89,62.19 -38.60,64.05 -43.31,65.92 -47.71,66.82 -52.12,67.72 -56.73,65.55 -61.34,63.39 -63.52,59.18 -65.69,54.97 -65.88,49.94 -66.08,44.92 -65.10,43.40 -64.13,41.88 -62.82,40.65 -61.52,39.41 -59.95,38.52 -58.38,37.63 -56.65,37.14 -54.92,36.65 -53.12,36.59 -51.32,36.53 -49.55,36.90 -47.79,37.27 -46.17,38.06 -44.55,38.84 -43.16,39.99 -41.77,41.14 -40.70,42.59 -39.63,44.03 -38.94,45.70 -38.24,47.36 -37.96,49.14 -37.69,50.92 -37.85,52.71 -38.00,54.51 -38.59,56.21 -39.17,57.92 -39.39,54.40 -39.61,50.89 -39.31,56.04 -39.01,61.19 -40.67,65.37 -42.32,69.56 -45.20,74.25 -48.08,78.95 -51.13,83.36 -54.19,87.77 -56.93,93.59 -59.68,99.40 -61.79,104.94 -63.91,110.48 -66.87,114.55 -69.84,118.62 -73.72,122.53 -77.61,126.43 -79.95,131.24 -82.30,136.05 -83.12,141.53 -83.94,147.00 -84.78,152.22 -85.62,157.44 -86.95,162.55 -88.28,167.65 -88.63,173.32 -88.99,178.99 -88.49,185.98 -87.98,192.97 -87.40,197.45 -86.82,201.93 -87.52,206.92 -88.22,211.92 -88.25,216.51 -88.29,221.10 -88.24,226.30 -88.19,231.50 -86.26,238.02 -84.33,244.53 -82.57,249.17 -80.81,253.80 -80.52,258.59 -80.23,263.38 -78.52,269.04 -76.82,274.71 -74.20,280.19 -71.58,285.67 -67.75,292.73 -63.91,299.80 -59.68,303.92 -55.45,308.05 -52.94,312.76 -50.43,317.47 -47.11,322.90 -43.79,328.33 -38.17,332.25 -32.54,336.17 -28.10,340.02 -23.66,343.87 -18.94,346.62 -14.23,349.37 -10.41,351.33 -6.59,353.30 -1.00,356.15 4.57,359.01 9.41,360.17 14.25,361.33 19.18,361.87 24.10,362.42 25.83,362.73 27.56,363.05 29.16,363.77 30.77,364.49 32.15,365.57 33.54,366.65 34.62,368.04 35.71,369.42 36.43,371.02 37.15,372.62 37.47,374.35 37.79,376.08 37.69,377.84 37.58,379.59 37.06,381.27 36.54,382.95 35.63,384.45 34.72,385.96 33.48,387.20 32.24,388.45 30.73,389.36 29.23,390.27 27.55,390.79 25.87,391.32 24.12,391.43 22.36,391.53 20.82,391.42 19.28,391.30 15.08,390.17 10.89,389.04 6.46,387.49 2.04,385.94 -2.24,383.75 -6.54,381.56 -11.36,379.65 -16.18,377.73 -21.12,375.07 -26.06,372.41 -33.88,368.10 -41.69,363.79 -44.40,360.36 -47.11,356.93 -50.92,350.23 -54.74,343.54 -55.41,337.81 -56.07,332.09 -55.29,327.13 -54.51,322.18 -56.90,318.36 -59.30,314.53 -61.58,310.87 -63.86,307.20 -65.26,302.61 -66.66,298.02 -68.11,293.40 -69.57,288.78 -71.34,283.78 -73.10,278.79 -75.39,273.66 -77.68,268.53 -78.05,261.75 -78.42,254.97 -80.08,250.06 -81.75,245.15 -82.81,240.42 -83.87,235.70 -85.32,228.92 -86.77,222.15 -87.81,215.56 -88.85,208.98 -89.65,204.39 -90.45,199.79 -91.61,191.51 -92.76,183.23 -92.83,178.30 -92.89,173.37 -92.88,167.43 -92.88,161.49 -92.85,156.59 -92.82,151.68 -92.81,146.59 -92.80,141.49 -92.75,136.51 -92.70,131.54 -92.62,126.42 -92.54,121.30 -91.08,116.39 -89.61,111.48 -87.63,106.19 -85.65,100.90 -85.23,96.46 -84.81,92.03 -81.14,85.97 -77.48,79.92 -75.49,76.00 -73.50,72.08 -71.64,68.12 -69.79,64.17 -67.34,59.15 -64.88,54.13 -62.01,48.72 -59.15,43.32 -56.76,38.38 -54.38,33.44 -49.63,28.72 -44.87,24.00 -42.32,20.53 -39.77,17.05 -35.36,13.38 -30.94,9.72 -25.77,4.83 -20.61,-0.05 -15.86,-3.45 -11.11,-6.86 -7.54,-8.19 -3.97,-9.53 -2.77,-9.86 -1.57,-10.20 -0.33,-10.24 0.91,-10.28 2.13,-10.02 3.34,-9.76 4.46,-9.22 5.58,-8.68 6.54,-7.88 7.50,-7.09 8.24,-6.09 8.98,-5.09 9.46,-3.94 9.94,-2.79 10.13,-1.56 10.32,-0.33 10.21,0.90 10.10,2.14 9.69,3.32 9.29,4.50 8.61,5.54 7.94,6.59 7.04,7.44 6.13,8.30 5.05,8.91 3.97,9.53 3.97,9.53 L 3.97,9.53 Z"></path></g><g transform="translate(139.8571428571429 208.14285714285717) rotate(0 30.71428571428578 110.71428571428572)" stroke="none"><path fill="#5c940d" d="M 10.38,1.48 Q 10.38,1.48 9.49,7.22 8.60,12.96 8.47,18.79 8.34,24.62 7.46,33.86 6.59,43.09 6.34,49.77 6.09,56.45 6.04,60.74 6.00,65.02 6.17,69.66 6.34,74.29 6.58,79.66 6.82,85.03 6.87,91.87 6.92,98.71 6.85,103.19 6.79,107.66 6.92,112.37 7.06,117.07 7.25,122.32 7.43,127.56 7.44,134.12 7.45,140.69 7.48,146.73 7.52,152.77 7.47,160.13 7.41,167.48 6.88,172.50 6.35,177.52 5.15,184.29 3.94,191.06 2.99,195.51 2.03,199.96 -0.73,207.08 -3.51,214.21 -10.85,216.56 -18.18,218.92 -22.77,216.79 -27.37,214.66 -29.99,209.70 -32.61,204.74 -33.47,199.99 -34.33,195.24 -34.44,189.90 -34.54,184.57 -34.52,179.97 -34.50,175.37 -34.45,170.96 -34.40,166.54 -34.90,158.82 -35.40,151.09 -37.54,144.68 -39.68,138.27 -40.00,132.05 -40.33,125.83 -40.45,121.46 -40.57,117.09 -40.62,111.78 -40.67,106.47 -40.71,101.94 -40.74,97.41 -40.72,91.15 -40.70,84.89 -40.73,79.72 -40.77,74.55 -40.29,68.98 -39.81,63.40 -39.07,58.80 -38.34,54.19 -39.84,48.69 -41.35,43.19 -43.10,37.83 -44.84,32.46 -35.48,33.20 -26.11,33.93 -25.15,39.48 -24.19,45.03 -24.72,53.99 -25.26,62.95 -25.39,67.44 -25.53,71.93 -25.48,77.65 -25.44,83.36 -25.40,89.30 -25.36,95.24 -25.73,105.39 -26.10,115.54 -26.19,121.35 -26.27,127.15 -28.09,131.46 -29.91,135.78 -30.50,136.19 -31.10,136.60 -32.13,137.77 -33.17,138.93 -34.45,139.82 -35.73,140.70 -37.19,141.25 -38.65,141.80 -40.20,141.99 -41.74,142.17 -43.29,141.98 -44.84,141.80 -46.29,141.24 -47.75,140.69 -49.03,139.80 -50.31,138.91 -51.34,137.75 -52.37,136.58 -53.10,135.20 -53.82,133.82 -54.19,132.31 -54.56,130.79 -54.56,129.23 -54.56,127.68 -54.18,126.16 -53.81,124.65 -53.08,123.27 -52.36,121.89 -52.47,117.47 -52.57,113.05 -48.75,105.34 -44.93,97.63 -38.85,85.02 -32.78,72.40 -28.85,61.77 -24.92,51.14 -21.77,42.42 -18.62,33.70 -17.72,28.21 -16.83,22.73 -15.65,18.36 -14.47,13.99 -13.31,7.37 -12.14,0.76 -11.06,-3.96 -9.97,-8.70 -10.63,-13.10 -11.29,-17.50 -5.23,-18.00 0.83,-18.51 1.24,-14.03 1.65,-9.56 0.00,-2.60 -1.64,4.35 -7.72,11.11 -13.81,17.87 -16.78,21.24 -19.76,24.62 -25.21,31.36 -30.65,38.10 -34.07,43.30 -37.49,48.50 -39.14,55.23 -40.80,61.95 -42.28,70.92 -43.77,79.89 -44.56,84.60 -45.35,89.30 -45.67,93.59 -46.00,97.89 -47.17,103.89 -48.35,109.89 -49.73,115.07 -51.11,120.24 -53.15,125.15 -55.19,130.06 -56.94,135.23 -58.69,140.40 -60.05,145.36 -61.42,150.31 -61.36,154.88 -61.30,159.45 -61.77,166.59 -62.23,173.74 -62.37,178.41 -62.50,183.09 -67.12,179.27 -71.74,175.45 -76.17,175.77 -80.60,176.10 -77.79,169.57 -74.97,163.03 -73.21,158.06 -71.46,153.08 -70.28,148.09 -69.10,143.10 -67.02,136.66 -64.93,130.21 -64.21,125.19 -63.49,120.17 -63.21,115.54 -62.93,110.91 -61.87,105.47 -60.81,100.04 -58.24,94.87 -55.66,89.70 -45.89,81.79 -36.12,73.87 -29.68,70.14 -23.23,66.42 -15.56,62.54 -7.89,58.67 0.45,54.74 8.80,50.81 16.99,45.78 25.19,40.75 36.11,32.98 47.04,25.20 53.26,20.27 59.49,15.34 63.28,10.85 67.07,6.35 68.99,2.43 70.91,-1.48 71.61,-2.19 72.30,-2.89 73.15,-3.41 73.99,-3.93 74.93,-4.23 75.88,-4.53 76.86,-4.60 77.85,-4.67 78.83,-4.49 79.80,-4.32 80.71,-3.92 81.61,-3.52 82.40,-2.92 83.18,-2.31 83.79,-1.54 84.41,-0.76 84.82,0.13 85.24,1.03 85.42,2.00 85.61,2.97 85.55,3.96 85.50,4.95 85.21,5.89 84.93,6.84 84.42,7.69 83.91,8.54 80.09,19.05 76.27,29.57 70.62,50.49 64.97,71.41 62.42,81.62 59.87,91.83 59.08,98.47 58.29,105.11 58.13,111.07 57.97,117.04 56.67,126.36 55.37,135.69 55.18,141.94 54.98,148.19 53.29,159.70 51.59,171.21 49.96,180.22 48.33,189.22 47.58,195.53 46.84,201.85 46.27,207.18 45.69,212.52 46.58,211.82 47.47,211.12 47.67,212.15 47.86,213.17 47.81,214.21 47.76,215.26 47.46,216.26 47.15,217.26 46.62,218.15 46.09,219.05 45.36,219.80 44.63,220.54 43.74,221.09 42.85,221.64 41.86,221.96 40.87,222.28 39.82,222.35 38.78,222.42 37.75,222.25 36.73,222.07 35.77,221.65 34.81,221.23 33.99,220.59 33.16,219.96 32.51,219.14 31.86,218.32 31.42,217.38 30.98,216.43 30.31,209.91 29.63,203.39 28.96,198.67 28.29,193.94 29.43,183.68 30.58,173.43 33.40,161.91 36.21,150.40 38.32,140.93 40.42,131.47 41.05,124.77 41.69,118.06 41.68,113.19 41.66,108.32 41.57,103.05 41.47,97.79 41.28,93.07 41.09,88.36 40.90,83.90 40.70,79.44 40.97,74.26 41.25,69.08 42.11,61.73 42.98,54.38 42.92,48.92 42.86,43.45 42.66,38.46 42.46,33.47 42.22,29.06 41.98,24.66 42.67,20.56 43.37,16.46 43.98,15.07 44.58,13.67 45.50,12.47 46.42,11.26 47.60,10.30 48.79,9.35 50.16,8.71 51.54,8.07 53.03,7.77 54.52,7.48 56.04,7.55 57.55,7.62 59.01,8.05 60.47,8.48 61.78,9.25 63.09,10.02 64.17,11.08 65.26,12.14 66.07,13.43 66.87,14.72 67.34,16.16 67.81,17.60 67.92,19.12 68.04,20.63 67.78,22.13 67.53,23.63 65.76,28.70 63.98,33.76 61.19,40.47 58.40,47.18 53.65,56.19 48.90,65.20 44.09,72.75 39.28,80.30 34.71,87.15 30.13,94.01 28.38,98.60 26.62,103.19 24.82,109.48 23.01,115.77 20.50,119.65 18.00,123.53 14.99,128.31 11.97,133.09 11.32,140.11 10.66,147.12 7.95,156.20 5.24,165.29 4.50,170.29 3.76,175.30 2.47,183.28 1.18,191.26 1.07,195.96 0.96,200.66 2.78,206.30 4.59,211.94 -0.34,213.96 -5.29,215.97 -5.53,208.95 -5.77,201.93 -4.92,192.42 -4.07,182.92 -3.97,176.73 -3.87,170.53 -3.85,164.63 -3.84,158.72 -3.72,152.10 -3.60,145.48 -2.66,138.41 -1.72,131.33 -1.67,123.76 -1.61,116.20 -1.90,111.23 -2.18,106.27 -2.45,100.29 -2.73,94.32 -2.35,88.00 -1.97,81.69 -2.13,77.35 -2.29,73.01 -2.51,68.06 -2.73,63.10 -3.22,61.83 -3.72,60.55 -3.53,59.01 -3.34,57.47 -2.79,56.01 -2.24,54.56 -1.35,53.28 -0.47,52.00 0.69,50.97 1.85,49.94 3.23,49.22 4.61,48.49 6.12,48.12 7.63,47.75 9.18,47.75 10.74,47.75 12.24,48.13 13.75,48.50 15.13,49.22 16.51,49.95 17.67,50.98 18.83,52.01 19.72,53.29 20.60,54.57 21.15,56.02 21.70,57.48 21.89,59.02 22.07,60.57 20.76,65.64 19.45,70.71 16.66,79.47 13.87,88.23 12.09,95.63 10.31,103.02 9.29,110.73 8.26,118.43 7.79,125.87 7.31,133.30 7.36,138.94 7.41,144.58 7.60,149.03 7.79,153.47 8.21,160.54 8.63,167.61 7.99,176.76 7.34,185.92 6.58,192.46 5.82,199.01 5.19,204.58 4.56,210.16 4.33,215.05 4.10,219.95 3.81,226.10 3.53,232.25 3.39,238.18 3.26,244.10 3.33,248.68 3.41,253.25 3.71,257.83 4.01,262.42 5.22,267.97 6.44,273.52 1.64,275.20 -3.15,276.88 -3.73,269.81 -4.31,262.75 -4.40,256.90 -4.49,251.05 -3.38,246.64 -2.27,242.23 -0.90,236.40 0.45,230.57 1.67,226.50 2.89,222.42 7.63,225.04 12.38,227.67 12.42,236.89 12.46,246.10 12.20,251.24 11.95,256.39 9.13,251.62 6.32,246.85 1.69,247.39 -2.93,247.93 3.11,241.35 9.15,234.78 12.85,230.74 16.55,226.71 20.81,221.46 25.07,216.22 27.67,210.21 30.27,204.20 31.64,199.61 33.02,195.01 34.66,187.34 36.30,179.66 35.14,174.97 33.98,170.27 34.42,164.57 34.86,158.87 37.69,149.72 40.51,140.57 40.80,134.34 41.09,128.10 43.43,117.62 45.77,107.14 46.77,101.92 47.77,96.70 51.30,86.63 54.83,76.57 56.35,71.05 57.87,65.53 60.27,59.01 62.67,52.50 66.29,45.69 69.91,38.89 72.31,31.47 74.71,24.06 75.50,18.82 76.29,13.59 76.44,7.38 76.59,1.17 77.58,-5.13 78.56,-11.43 78.31,-16.32 78.06,-21.21 78.50,-26.03 78.94,-30.85 80.19,-36.46 81.43,-42.07 84.25,-48.09 87.07,-54.11 90.91,-58.76 94.74,-63.42 101.31,-68.32 107.89,-73.22 115.08,-73.38 122.28,-73.54 127.20,-70.41 132.12,-67.29 134.46,-63.21 136.79,-59.13 140.12,-51.71 143.45,-44.29 145.98,-37.75 148.51,-31.21 149.40,-25.07 150.30,-18.93 150.36,-11.78 150.42,-4.63 150.36,2.99 150.29,10.61 151.08,16.63 151.87,22.66 151.99,27.32 152.11,31.99 151.64,37.78 151.18,43.56 148.94,49.52 146.71,55.48 146.87,61.30 147.04,67.12 147.68,74.30 148.32,81.48 146.74,94.89 145.16,108.31 144.78,113.48 144.40,118.66 144.42,123.21 144.43,127.77 144.03,129.60 143.63,131.43 142.66,133.04 141.69,134.65 140.26,135.86 138.83,137.07 137.09,137.77 135.35,138.46 133.47,138.57 131.60,138.67 129.79,138.16 127.98,137.66 126.43,136.61 124.88,135.56 123.74,134.06 122.61,132.57 122.01,130.79 121.41,129.01 121.41,127.14 121.41,125.26 122.01,123.48 122.61,121.71 123.74,120.21 124.88,118.72 126.43,117.67 127.98,116.61 129.79,116.11 131.60,115.61 133.47,115.71 135.35,115.81 137.09,116.51 138.83,117.20 140.26,118.42 141.69,119.63 142.66,121.24 143.63,122.85 144.03,124.68 144.43,126.51 144.23,128.38 144.03,130.24 143.24,131.94 142.45,133.65 141.16,135.01 139.87,136.37 138.21,137.25 136.55,138.13 134.70,138.43 132.85,138.73 131.00,138.43 129.15,138.13 127.49,137.25 125.83,136.37 124.54,135.01 123.25,133.64 122.46,131.94 121.68,130.24 121.47,128.37 121.27,126.51 121.27,126.51 121.27,126.51 121.79,121.88 122.30,117.24 122.59,111.93 122.89,106.61 122.75,94.66 122.61,82.71 122.16,76.67 121.70,70.62 121.58,57.59 121.46,44.56 123.20,40.59 124.94,36.62 124.98,31.99 125.01,27.35 124.95,22.69 124.88,18.03 124.41,10.95 123.95,3.86 123.76,-4.19 123.57,-12.25 123.30,-17.95 123.04,-23.66 121.33,-28.24 119.62,-32.81 117.60,-36.79 115.59,-40.77 113.57,-45.29 111.55,-49.81 116.46,-50.08 121.37,-50.34 117.82,-47.77 114.27,-45.20 111.13,-41.62 107.99,-38.03 106.35,-33.93 104.72,-29.84 103.31,-25.44 101.90,-21.03 101.33,-16.11 100.77,-11.19 98.95,-4.40 97.14,2.39 96.05,9.49 94.96,16.60 92.13,27.11 89.31,37.61 87.48,41.85 85.66,46.09 82.44,54.26 79.21,62.43 76.79,66.49 74.37,70.55 72.57,75.92 70.78,81.28 68.45,91.03 66.11,100.78 64.91,105.46 63.71,110.13 62.81,119.07 61.91,128.01 62.30,136.55 62.69,145.10 61.27,157.40 59.85,169.71 60.61,176.96 61.37,184.21 60.61,188.63 59.85,193.05 58.92,197.60 57.99,202.14 56.51,207.11 55.04,212.07 51.48,218.96 47.93,225.84 44.66,230.78 41.39,235.71 38.58,239.31 35.77,242.91 32.35,247.32 28.93,251.73 25.57,256.03 22.21,260.34 19.42,263.68 16.63,267.02 8.21,269.92 -0.21,272.83 -4.88,269.33 -9.56,265.84 -12.04,260.47 -14.53,255.09 -14.15,249.33 -13.78,243.58 -13.53,238.35 -13.29,233.13 -12.98,228.03 -12.68,222.93 -11.21,218.05 -9.75,213.16 -5.44,209.13 -1.14,205.10 3.01,203.58 7.17,202.06 11.70,201.84 16.22,201.63 20.82,203.99 25.41,206.35 27.68,213.74 29.95,221.12 28.99,225.30 28.04,229.49 26.30,235.87 24.57,242.25 23.09,246.92 21.61,251.59 21.38,257.44 21.14,263.29 20.78,272.25 20.43,281.22 18.33,287.04 16.23,292.87 8.11,295.47 -0.00,298.08 -5.28,296.03 -10.56,293.97 -13.60,288.06 -16.63,282.14 -17.22,277.42 -17.80,272.71 -18.04,267.55 -18.29,262.39 -17.96,257.78 -17.64,253.17 -17.53,248.56 -17.42,243.95 -17.47,237.94 -17.52,231.92 -17.61,225.45 -17.69,218.97 -17.46,213.47 -17.23,207.97 -16.76,202.63 -16.30,197.29 -14.89,189.54 -13.48,181.79 -12.47,174.68 -11.47,167.57 -11.00,160.43 -10.53,153.30 -10.25,148.79 -9.97,144.28 -9.73,138.53 -9.48,132.79 -9.49,125.02 -9.50,117.25 -9.43,108.50 -9.36,99.76 -8.56,91.65 -7.76,83.55 -5.74,72.05 -3.72,60.55 -3.53,59.01 -3.34,57.47 -2.79,56.01 -2.24,54.56 -1.35,53.28 -0.47,52.00 0.69,50.97 1.85,49.94 3.23,49.22 4.60,48.50 6.11,48.12 7.62,47.75 9.18,47.75 10.73,47.75 12.24,48.13 13.75,48.50 15.13,49.22 16.51,49.95 17.67,50.98 18.83,52.01 19.72,53.29 20.60,54.57 21.15,56.02 21.70,57.48 21.89,59.02 22.07,60.56 21.79,59.44 21.51,58.31 21.97,63.60 22.44,68.88 22.12,74.43 21.81,79.98 21.31,84.57 20.81,89.16 20.19,94.73 19.57,100.29 19.21,105.85 18.84,111.41 18.21,117.91 17.57,124.42 17.00,129.02 16.42,133.63 15.71,139.58 15.00,145.53 15.10,152.16 15.20,158.80 15.17,164.75 15.13,170.70 15.12,176.94 15.12,183.18 15.71,193.27 16.30,203.36 15.92,208.44 15.55,213.52 9.95,223.25 4.36,232.98 -2.62,230.93 -9.61,228.88 -11.95,223.24 -14.29,217.60 -15.71,208.52 -17.13,199.45 -16.58,194.56 -16.02,189.67 -15.76,180.89 -15.50,172.11 -14.51,166.67 -13.52,161.23 -11.29,148.81 -9.06,136.39 -8.32,130.80 -7.59,125.21 -2.61,118.31 2.37,111.42 5.11,107.85 7.85,104.28 9.57,100.34 11.30,96.40 13.94,91.06 16.59,85.72 20.43,78.86 24.28,72.00 27.68,64.69 31.09,57.37 34.07,48.79 37.05,40.22 38.91,32.62 40.77,25.02 42.07,20.74 43.37,16.46 43.98,15.07 44.58,13.67 45.50,12.47 46.42,11.26 47.60,10.31 48.78,9.35 50.16,8.71 51.54,8.07 53.03,7.77 54.52,7.48 56.03,7.55 57.55,7.62 59.01,8.05 60.46,8.48 61.77,9.25 63.08,10.02 64.17,11.08 65.26,12.14 66.07,13.43 66.87,14.72 67.34,16.16 67.81,17.60 67.92,19.12 68.04,20.63 67.78,22.13 67.53,23.63 66.91,26.76 66.28,29.89 66.05,34.16 65.81,38.43 65.43,44.06 65.05,49.69 63.99,54.99 62.93,60.28 61.64,65.52 60.35,70.76 59.79,75.15 59.22,79.54 58.97,84.06 58.72,88.58 58.42,93.39 58.11,98.21 57.74,103.78 57.36,109.34 56.70,114.49 56.04,119.64 55.14,126.85 54.24,134.06 52.75,143.80 51.25,153.55 49.46,164.03 47.66,174.52 47.63,183.17 47.60,191.82 48.02,196.80 48.44,201.78 47.95,206.45 47.47,211.12 47.67,212.15 47.86,213.17 47.81,214.21 47.76,215.26 47.46,216.26 47.15,217.25 46.62,218.15 46.09,219.05 45.36,219.80 44.63,220.54 43.74,221.09 42.85,221.64 41.86,221.96 40.87,222.28 39.83,222.35 38.78,222.42 37.76,222.25 36.73,222.07 35.77,221.65 34.82,221.23 33.99,220.59 33.16,219.96 32.51,219.14 31.86,218.33 31.42,217.38 30.98,216.43 30.31,213.44 29.65,210.45 31.47,205.05 33.29,199.64 34.58,193.44 35.87,187.24 37.08,178.40 38.29,169.55 39.42,158.39 40.55,147.23 41.20,140.72 41.86,134.22 42.56,125.13 43.27,116.04 43.95,109.59 44.63,103.14 45.82,96.04 47.01,88.94 49.12,78.42 51.23,67.90 56.55,45.84 61.86,23.79 64.61,15.78 67.35,7.78 69.13,3.14 70.91,-1.48 71.61,-2.19 72.30,-2.89 73.15,-3.41 73.99,-3.93 74.93,-4.23 75.88,-4.53 76.86,-4.60 77.85,-4.67 78.83,-4.49 79.80,-4.32 80.71,-3.92 81.61,-3.52 82.39,-2.92 83.18,-2.31 83.79,-1.54 84.41,-0.76 84.82,0.12 85.24,1.02 85.42,2.00 85.61,2.97 85.55,3.96 85.50,4.95 85.21,5.89 84.93,6.84 84.42,7.69 83.91,8.54 80.61,12.21 77.30,15.88 72.46,20.63 67.63,25.38 61.27,30.62 54.92,35.85 43.99,44.25 33.06,52.65 24.61,58.63 16.17,64.62 8.55,69.19 0.94,73.77 -5.75,78.32 -12.45,82.87 -18.54,87.36 -24.63,91.85 -30.36,96.37 -36.09,100.89 -38.46,106.60 -40.83,112.31 -41.17,117.60 -41.50,122.89 -42.23,129.61 -42.96,136.33 -44.29,142.05 -45.61,147.77 -46.66,154.01 -47.71,160.25 -49.27,166.23 -50.83,172.22 -52.83,178.08 -54.83,183.95 -57.39,188.77 -59.96,193.59 -63.68,196.66 -67.41,199.73 -72.04,200.25 -76.68,200.77 -80.96,197.87 -85.25,194.98 -86.97,188.50 -88.69,182.02 -88.31,176.27 -87.93,170.52 -87.48,164.61 -87.04,158.69 -86.55,152.98 -86.05,147.26 -84.51,143.02 -82.96,138.77 -81.18,132.88 -79.40,127.00 -76.62,120.66 -73.83,114.32 -72.76,110.03 -71.69,105.74 -70.97,101.06 -70.26,96.38 -69.98,90.99 -69.71,85.61 -69.10,81.09 -68.49,76.56 -67.94,71.37 -67.39,66.17 -66.78,61.85 -66.18,57.52 -64.92,50.90 -63.67,44.27 -60.26,38.64 -56.85,33.00 -53.25,27.99 -49.65,22.98 -46.89,19.46 -44.12,15.94 -41.34,12.40 -38.55,8.86 -31.59,1.74 -24.63,-5.38 -23.02,-11.22 -21.42,-17.06 -19.88,-21.26 -18.34,-25.45 -15.79,-29.44 -13.24,-33.43 -8.73,-35.72 -4.22,-38.02 0.10,-37.34 4.42,-36.65 7.63,-27.19 10.84,-17.73 10.11,-10.71 9.37,-3.69 8.11,0.57 6.86,4.84 5.73,8.99 4.60,13.14 1.86,19.53 -0.86,25.92 -2.29,32.09 -3.71,38.26 -6.00,47.30 -8.30,56.33 -11.38,68.16 -14.46,79.99 -19.09,93.16 -23.72,106.33 -26.65,114.82 -29.58,123.30 -30.34,129.95 -31.10,136.60 -32.13,137.77 -33.17,138.93 -34.45,139.82 -35.73,140.70 -37.19,141.25 -38.65,141.80 -40.20,141.99 -41.74,142.17 -43.29,141.98 -44.83,141.80 -46.29,141.24 -47.75,140.69 -49.03,139.80 -50.31,138.91 -51.34,137.75 -52.37,136.58 -53.10,135.20 -53.82,133.82 -54.19,132.31 -54.56,130.79 -54.56,129.24 -54.56,127.68 -54.18,126.17 -53.81,124.65 -53.08,123.27 -52.36,121.90 -51.61,123.24 -50.86,124.58 -50.94,120.06 -51.03,115.54 -51.40,105.39 -51.77,95.24 -51.73,89.27 -51.68,83.30 -51.60,77.54 -51.52,71.77 -51.60,67.18 -51.68,62.59 -51.78,57.57 -51.89,52.55 -51.44,43.20 -50.99,33.85 -49.59,27.86 -48.19,21.86 -44.42,18.33 -40.64,14.81 -32.88,14.64 -25.11,14.46 -21.05,21.01 -16.99,27.55 -15.46,31.53 -13.93,35.50 -12.15,44.00 -10.38,52.50 -10.66,57.06 -10.94,61.62 -12.23,68.09 -13.51,74.55 -13.54,79.72 -13.57,84.88 -13.55,91.14 -13.53,97.40 -13.59,104.36 -13.65,111.31 -13.70,115.94 -13.74,120.57 -13.73,125.49 -13.72,130.41 -12.94,135.68 -12.16,140.96 -10.75,149.09 -9.35,157.22 -8.85,161.77 -8.35,166.31 -8.22,170.60 -8.10,174.88 -7.91,179.16 -7.72,183.44 -9.25,190.25 -10.78,197.06 -18.43,199.12 -26.07,201.18 -24.23,195.67 -22.39,190.15 -21.14,185.01 -19.90,179.87 -19.37,173.67 -18.84,167.47 -18.90,160.12 -18.95,152.77 -18.91,146.73 -18.88,140.69 -18.87,134.12 -18.86,127.56 -18.68,122.32 -18.49,117.07 -18.35,112.37 -18.22,107.66 -18.28,103.19 -18.35,98.71 -18.29,91.87 -18.24,85.03 -17.99,79.59 -17.74,74.15 -17.48,69.42 -17.23,64.68 -16.90,56.10 -16.56,47.52 -15.24,39.87 -13.91,32.21 -13.77,27.88 -13.62,23.55 -12.75,16.79 -11.89,10.03 -11.13,4.27 -10.38,-1.48 -10.05,-2.70 -9.72,-3.92 -9.11,-5.03 -8.50,-6.13 -7.64,-7.06 -6.78,-7.99 -5.73,-8.69 -4.67,-9.38 -3.48,-9.80 -2.29,-10.23 -1.03,-10.35 0.22,-10.48 1.47,-10.30 2.72,-10.12 3.89,-9.65 5.06,-9.18 6.09,-8.44 7.11,-7.70 7.93,-6.73 8.75,-5.77 9.31,-4.64 9.88,-3.51 10.15,-2.27 10.43,-1.04 10.40,0.22 10.38,1.48 10.38,1.48 L 10.38,1.48 Z"></path></g></svg>